<svg width="60" height="53" viewBox="0 0 60 53" fill="none" xmlns="http://www.w3.org/2000/svg">
<path d="M30.6081 33.7898C30.0538 33.7457 29.7767 33.7236 29.2225 33.6794C29.4661 29.7389 29.2348 25.9135 28.5179 22.0325C28.064 19.7104 27.6797 17.384 27.3539 15.0408C27.313 14.7322 27.291 14.5777 27.2439 14.2685C27.1826 13.8651 27.6838 13.6548 27.9231 13.9935C28.1064 14.2531 28.1971 14.3839 28.3762 14.6477C29.7347 16.832 30.6333 18.9874 31.2424 21.4793C32.0141 25.6182 32.2605 29.6985 31.9938 33.9C31.4395 33.856 31.1623 33.8339 30.6081 33.7898Z" fill="url(#paint0_linear_44_1468)"/>
<path d="M30.6081 33.7898C30.0538 33.7457 29.7767 33.7236 29.2225 33.6794C29.4661 29.7389 29.2348 25.9135 28.5179 22.0325C28.064 19.7104 27.6797 17.384 27.3539 15.0408C27.313 14.7322 27.291 14.5777 27.2439 14.2685C27.1826 13.8651 27.6838 13.6548 27.9231 13.9935C28.1064 14.2531 28.1971 14.3839 28.3762 14.6477C29.7347 16.832 30.6333 18.9874 31.2424 21.4793C32.0141 25.6182 32.2605 29.6985 31.9938 33.9C31.4395 33.856 31.1623 33.8339 30.6081 33.7898Z" fill="url(#paint1_linear_44_1468)"/>
<path d="M30.4557 46.2644C30.4418 31.6806 21.2641 22.7815 21.1714 22.6933L23.1363 20.6279C23.2415 20.7281 25.7434 23.1309 28.2478 27.4907C30.5511 31.5005 33.2984 38.012 33.3063 46.2618L30.4557 46.2644Z" fill="url(#paint2_linear_44_1468)"/>
<path d="M30.4557 46.2644C30.4418 31.6806 21.2641 22.7815 21.1714 22.6933L23.1363 20.6279C23.2415 20.7281 25.7434 23.1309 28.2478 27.4907C30.5511 31.5005 33.2984 38.012 33.3063 46.2618L30.4557 46.2644Z" fill="url(#paint3_linear_44_1468)"/>
<path d="M30.4557 46.2644C30.4418 31.6806 21.2641 22.7815 21.1714 22.6933L23.1363 20.6279C23.2415 20.7281 25.7434 23.1309 28.2478 27.4907C30.5511 31.5005 33.2984 38.012 33.3063 46.2618L30.4557 46.2644Z" fill="url(#paint4_linear_44_1468)"/>
<path d="M30.3418 46.3958C30.1949 35.2241 31.2343 26.1897 33.2064 19.7686C34.7265 14.8192 36.3608 13.1792 36.5421 13.0085L38.496 15.0843C38.496 15.0843 38.5034 15.0779 38.5168 15.0641C38.503 15.0782 37.1188 16.5278 35.7892 21.081C34.5609 25.287 33.2471 33.1808 33.4205 46.3582L30.3418 46.3958Z" fill="url(#paint5_linear_44_1468)"/>
<path d="M36.5422 13.0085C36.3608 13.1792 34.7266 14.8192 33.2065 19.7686C31.9595 23.8287 31.086 28.9349 30.6489 34.9643H33.6793C34.1064 28.3651 34.9668 23.8966 35.7891 21.0811C37.1188 16.5279 38.503 15.0784 38.5167 15.0642C38.5033 15.078 38.4959 15.0844 38.4959 15.0844L36.5422 13.0085Z" fill="url(#paint6_linear_44_1468)"/>
<path d="M1.18889 12.5572C11.8382 5.02937 31.7298 11.8946 28.1497 29.4338C28.0582 29.8817 27.7734 30.2657 27.3759 30.4915C25.0833 31.7942 16.969 35.769 11.4658 30.3472C6.85075 25.8004 9.75112 21.2436 6.72577 17.6622C4.9613 15.5733 2.80992 14.5276 1.39237 14.0282C0.750478 13.8022 0.633127 12.9501 1.18889 12.5572Z" fill="url(#paint7_linear_44_1468)"/>
<path d="M1.18884 12.5572C0.633194 12.95 0.75043 13.8021 1.39232 14.0283C2.80987 14.5276 4.96125 15.5735 6.72572 17.6623C7.35041 18.4018 7.72205 19.1829 7.95972 19.997L24.818 31.7313C25.9302 31.2755 26.8227 30.8058 27.3757 30.4916C27.7732 30.2658 28.0582 29.8819 28.1496 29.4339C31.7297 11.8946 11.8382 5.02937 1.18884 12.5572Z" fill="url(#paint8_linear_44_1468)"/>
<path d="M11.466 30.3472C16.969 35.7688 25.0834 31.7941 27.3761 30.4915C27.7736 30.2657 28.0585 29.8817 28.15 29.4338C29.8459 21.1254 26.2746 15.2127 20.9141 12.0901L9.75098 28.1273C10.1622 28.8647 10.7137 29.606 11.466 30.3472Z" fill="url(#paint9_linear_44_1468)"/>
<path d="M0.833623 13.2241C0.827812 13.5616 1.02241 13.8983 1.39121 14.0281C2.80875 14.5274 4.96013 15.5733 6.7246 17.6621C9.74996 21.2437 6.84958 25.8003 11.4646 30.3471C16.9677 35.7688 25.082 31.794 27.3747 30.4915C27.5121 30.4134 27.6349 30.3153 27.7421 30.2033C26.6966 25.4142 23.4179 20.5371 18.3812 17.0313C12.6539 13.0447 6.05308 11.8053 0.833623 13.2241Z" fill="url(#paint10_linear_44_1468)"/>
<path d="M0.833623 13.2241C0.827812 13.5616 1.02241 13.8983 1.39121 14.0281C2.80875 14.5274 4.96013 15.5733 6.7246 17.6621C9.74996 21.2437 6.84958 25.8003 11.4646 30.3471C16.9677 35.7688 25.082 31.794 27.3747 30.4915C27.5121 30.4134 27.6349 30.3153 27.7421 30.2033C26.6966 25.4142 23.4179 20.5371 18.3812 17.0313C12.6539 13.0447 6.05308 11.8053 0.833623 13.2241Z" fill="url(#paint11_linear_44_1468)"/>
<path d="M11.466 30.3472C16.969 35.7688 25.0834 31.7941 27.3761 30.4915C27.7736 30.2657 28.0585 29.8817 28.15 29.4338C29.8459 21.1254 26.2746 15.2127 20.9141 12.0901L9.75098 28.1273C10.1622 28.8647 10.7137 29.606 11.466 30.3472Z" fill="url(#paint12_linear_44_1468)"/>
<path d="M58.6992 2.37625C46.5368 -4.17394 26.5014 5.59438 32.5141 23.5774C32.6677 24.0367 33.0164 24.4039 33.4634 24.5905C36.041 25.6664 45.0824 28.8056 50.1738 22.3994C54.4435 17.027 50.8098 12.6076 53.5317 8.45385C55.1193 6.03131 57.2473 4.65592 58.6738 3.9492C59.3197 3.62916 59.3338 2.71805 58.6992 2.37625Z" fill="url(#paint13_linear_44_1468)"/>
<path d="M59.1565 3.03221C59.2058 3.38631 59.0445 3.76525 58.6733 3.94913C57.2467 4.65585 55.1187 6.03124 53.5312 8.45378C50.8092 12.6074 54.443 17.027 50.1732 22.3993C45.0818 28.8055 36.0404 25.6663 33.4628 24.5905C33.3083 24.526 33.1666 24.4386 33.0396 24.3346C33.525 19.1649 36.3472 13.6165 41.1937 9.28469C46.7049 4.35872 53.4865 2.20939 59.1565 3.03221Z" fill="url(#paint14_linear_44_1468)"/>
<path d="M59.1565 3.03221C59.2058 3.38631 59.0445 3.76525 58.6733 3.94913C57.2467 4.65585 55.1187 6.03124 53.5312 8.45378C50.8092 12.6074 54.443 17.027 50.1732 22.3993C45.0818 28.8055 36.0404 25.6663 33.4628 24.5905C33.3083 24.526 33.1666 24.4386 33.0396 24.3346C33.525 19.1649 36.3472 13.6165 41.1937 9.28469C46.7049 4.35872 53.4865 2.20939 59.1565 3.03221Z" fill="url(#paint15_linear_44_1468)"/>
<path d="M50.1737 22.3993C45.0823 28.8054 36.0409 25.6663 33.4633 24.5904C33.0163 24.4039 32.6676 24.0367 32.514 23.5774C29.6658 15.0588 32.663 8.38411 37.8992 4.41357L51.6923 19.8453C51.3546 20.6733 50.8696 21.5236 50.1737 22.3993Z" fill="url(#paint16_linear_44_1468)"/>
<path d="M30.417 39.2725C30.3353 41.5381 30.3091 43.9139 30.3418 46.3958L33.4203 46.3584C33.3866 43.801 33.4092 41.4436 33.4761 39.2725H30.417Z" fill="url(#paint17_linear_44_1468)"/>
<path d="M21.7691 46.9609C21.9791 46.9551 22.1839 46.9725 22.3813 47.0109C22.8394 47.0999 23.2908 46.8148 23.4226 46.3673C23.9144 44.6985 25.4574 43.4805 27.2854 43.4805C28.8449 43.4805 30.1965 44.3672 30.8654 45.6636C31.032 45.9865 31.3303 46.2146 31.6835 46.3C33.1511 46.6546 34.2189 48.034 34.0866 49.6384C33.9593 51.1843 32.6955 52.423 31.1475 52.5226C30.0707 52.5919 23.1406 52.5293 21.8483 52.5293C20.2521 52.5293 18.9695 51.1864 19.0689 49.5688C19.1564 48.1439 20.3421 47.0006 21.7691 46.9609Z" fill="url(#paint18_linear_44_1468)"/>
<path d="M43.192 45.073C42.9112 45.0652 42.6372 45.0886 42.3732 45.1399C41.7607 45.259 41.157 44.8777 40.9805 44.2791C40.3228 42.0472 38.259 40.4181 35.814 40.4181C33.7282 40.4181 31.9206 41.604 31.0258 43.3379C30.8029 43.7699 30.404 44.0749 29.9317 44.189C27.9687 44.6633 26.5406 46.5083 26.7174 48.6543C26.8878 50.722 28.5779 52.3787 30.6484 52.5118C32.0885 52.6044 41.3575 52.5208 43.0861 52.5208C45.2209 52.5208 46.9363 50.7246 46.8034 48.5611C46.6863 46.6553 45.1005 45.1261 43.192 45.073Z" fill="url(#paint19_linear_44_1468)"/>
<path d="M43.192 45.073C42.9112 45.0652 42.6372 45.0886 42.3732 45.1399C41.7607 45.259 41.157 44.8777 40.9805 44.2791C40.3228 42.0472 38.259 40.4181 35.814 40.4181C33.7282 40.4181 31.9206 41.604 31.0258 43.3379C30.8029 43.7699 30.404 44.0749 29.9317 44.189C27.9687 44.6633 26.5406 46.5083 26.7174 48.6543C26.8878 50.722 28.5779 52.3787 30.6484 52.5118C32.0885 52.6044 41.3575 52.5208 43.0861 52.5208C45.2209 52.5208 46.9363 50.7246 46.8034 48.5611C46.6863 46.6553 45.1005 45.1261 43.192 45.073Z" fill="url(#paint20_linear_44_1468)"/>
<path d="M40.9805 44.2791C40.3228 42.0472 38.259 40.4181 35.814 40.4181C33.7282 40.4181 31.9206 41.604 31.0258 43.3381C30.8029 43.77 30.404 44.075 29.9317 44.1891C27.9687 44.6634 26.5406 46.5085 26.7174 48.6543C26.8878 50.7219 28.5779 52.3786 30.6484 52.5118C31.1117 52.5416 32.3854 52.5531 33.9573 52.5551C34.1507 50.772 35.4524 49.3214 37.1602 48.9088C37.6326 48.7946 38.0225 48.4848 38.2543 48.0577C39.5722 45.6306 42.3732 45.1398 42.3732 45.1398C41.7606 45.259 41.1569 44.8777 40.9805 44.2791Z" fill="url(#paint21_linear_44_1468)"/>
<defs>
<linearGradient id="paint0_linear_44_1468" x1="28.8991" y1="23.9616" x2="31.8255" y2="23.6365" gradientUnits="userSpaceOnUse">
<stop stop-color="#BBEC6C"/>
<stop offset="1" stop-color="#81B823"/>
</linearGradient>
<linearGradient id="paint1_linear_44_1468" x1="29.5333" y1="24.1194" x2="33.0557" y2="25.3116" gradientUnits="userSpaceOnUse">
<stop stop-color="#026841" stop-opacity="0"/>
<stop offset="0.2391" stop-color="#0A6644" stop-opacity="0.239"/>
<stop offset="0.6113" stop-color="#20604D" stop-opacity="0.611"/>
<stop offset="1" stop-color="#3E5959"/>
</linearGradient>
<linearGradient id="paint2_linear_44_1468" x1="30.2374" y1="32.6048" x2="27.7989" y2="33.6209" gradientUnits="userSpaceOnUse">
<stop stop-color="#BBEC6C"/>
<stop offset="1" stop-color="#81B823"/>
</linearGradient>
<linearGradient id="paint3_linear_44_1468" x1="30.2388" y1="34.8829" x2="25.0772" y2="32.7289" gradientUnits="userSpaceOnUse">
<stop stop-color="#026841" stop-opacity="0"/>
<stop offset="0.2391" stop-color="#0A6644" stop-opacity="0.239"/>
<stop offset="0.6113" stop-color="#20604D" stop-opacity="0.611"/>
<stop offset="1" stop-color="#3E5959"/>
</linearGradient>
<linearGradient id="paint4_linear_44_1468" x1="28.6837" y1="33.8436" x2="31.7727" y2="34.4938" gradientUnits="userSpaceOnUse">
<stop stop-color="#026841" stop-opacity="0"/>
<stop offset="0.2391" stop-color="#0A6644" stop-opacity="0.239"/>
<stop offset="0.6113" stop-color="#20604D" stop-opacity="0.611"/>
<stop offset="1" stop-color="#3E5959"/>
</linearGradient>
<linearGradient id="paint5_linear_44_1468" x1="31.7682" y1="29.5826" x2="34.0442" y2="29.7452" gradientUnits="userSpaceOnUse">
<stop stop-color="#BBEC6C"/>
<stop offset="1" stop-color="#81B823"/>
</linearGradient>
<linearGradient id="paint6_linear_44_1468" x1="31.1147" y1="29.5724" x2="34.9081" y2="24.2075" gradientUnits="userSpaceOnUse">
<stop stop-color="#026841" stop-opacity="0"/>
<stop offset="0.2391" stop-color="#0A6644" stop-opacity="0.239"/>
<stop offset="0.6113" stop-color="#20604D" stop-opacity="0.611"/>
<stop offset="1" stop-color="#3E5959"/>
</linearGradient>
<linearGradient id="paint7_linear_44_1468" x1="14.3848" y1="21.4481" x2="24.8824" y2="13.9617" gradientUnits="userSpaceOnUse">
<stop stop-color="#BBEC6C"/>
<stop offset="1" stop-color="#81B823"/>
</linearGradient>
<linearGradient id="paint8_linear_44_1468" x1="19.7515" y1="17.7528" x2="25.3057" y2="13.9281" gradientUnits="userSpaceOnUse">
<stop stop-color="#026841" stop-opacity="0"/>
<stop offset="0.2391" stop-color="#0A6644" stop-opacity="0.239"/>
<stop offset="0.6113" stop-color="#20604D" stop-opacity="0.611"/>
<stop offset="1" stop-color="#3E5959"/>
</linearGradient>
<linearGradient id="paint9_linear_44_1468" x1="23.7239" y1="22.4249" x2="29.2282" y2="22.1831" gradientUnits="userSpaceOnUse">
<stop stop-color="#026841" stop-opacity="0"/>
<stop offset="0.2391" stop-color="#0A6644" stop-opacity="0.239"/>
<stop offset="0.6113" stop-color="#20604D" stop-opacity="0.611"/>
<stop offset="1" stop-color="#3E5959"/>
</linearGradient>
<linearGradient id="paint10_linear_44_1468" x1="11.1114" y1="23.2162" x2="23.0223" y2="18.0542" gradientUnits="userSpaceOnUse">
<stop stop-color="#BBEC6C"/>
<stop offset="0.2321" stop-color="#B7E868"/>
<stop offset="0.4582" stop-color="#ADDE5C"/>
<stop offset="0.6818" stop-color="#9CCD48"/>
<stop offset="0.9026" stop-color="#85B52D"/>
<stop offset="1" stop-color="#78A91F"/>
</linearGradient>
<linearGradient id="paint11_linear_44_1468" x1="9.59686" y1="12.4116" x2="6.72176" y2="7.09574" gradientUnits="userSpaceOnUse">
<stop stop-color="#026841" stop-opacity="0"/>
<stop offset="0.2391" stop-color="#0A6644" stop-opacity="0.239"/>
<stop offset="0.6113" stop-color="#20604D" stop-opacity="0.611"/>
<stop offset="1" stop-color="#3E5959"/>
</linearGradient>
<linearGradient id="paint12_linear_44_1468" x1="21.7559" y1="28.3704" x2="25.1353" y2="33.5244" gradientUnits="userSpaceOnUse">
<stop stop-color="#026841" stop-opacity="0"/>
<stop offset="0.2391" stop-color="#0A6644" stop-opacity="0.239"/>
<stop offset="0.6113" stop-color="#20604D" stop-opacity="0.611"/>
<stop offset="1" stop-color="#3E5959"/>
</linearGradient>
<linearGradient id="paint13_linear_44_1468" x1="43.6993" y1="6.81632" x2="47.8001" y2="19.3295" gradientUnits="userSpaceOnUse">
<stop stop-color="#BBEC6C"/>
<stop offset="1" stop-color="#81B823"/>
</linearGradient>
<linearGradient id="paint14_linear_44_1468" x1="44.0831" y1="6.30709" x2="48.9092" y2="24.1363" gradientUnits="userSpaceOnUse">
<stop stop-color="#BBEC6C"/>
<stop offset="0.2321" stop-color="#B7E868"/>
<stop offset="0.4582" stop-color="#ADDE5C"/>
<stop offset="0.6818" stop-color="#9CCD48"/>
<stop offset="0.9026" stop-color="#85B52D"/>
<stop offset="1" stop-color="#78A91F"/>
</linearGradient>
<linearGradient id="paint15_linear_44_1468" x1="45.7422" y1="13.0942" x2="52.516" y2="24.3117" gradientUnits="userSpaceOnUse">
<stop stop-color="#026841" stop-opacity="0"/>
<stop offset="0.2391" stop-color="#0A6644" stop-opacity="0.239"/>
<stop offset="0.6113" stop-color="#20604D" stop-opacity="0.611"/>
<stop offset="1" stop-color="#3E5959"/>
</linearGradient>
<linearGradient id="paint16_linear_44_1468" x1="40.5696" y1="20.2269" x2="37.264" y2="30.3063" gradientUnits="userSpaceOnUse">
<stop stop-color="#026841" stop-opacity="0"/>
<stop offset="0.2391" stop-color="#0A6644" stop-opacity="0.239"/>
<stop offset="0.6113" stop-color="#20604D" stop-opacity="0.611"/>
<stop offset="1" stop-color="#3E5959"/>
</linearGradient>
<linearGradient id="paint17_linear_44_1468" x1="31.9021" y1="42.1446" x2="31.9021" y2="46.5135" gradientUnits="userSpaceOnUse">
<stop stop-color="#026841" stop-opacity="0"/>
<stop offset="0.2391" stop-color="#0A6644" stop-opacity="0.239"/>
<stop offset="0.6113" stop-color="#20604D" stop-opacity="0.611"/>
<stop offset="1" stop-color="#3E5959"/>
</linearGradient>
<linearGradient id="paint18_linear_44_1468" x1="21.9934" y1="44.076" x2="27.3289" y2="50.3719" gradientUnits="userSpaceOnUse">
<stop stop-color="#C86D36"/>
<stop offset="0.201" stop-color="#C46B35"/>
<stop offset="0.4143" stop-color="#B76233"/>
<stop offset="0.6334" stop-color="#A2552F"/>
<stop offset="0.8549" stop-color="#85422A"/>
<stop offset="1" stop-color="#6D3326"/>
</linearGradient>
<linearGradient id="paint19_linear_44_1468" x1="33.5666" y1="41.7042" x2="38.4423" y2="52.2493" gradientUnits="userSpaceOnUse">
<stop stop-color="#C86D36"/>
<stop offset="0.201" stop-color="#C46B35"/>
<stop offset="0.4143" stop-color="#B76233"/>
<stop offset="0.6334" stop-color="#A2552F"/>
<stop offset="0.8549" stop-color="#85422A"/>
<stop offset="1" stop-color="#6D3326"/>
</linearGradient>
<linearGradient id="paint20_linear_44_1468" x1="36.7566" y1="49.5409" x2="36.7566" y2="53.3358" gradientUnits="userSpaceOnUse">
<stop stop-color="#3A0F13" stop-opacity="0"/>
<stop offset="0.2722" stop-color="#3E1215" stop-opacity="0.272"/>
<stop offset="0.5611" stop-color="#4B1B19" stop-opacity="0.561"/>
<stop offset="0.8568" stop-color="#602A21" stop-opacity="0.857"/>
<stop offset="1" stop-color="#6D3326"/>
</linearGradient>
<linearGradient id="paint21_linear_44_1468" x1="35.9985" y1="45.535" x2="42.0648" y2="42.3034" gradientUnits="userSpaceOnUse">
<stop stop-color="#3A0F13" stop-opacity="0"/>
<stop offset="0.2722" stop-color="#3E1215" stop-opacity="0.272"/>
<stop offset="0.5611" stop-color="#4B1B19" stop-opacity="0.561"/>
<stop offset="0.8568" stop-color="#602A21" stop-opacity="0.857"/>
<stop offset="1" stop-color="#6D3326"/>
</linearGradient>
</defs>
</svg>
