<svg width="40" height="48" viewBox="0 0 40 48" fill="none" xmlns="http://www.w3.org/2000/svg">
<path fill-rule="evenodd" clip-rule="evenodd" d="M24.5117 35.7773H13.3555C12.6055 35.7773 11.9727 36.0117 11.3984 36.4922L4.4375 42.3281L4.55469 35.7773H3.52344C1.84766 35.7773 0.476562 34.4062 0.476562 32.7305V17.9414C0.476562 16.2656 1.84766 14.8945 3.52344 14.8945H24.5117C26.1875 14.8945 27.5586 16.2656 27.5586 17.9414V32.7305C27.5586 34.4062 26.1875 35.7773 24.5117 35.7773Z" fill="#F4F4F4"/>
<path fill-rule="evenodd" clip-rule="evenodd" d="M24.5117 35.7773H13.3555C12.6055 35.7773 11.9727 36.0117 11.3984 36.4922L4.4375 42.3281L4.55469 35.7773H3.52344C1.84766 35.7773 0.476562 34.4063 0.476562 32.7305V24.3281H27.5586V32.7305C27.5586 34.4063 26.1875 35.7773 24.5117 35.7773Z" fill="#E8E8E8"/>
<path fill-rule="evenodd" clip-rule="evenodd" d="M27.5586 20.5547L39.9922 14.8125V32.5078L27.5586 26.7656V20.5547Z" fill="#FFB300"/>
<path fill-rule="evenodd" clip-rule="evenodd" d="M39.9922 24.3281V32.5078L27.5586 26.7656V24.3281H39.9922Z" fill="#D09500"/>
<path fill-rule="evenodd" clip-rule="evenodd" d="M16.4141 25.6172L7.66016 30.668V20.5664L16.4141 25.6172Z" fill="#ED2024"/>
<path fill-rule="evenodd" clip-rule="evenodd" d="M21.2305 0.738281C25.1328 0.738281 28.3086 3.90234 28.3086 7.81641C28.3086 11.7188 25.1445 14.8828 21.2305 14.8828C17.3164 14.8828 14.1523 11.7188 14.1523 7.81641C14.1523 3.90234 17.3281 0.738281 21.2305 0.738281Z" fill="#989897"/>
<path fill-rule="evenodd" clip-rule="evenodd" d="M7.08594 0.738281C3.18359 0.738281 0.0078125 3.90234 0.0078125 7.81641C0.0078125 11.7188 3.17188 14.8828 7.08594 14.8828C10.9883 14.8828 14.1641 11.7188 14.1641 7.81641C14.1523 3.90234 10.9883 0.738281 7.08594 0.738281Z" fill="#989897"/>
<path fill-rule="evenodd" clip-rule="evenodd" d="M24.6641 26.2266C19.2383 26.2266 14.832 30.6328 14.832 36.0586C14.832 41.4844 19.2383 45.8906 24.6641 45.8906C25.6953 45.8906 26.6914 45.7266 27.6289 45.4336L31.4727 47.2734L30.5938 43.9102C32.9609 42.1172 34.4961 39.2695 34.4961 36.0703C34.4961 30.6211 30.0898 26.2266 24.6641 26.2266Z" fill="#DCC8E9"/>
<path d="M20.8555 36.9727C20.3398 36.9727 19.918 36.5508 19.918 36.0352C19.918 35.5195 20.3398 35.0977 20.8555 35.0977H21.6992C22.2148 35.0977 22.6367 35.5195 22.6367 36.0352C22.6367 36.5508 22.2148 36.9727 21.6992 36.9727H20.8555ZM27.6289 36.9727C27.1133 36.9727 26.6914 36.5508 26.6914 36.0352C26.6914 35.5195 27.1133 35.0977 27.6289 35.0977H28.4727C28.9883 35.0977 29.4102 35.5195 29.4102 36.0352C29.4102 36.5508 28.9883 36.9727 28.4727 36.9727H27.6289ZM24.2422 36.9727C23.7266 36.9727 23.3047 36.5508 23.3047 36.0352C23.3047 35.5195 23.7266 35.0977 24.2422 35.0977H25.0859C25.6016 35.0977 26.0234 35.5195 26.0234 36.0352C26.0234 36.5508 25.6016 36.9727 25.0859 36.9727H24.2422Z" fill="white"/>
<path fill-rule="evenodd" clip-rule="evenodd" d="M7.08594 3.94922C4.95313 3.94922 3.23047 5.67188 3.23047 7.80469C3.23047 9.9375 4.95313 11.6602 7.08594 11.6602C9.21875 11.6602 10.9414 9.9375 10.9414 7.80469C10.9414 5.68359 9.20703 3.94922 7.08594 3.94922Z" fill="#C2C2C1"/>
<path fill-rule="evenodd" clip-rule="evenodd" d="M21.2305 3.94922C19.0977 3.94922 17.375 5.67188 17.375 7.80469C17.375 9.9375 19.0977 11.6602 21.2305 11.6602C23.3633 11.6602 25.0859 9.9375 25.0859 7.80469C25.0859 5.68359 23.3633 3.94922 21.2305 3.94922Z" fill="#C2C2C1"/>
<path fill-rule="evenodd" clip-rule="evenodd" d="M14.8906 24.7383L7.66016 28.9102V30.668L16.4141 25.6172L14.8906 24.7383Z" fill="#991B1E"/>
<path fill-rule="evenodd" clip-rule="evenodd" d="M33.3477 34.3828C33.3477 37.582 31.8125 40.4297 29.4453 42.2227L30.3242 45.5859L26.4805 43.7578C25.543 44.0508 24.5469 44.2148 23.5156 44.2148C20.5039 44.2148 17.8203 42.8672 16.0156 40.7344C17.6797 43.8047 20.9258 45.8789 24.6641 45.8789C25.6953 45.8789 26.6914 45.7148 27.6289 45.4219L31.4727 47.2617L30.5937 43.8984C32.9609 42.1055 34.4961 39.2578 34.4961 36.0586C34.4961 33.6328 33.6172 31.418 32.1758 29.707C32.9258 31.0898 33.3477 32.6836 33.3477 34.3828Z" fill="#A7A7A7"/>
</svg>
