<svg width="38" height="37" viewBox="0 0 38 37" fill="none" xmlns="http://www.w3.org/2000/svg">
<rect width="37.0915" height="37" fill="white"/>
<g clip-path="url(#clip0_50_2455)">
<path d="M19.5293 11.014H18.4705V10.0611C18.4705 8.63165 19.6293 7.47287 21.0587 7.47287H28.3216C28.8341 7.47287 29.2757 7.07977 29.301 6.56786C29.328 6.02066 28.8906 5.56699 28.3493 5.56699H12.6626C11.5516 5.56699 10.6509 4.66629 10.6509 3.55523V2.27285C10.6509 1.98047 10.8879 1.74344 11.1803 1.74344C11.4727 1.74344 11.7097 1.98047 11.7097 2.27285V3.55523C11.7097 4.08153 12.1363 4.50817 12.6626 4.50817H28.3065C29.4012 4.50817 30.3276 5.36483 30.3602 6.45902C30.3939 7.59598 29.4788 8.5317 28.3493 8.5317H21.0588C20.2141 8.5317 19.5293 9.2164 19.5293 10.0611V11.014Z" fill="url(#paint0_linear_50_2455)"/>
<path d="M20.3428 9.77328H17.6568C16.9518 9.77328 16.3392 10.8391 16.1768 12.3481L16.0664 13.3741C15.9919 14.067 16.2308 14.7315 16.5546 14.7315H21.445C21.7687 14.7315 22.0076 14.067 21.9331 13.3741L21.8227 12.3481C21.6604 10.8391 21.0479 9.77328 20.3428 9.77328Z" fill="url(#paint1_linear_50_2455)"/>
<path d="M13.0584 13.0025H7.15029C5.59954 13.0025 4.25208 14.0683 3.89497 15.5773L3.65222 16.6032C3.48824 17.2961 4.01384 17.9607 4.72587 17.9607H15.4827C16.1948 17.9607 16.7204 17.2961 16.5564 16.6032L16.3136 15.5773C15.9565 14.0682 14.6091 13.0025 13.0584 13.0025Z" fill="url(#paint2_linear_50_2455)"/>
<path d="M30.8494 13.0025H24.9413C23.3906 13.0025 22.0431 14.0683 21.686 15.5773L21.4432 16.6032C21.2793 17.2961 21.8049 17.9607 22.5169 17.9607H33.2738C33.9858 17.9607 34.5114 17.2961 34.3474 16.6032L34.1046 15.5773C33.7475 14.0682 32.4002 13.0025 30.8494 13.0025Z" fill="url(#paint3_linear_50_2455)"/>
<path d="M11.6737 12.553C6.83027 12.553 2.71872 15.9885 2.01234 20.6257L1.11764 26.4995C0.326273 31.6949 3.60898 36.2566 8.51564 36.2566C12.997 36.2566 16.7513 32.4513 17.4182 27.8335C17.5286 27.0691 18.2025 26.4995 19 26.4995C19.7976 26.4995 20.4715 27.069 20.5819 27.8335C21.2488 32.4513 25.003 36.2566 29.4844 36.2566C34.391 36.2566 37.6738 31.6949 36.8824 26.4995L35.9877 20.6257C35.2814 15.9884 31.1697 12.5529 26.3264 12.5529H11.6737V12.553Z" fill="url(#paint4_linear_50_2455)"/>
<path d="M3.33691 23.1905L13.2143 33.068C14.0155 31.8982 14.5261 30.4785 14.6689 28.9322L6.13207 20.3954L3.33691 23.1905Z" fill="url(#paint5_linear_50_2455)"/>
<path d="M6.37402 26.228L13.214 33.068C14.0151 31.8983 14.5258 30.4785 14.6685 28.9322L9.16918 23.4329L6.37402 26.228Z" fill="url(#paint6_linear_50_2455)"/>
<path d="M6.37402 20.1531L14.6996 28.4786C14.7285 27.8352 14.695 27.1728 14.5924 26.4995L13.9242 22.1129L9.16918 17.3579L6.37402 20.1531Z" fill="url(#paint7_linear_50_2455)"/>
<path d="M9.41162 23.1905L14.6997 28.4786C14.7286 27.8352 14.6951 27.1728 14.5925 26.4995L13.9243 22.1129L12.2068 20.3954L9.41162 23.1905Z" fill="url(#paint8_linear_50_2455)"/>
<path d="M7.77188 20.732C8.86346 20.732 9.74835 19.8471 9.74835 18.7555C9.74835 17.6639 8.86346 16.779 7.77188 16.779C6.68031 16.779 5.79541 17.6639 5.79541 18.7555C5.79541 19.8471 6.68031 20.732 7.77188 20.732Z" fill="url(#paint9_linear_50_2455)"/>
<path d="M7.77188 26.8069C8.86346 26.8069 9.74835 25.922 9.74835 24.8304C9.74835 23.7389 8.86346 22.854 7.77188 22.854C6.68031 22.854 5.79541 23.7389 5.79541 24.8304C5.79541 25.922 6.68031 26.8069 7.77188 26.8069Z" fill="url(#paint10_linear_50_2455)"/>
<path d="M10.8095 23.7694C11.9011 23.7694 12.7859 22.8845 12.7859 21.793C12.7859 20.7014 11.9011 19.8165 10.8095 19.8165C9.7179 19.8165 8.83301 20.7014 8.83301 21.793C8.83301 22.8845 9.7179 23.7694 10.8095 23.7694Z" fill="url(#paint11_linear_50_2455)"/>
<path d="M4.73428 23.7694C5.82586 23.7694 6.71075 22.8845 6.71075 21.793C6.71075 20.7014 5.82586 19.8165 4.73428 19.8165C3.64271 19.8165 2.75781 20.7014 2.75781 21.793C2.75781 22.8845 3.64271 23.7694 4.73428 23.7694Z" fill="url(#paint12_linear_50_2455)"/>
<path d="M22.2739 19.866H15.7257C15.4333 19.866 15.1963 20.103 15.1963 20.3954C15.1963 20.6878 15.4333 20.9248 15.7257 20.9248H22.2739C22.5663 20.9248 22.8033 20.6878 22.8033 20.3954C22.8033 20.103 22.5663 19.866 22.2739 19.866Z" fill="url(#paint13_linear_50_2455)"/>
<path d="M17.2214 24.177L11.9077 29.4907L15.2528 32.8357C16.3748 31.4326 17.1485 29.6994 17.418 27.8334C17.5284 27.069 18.2023 26.4995 18.9998 26.4995C19.2502 26.4995 19.4885 26.5557 19.7009 26.6564L17.2214 24.177Z" fill="url(#paint14_linear_50_2455)"/>
<path d="M1.11764 26.4995C0.326273 31.6949 3.60898 36.2566 8.51564 36.2566C12.997 36.2566 16.7513 32.4513 17.4182 27.8335C17.5286 27.0691 18.2025 26.4995 19 26.4995C19.7976 26.4995 20.4715 27.069 20.5819 27.8335C21.2488 32.4513 25.003 36.2566 29.4844 36.2566C34.391 36.2566 37.6738 31.6949 36.8824 26.4995L36.8623 26.367H1.13776L1.11764 26.4995Z" fill="url(#paint15_linear_50_2455)"/>
<path d="M29.4843 36.2566C31.9171 36.2566 33.9502 35.1349 35.2859 33.3709L26.0921 24.177L20.9189 29.3502C22.099 33.2558 25.5049 36.2566 29.4843 36.2566Z" fill="url(#paint16_linear_50_2455)"/>
<path d="M21.9539 17.2106H16.0458C14.495 17.2106 13.1476 16.1448 12.7905 14.6358L12.5477 13.6098C12.3838 12.9169 12.9094 12.2524 13.6214 12.2524H24.3782C25.0903 12.2524 25.6159 12.9169 25.4519 13.6098L25.2091 14.6358C24.852 16.1448 23.5046 17.2106 21.9539 17.2106Z" fill="url(#paint17_linear_50_2455)"/>
<path d="M14.565 30.5912C16.6401 30.5912 18.3223 28.9089 18.3223 26.8338C18.3223 24.7587 16.6401 23.0765 14.565 23.0765C12.4898 23.0765 10.8076 24.7587 10.8076 26.8338C10.8076 28.9089 12.4898 30.5912 14.565 30.5912Z" fill="url(#paint18_linear_50_2455)"/>
<path d="M18.2992 26.4246L16.6367 24.7621L12.4932 28.9056L14.1557 30.5681C15.2486 30.6872 16.3838 30.3286 17.2217 29.4907C18.0597 28.6527 18.4183 27.5176 18.2992 26.4246Z" fill="url(#paint19_linear_50_2455)"/>
<path d="M14.5652 29.7637C16.1833 29.7637 17.4951 28.452 17.4951 26.8338C17.4951 25.2157 16.1833 23.9039 14.5652 23.9039C12.947 23.9039 11.6353 25.2157 11.6353 26.8338C11.6353 28.452 12.947 29.7637 14.5652 29.7637Z" fill="url(#paint20_linear_50_2455)"/>
<path d="M23.4356 30.5912C25.5107 30.5912 27.1929 28.9089 27.1929 26.8338C27.1929 24.7587 25.5107 23.0765 23.4356 23.0765C21.3604 23.0765 19.6782 24.7587 19.6782 26.8338C19.6782 28.9089 21.3604 30.5912 23.4356 30.5912Z" fill="url(#paint21_linear_50_2455)"/>
<path d="M27.1698 26.4246L25.5073 24.7621L21.3638 28.9056L23.0263 30.5681C24.1193 30.6872 25.2544 30.3286 26.0923 29.4907C26.9303 28.6527 27.2888 27.5176 27.1698 26.4246Z" fill="url(#paint22_linear_50_2455)"/>
<path d="M23.4358 29.7637C25.0539 29.7637 26.3657 28.452 26.3657 26.8338C26.3657 25.2157 25.0539 23.9039 23.4358 23.9039C21.8176 23.9039 20.5059 25.2157 20.5059 26.8338C20.5059 28.452 21.8176 29.7637 23.4358 29.7637Z" fill="url(#paint23_linear_50_2455)"/>
<path d="M16.5821 17.7459H18.9821C19.2745 17.7459 19.5116 17.983 19.5116 18.2754C19.5116 18.5677 19.2745 18.8048 18.9821 18.8048H16.5821C16.2898 18.8048 16.0527 18.5677 16.0527 18.2754C16.0527 17.983 16.2898 17.7459 16.5821 17.7459Z" fill="url(#paint24_linear_50_2455)"/>
<path d="M20.8175 18.8048C20.5251 18.8048 20.2881 18.5677 20.2881 18.2754C20.2881 17.983 20.5251 17.7459 20.8175 17.7459H21.4175C21.7099 17.7459 21.9469 17.983 21.9469 18.2754C21.9469 18.5677 21.7099 18.8048 21.4175 18.8048H20.8175Z" fill="url(#paint25_linear_50_2455)"/>
<path d="M25.627 23.1905L35.5044 33.068C36.3055 31.8982 36.8162 30.4785 36.9589 28.9322L28.4221 20.3954L25.627 23.1905Z" fill="url(#paint26_linear_50_2455)"/>
<path d="M28.6641 26.228L35.504 33.068C36.3052 31.8983 36.8158 30.4785 36.9585 28.9322L31.4592 23.4329L28.6641 26.228Z" fill="url(#paint27_linear_50_2455)"/>
<path d="M28.6641 20.1531L36.9896 28.4786C37.0185 27.8352 36.985 27.1728 36.8824 26.4995L36.2143 22.1129L31.4592 17.3579L28.6641 20.1531Z" fill="url(#paint28_linear_50_2455)"/>
<path d="M31.7017 23.1905L36.9897 28.4786C37.0186 27.8352 36.9851 27.1728 36.8826 26.4995L36.2144 22.1129L34.4968 20.3954L31.7017 23.1905Z" fill="url(#paint29_linear_50_2455)"/>
<path d="M30.0619 20.732C31.1535 20.732 32.0384 19.8471 32.0384 18.7555C32.0384 17.6639 31.1535 16.779 30.0619 16.779C28.9703 16.779 28.0854 17.6639 28.0854 18.7555C28.0854 19.8471 28.9703 20.732 30.0619 20.732Z" fill="url(#paint30_linear_50_2455)"/>
<path d="M30.0619 26.8069C31.1535 26.8069 32.0384 25.922 32.0384 24.8304C32.0384 23.7389 31.1535 22.854 30.0619 22.854C28.9703 22.854 28.0854 23.7389 28.0854 24.8304C28.0854 25.922 28.9703 26.8069 30.0619 26.8069Z" fill="url(#paint31_linear_50_2455)"/>
<path d="M33.0995 23.7694C34.1911 23.7694 35.076 22.8845 35.076 21.793C35.076 20.7014 34.1911 19.8165 33.0995 19.8165C32.0079 19.8165 31.123 20.7014 31.123 21.793C31.123 22.8845 32.0079 23.7694 33.0995 23.7694Z" fill="url(#paint32_linear_50_2455)"/>
<path d="M27.0243 23.7694C28.1159 23.7694 29.0008 22.8845 29.0008 21.793C29.0008 20.7014 28.1159 19.8165 27.0243 19.8165C25.9327 19.8165 25.0479 20.7014 25.0479 21.793C25.0479 22.8845 25.9327 23.7694 27.0243 23.7694Z" fill="url(#paint33_linear_50_2455)"/>
</g>
<defs>
<linearGradient id="paint0_linear_50_2455" x1="18.2277" y1="0.651156" x2="21.4747" y2="6.90993" gradientUnits="userSpaceOnUse">
<stop stop-color="#5A5A5A"/>
<stop offset="1" stop-color="#444444"/>
</linearGradient>
<linearGradient id="paint1_linear_50_2455" x1="17.1219" y1="10.8154" x2="19.0983" y2="12.7918" gradientUnits="userSpaceOnUse">
<stop stop-color="#5A5A5A"/>
<stop offset="1" stop-color="#444444"/>
</linearGradient>
<linearGradient id="paint2_linear_50_2455" x1="6.42796" y1="12.553" x2="7.97144" y2="14.0965" gradientUnits="userSpaceOnUse">
<stop stop-color="#5A5A5A"/>
<stop offset="1" stop-color="#444444"/>
</linearGradient>
<linearGradient id="paint3_linear_50_2455" x1="30.3925" y1="12.2426" x2="29.7219" y2="13.372" gradientUnits="userSpaceOnUse">
<stop stop-color="#5A5A5A"/>
<stop offset="1" stop-color="#444444"/>
</linearGradient>
<linearGradient id="paint4_linear_50_2455" x1="13.8598" y1="15.1184" x2="24.6592" y2="37.9878" gradientUnits="userSpaceOnUse">
<stop stop-color="#EAF6FF"/>
<stop offset="1" stop-color="#B3DAFE"/>
</linearGradient>
<linearGradient id="paint5_linear_50_2455" x1="10.6731" y1="27.7316" x2="3.37955" y2="20.438" gradientUnits="userSpaceOnUse">
<stop stop-color="#B3DAFE" stop-opacity="0"/>
<stop offset="1" stop-color="#7BACDF"/>
</linearGradient>
<linearGradient id="paint6_linear_50_2455" x1="11.884" y1="28.9429" x2="6.83334" y2="23.8922" gradientUnits="userSpaceOnUse">
<stop stop-color="#B3DAFE" stop-opacity="0"/>
<stop offset="1" stop-color="#7BACDF"/>
</linearGradient>
<linearGradient id="paint7_linear_50_2455" x1="12.7772" y1="23.7611" x2="6.62955" y2="17.6134" gradientUnits="userSpaceOnUse">
<stop stop-color="#B3DAFE" stop-opacity="0"/>
<stop offset="1" stop-color="#7BACDF"/>
</linearGradient>
<linearGradient id="paint8_linear_50_2455" x1="14.8648" y1="25.5011" x2="10.2765" y2="22.0423" gradientUnits="userSpaceOnUse">
<stop stop-color="#B3DAFE" stop-opacity="0"/>
<stop offset="1" stop-color="#7BACDF"/>
</linearGradient>
<linearGradient id="paint9_linear_50_2455" x1="6.78534" y1="17.769" x2="8.88273" y2="19.8663" gradientUnits="userSpaceOnUse">
<stop stop-color="#9BE69D"/>
<stop offset="1" stop-color="#0996A4"/>
</linearGradient>
<linearGradient id="paint10_linear_50_2455" x1="6.78534" y1="23.8439" x2="8.88273" y2="25.9414" gradientUnits="userSpaceOnUse">
<stop stop-color="#2ED1E2"/>
<stop offset="1" stop-color="#314DC9"/>
</linearGradient>
<linearGradient id="paint11_linear_50_2455" x1="9.63249" y1="20.616" x2="12.7615" y2="23.7449" gradientUnits="userSpaceOnUse">
<stop stop-color="#F28CC4"/>
<stop offset="1" stop-color="#E41F2D"/>
</linearGradient>
<linearGradient id="paint12_linear_50_2455" x1="3.65358" y1="20.7123" x2="6.75106" y2="23.8098" gradientUnits="userSpaceOnUse">
<stop stop-color="#FEF0AE"/>
<stop offset="1" stop-color="#FAC600"/>
</linearGradient>
<linearGradient id="paint13_linear_50_2455" x1="18.9998" y1="21.0661" x2="18.9998" y2="19.923" gradientUnits="userSpaceOnUse">
<stop stop-color="#EAF6FF"/>
<stop offset="1" stop-color="#B3DAFE"/>
</linearGradient>
<linearGradient id="paint14_linear_50_2455" x1="19.1676" y1="31.437" x2="14.1105" y2="26.3798" gradientUnits="userSpaceOnUse">
<stop stop-color="#B3DAFE" stop-opacity="0"/>
<stop offset="1" stop-color="#7BACDF"/>
</linearGradient>
<linearGradient id="paint15_linear_50_2455" x1="19" y1="29.9864" x2="19" y2="37.3986" gradientUnits="userSpaceOnUse">
<stop stop-color="#B3DAFE" stop-opacity="0"/>
<stop offset="1" stop-color="#7BACDF"/>
</linearGradient>
<linearGradient id="paint16_linear_50_2455" x1="29.6607" y1="33.7911" x2="21.8466" y2="25.977" gradientUnits="userSpaceOnUse">
<stop stop-color="#B3DAFE" stop-opacity="0"/>
<stop offset="1" stop-color="#7BACDF"/>
</linearGradient>
<linearGradient id="paint17_linear_50_2455" x1="18.9998" y1="14.067" x2="18.9998" y2="17.7831" gradientUnits="userSpaceOnUse">
<stop stop-color="#5A5A5A"/>
<stop offset="1" stop-color="#444444"/>
</linearGradient>
<linearGradient id="paint18_linear_50_2455" x1="12.2667" y1="24.5356" x2="15.9529" y2="28.2218" gradientUnits="userSpaceOnUse">
<stop stop-color="#EAF6FF"/>
<stop offset="1" stop-color="#B3DAFE"/>
</linearGradient>
<linearGradient id="paint19_linear_50_2455" x1="17.3789" y1="29.6479" x2="14.3611" y2="26.6299" gradientUnits="userSpaceOnUse">
<stop stop-color="#B3DAFE" stop-opacity="0"/>
<stop offset="1" stop-color="#7BACDF"/>
</linearGradient>
<linearGradient id="paint20_linear_50_2455" x1="13.4737" y1="25.7424" x2="14.5817" y2="26.8504" gradientUnits="userSpaceOnUse">
<stop stop-color="#5A5A5A"/>
<stop offset="1" stop-color="#444444"/>
</linearGradient>
<linearGradient id="paint21_linear_50_2455" x1="21.1374" y1="24.5356" x2="24.8235" y2="28.2218" gradientUnits="userSpaceOnUse">
<stop stop-color="#EAF6FF"/>
<stop offset="1" stop-color="#B3DAFE"/>
</linearGradient>
<linearGradient id="paint22_linear_50_2455" x1="26.2495" y1="29.6479" x2="23.2316" y2="26.63" gradientUnits="userSpaceOnUse">
<stop stop-color="#B3DAFE" stop-opacity="0"/>
<stop offset="1" stop-color="#7BACDF"/>
</linearGradient>
<linearGradient id="paint23_linear_50_2455" x1="22.3443" y1="25.7424" x2="23.4524" y2="26.8504" gradientUnits="userSpaceOnUse">
<stop stop-color="#5A5A5A"/>
<stop offset="1" stop-color="#444444"/>
</linearGradient>
<linearGradient id="paint24_linear_50_2455" x1="16.4111" y1="14.827" x2="18.7405" y2="20.6859" gradientUnits="userSpaceOnUse">
<stop stop-color="#9BE69D"/>
<stop offset="1" stop-color="#0996A4"/>
</linearGradient>
<linearGradient id="paint25_linear_50_2455" x1="20.8262" y1="17.448" x2="21.4144" y2="19.1186" gradientUnits="userSpaceOnUse">
<stop stop-color="#F28CC4"/>
<stop offset="1" stop-color="#E41F2D"/>
</linearGradient>
<linearGradient id="paint26_linear_50_2455" x1="32.9632" y1="27.7316" x2="25.6696" y2="20.438" gradientUnits="userSpaceOnUse">
<stop stop-color="#B3DAFE" stop-opacity="0"/>
<stop offset="1" stop-color="#7BACDF"/>
</linearGradient>
<linearGradient id="paint27_linear_50_2455" x1="34.174" y1="28.9429" x2="29.1234" y2="23.8922" gradientUnits="userSpaceOnUse">
<stop stop-color="#B3DAFE" stop-opacity="0"/>
<stop offset="1" stop-color="#7BACDF"/>
</linearGradient>
<linearGradient id="paint28_linear_50_2455" x1="35.0672" y1="23.7611" x2="28.9196" y2="17.6134" gradientUnits="userSpaceOnUse">
<stop stop-color="#B3DAFE" stop-opacity="0"/>
<stop offset="1" stop-color="#7BACDF"/>
</linearGradient>
<linearGradient id="paint29_linear_50_2455" x1="37.1548" y1="25.5011" x2="32.5666" y2="22.0423" gradientUnits="userSpaceOnUse">
<stop stop-color="#B3DAFE" stop-opacity="0"/>
<stop offset="1" stop-color="#7BACDF"/>
</linearGradient>
<linearGradient id="paint30_linear_50_2455" x1="29.0754" y1="17.769" x2="31.1728" y2="19.8663" gradientUnits="userSpaceOnUse">
<stop stop-color="#9BE69D"/>
<stop offset="1" stop-color="#0996A4"/>
</linearGradient>
<linearGradient id="paint31_linear_50_2455" x1="29.0754" y1="23.8439" x2="31.1728" y2="25.9414" gradientUnits="userSpaceOnUse">
<stop stop-color="#2ED1E2"/>
<stop offset="1" stop-color="#314DC9"/>
</linearGradient>
<linearGradient id="paint32_linear_50_2455" x1="31.9225" y1="20.616" x2="35.0515" y2="23.7449" gradientUnits="userSpaceOnUse">
<stop stop-color="#F28CC4"/>
<stop offset="1" stop-color="#E41F2D"/>
</linearGradient>
<linearGradient id="paint33_linear_50_2455" x1="25.9436" y1="20.7123" x2="29.0411" y2="23.8098" gradientUnits="userSpaceOnUse">
<stop stop-color="#FEF0AE"/>
<stop offset="1" stop-color="#FAC600"/>
</linearGradient>
<clipPath id="clip0_50_2455">
<rect width="36" height="36" fill="white" transform="translate(1 1)"/>
</clipPath>
</defs>
</svg>
