<svg width="35" height="36" viewBox="0 0 35 36" fill="none" xmlns="http://www.w3.org/2000/svg">
<g clip-path="url(#clip0_68_5384)">
<path fill-rule="evenodd" clip-rule="evenodd" d="M8.67695 30.485C4.49543 30.485 0.263461 29.5593 0.149253 27.7894C0.147513 27.7741 0.146484 27.7584 0.146484 27.7425V27.7159V19.6843C0.146484 19.4625 0.326419 19.2825 0.548193 19.2825C0.769968 19.2825 0.949981 19.4628 0.949981 19.6843V20.0212C1.31934 20.6467 2.95322 22.0722 10.1632 21.7099L12.2577 21.7092C12.3501 21.7092 12.4251 21.7841 12.4251 21.8766V29.4175C12.6138 29.4243 12.7791 29.5646 12.8083 29.759C12.8415 29.9783 12.6903 30.1832 12.471 30.2163C11.2897 30.3946 10.0133 30.485 8.67695 30.485Z" fill="#FEDB41"/>
<path fill-rule="evenodd" clip-rule="evenodd" d="M11.3242 21.7091H12.2593C12.3518 21.7091 12.4268 21.7841 12.4268 21.8766V29.4174C12.6155 29.4242 12.7808 29.5645 12.81 29.759C12.8432 29.9783 12.692 30.1832 12.4726 30.2163C12.1987 30.2576 11.9198 30.2942 11.6362 30.326C11.4684 30.0778 11.3578 29.7984 11.3291 29.4843C11.3245 29.4329 11.3242 29.4593 11.3242 29.3891L11.3242 21.7091Z" fill="#FEC53B"/>
<path fill-rule="evenodd" clip-rule="evenodd" d="M0.146484 23.2149V22.0078C0.153286 22.8057 3.96441 24.3205 8.67735 24.3264C8.68937 24.3264 8.70163 24.3267 8.71366 24.3267C9.85804 24.3267 11.3487 24.1877 12.4251 24.0423V24.8526C11.3242 24.9975 9.85646 25.1301 8.71374 25.1301C8.70116 25.1301 8.68898 25.1301 8.67633 25.1301C5.45815 25.1261 1.74723 24.3707 0.146484 23.2149Z" fill="#FEBC35"/>
<path fill-rule="evenodd" clip-rule="evenodd" d="M0.146484 25.8958V24.683C0.146484 25.4844 3.95999 27.0038 8.67695 27.0038C9.82782 27.0038 11.3319 26.8641 12.4251 26.7171V27.5278C11.3078 27.6738 9.82641 27.8076 8.67695 27.8076C5.45846 27.8076 1.74723 27.0541 0.146484 25.8958Z" fill="#FEBC35"/>
<path fill-rule="evenodd" clip-rule="evenodd" d="M11.3242 24.1721C11.7166 24.1321 12.0917 24.0874 12.4268 24.0421V24.8525C12.0874 24.8972 11.713 24.9407 11.3242 24.9795V24.1721Z" fill="#FEA930"/>
<path fill-rule="evenodd" clip-rule="evenodd" d="M11.3242 26.8468C11.7158 26.8068 12.0907 26.7622 12.4268 26.7171V27.5278C12.0865 27.5722 11.7123 27.6156 11.3242 27.6543V26.8468Z" fill="#FEA930"/>
<path fill-rule="evenodd" clip-rule="evenodd" d="M8.67695 22.453C4.43785 22.453 0.146484 21.5019 0.146484 19.6843C0.146484 17.8667 4.43769 16.9159 8.67695 16.9159C9.95358 16.9159 11.1786 16.9984 12.3181 17.1619C12.538 17.1935 12.6903 17.3969 12.6588 17.6164C12.644 17.719 12.5915 17.8068 12.5175 17.8682V21.5007C12.5911 21.562 12.6433 21.6495 12.658 21.7518C12.6894 21.9713 12.5369 22.1751 12.3172 22.2066C11.1778 22.3698 9.95303 22.453 8.67695 22.453Z" fill="#FEBC35"/>
<path fill-rule="evenodd" clip-rule="evenodd" d="M11.3242 17.0418C11.6625 17.0753 11.9946 17.1153 12.3197 17.162C12.5396 17.1935 12.692 17.397 12.6604 17.6164C12.6457 17.7191 12.5932 17.8069 12.5191 17.8683V21.5007C12.5928 21.5621 12.6449 21.6496 12.6596 21.7518C12.6911 21.9714 12.5385 22.1751 12.3189 22.2066C11.994 22.2531 11.6622 22.2932 11.3242 22.3266V17.0418Z" fill="#FEA930"/>
<path fill-rule="evenodd" clip-rule="evenodd" d="M20.3915 32.1321C16.209 32.1321 11.9762 31.2061 11.864 29.4357C11.8622 29.4204 11.8613 29.4049 11.8613 29.3892V29.3635V15.9771C11.8613 15.7553 12.0413 15.5754 12.263 15.5754C12.4848 15.5754 12.6648 15.7553 12.6648 15.9771V16.4131C13.27 17.0023 15.046 18.1792 19.5498 18.1185C22.5757 18.0778 24.5975 17.8183 25.9422 17.4626C27.1389 17.1461 27.783 16.7593 28.1185 16.3877V15.977C28.1185 15.7553 28.2987 15.5753 28.5203 15.5753C28.7418 15.5753 28.922 15.7553 28.922 15.977V21.0464C28.922 21.2682 28.7421 21.4481 28.5203 21.4481L25.1652 31.0365C25.2272 31.0928 25.2723 31.1689 25.2895 31.2573C25.3319 31.475 25.1898 31.6859 24.9716 31.7283C23.6131 31.9924 22.0291 32.1321 20.3915 32.1321Z" fill="#FEDB41"/>
<path fill-rule="evenodd" clip-rule="evenodd" d="M28.9212 20.1304V21.0463C28.9212 21.2682 28.7413 21.448 28.5195 21.448L25.1645 31.0364C25.2264 31.0927 25.2716 31.1688 25.2887 31.2572C25.3311 31.4749 25.1891 31.6858 24.9709 31.7282C24.7317 31.7747 24.4856 31.8174 24.2334 31.8561C22.7274 30.6449 21.7617 28.788 21.7617 26.7093C21.7617 23.0685 24.7232 20.1066 28.3642 20.1066C28.5518 20.1066 28.7376 20.1149 28.9212 20.1304Z" fill="#FEC53B"/>
<path fill-rule="evenodd" clip-rule="evenodd" d="M11.8613 19.5111V18.2983C11.8613 19.0996 15.6749 20.6191 20.3915 20.6191C25.1081 20.6191 28.9219 19.1206 28.9219 18.3193V19.5291C27.3213 20.6816 23.6101 21.4228 20.3915 21.4228C17.173 21.4228 13.4619 20.6693 11.8613 19.5111Z" fill="#FEBC35"/>
<path fill-rule="evenodd" clip-rule="evenodd" d="M11.8613 22.1885V20.9758C11.8613 21.7771 15.6749 23.2966 20.3915 23.2966C21.525 23.2966 22.6209 23.2291 23.649 23.0954C23.8681 23.0644 24.0706 23.222 24.0991 23.4419C24.1279 23.662 23.9726 23.8635 23.7526 23.892C22.6905 24.0302 21.5597 24.1003 20.3915 24.1003C17.173 24.1003 13.4619 23.3468 11.8613 22.1885Z" fill="#FEBC35"/>
<path fill-rule="evenodd" clip-rule="evenodd" d="M11.8613 24.866V23.6534C11.8613 24.4547 15.6749 25.9741 20.3915 25.9741C21.1685 25.9741 21.939 25.9418 22.6817 25.8773C22.8982 25.8558 23.0975 26.0219 23.1168 26.2431C23.1357 26.4642 22.9719 26.6588 22.7509 26.6781C21.9854 26.7441 21.1914 26.7779 20.3915 26.7779C17.173 26.7779 13.4619 26.0244 11.8613 24.866Z" fill="#FEBC35"/>
<path fill-rule="evenodd" clip-rule="evenodd" d="M11.8613 27.5429V26.3303C11.8613 27.1316 15.6749 28.651 20.3915 28.651C21.3238 28.651 22.236 28.605 23.103 28.514C23.3203 28.4934 23.5215 28.651 23.5446 28.8718C23.5675 29.0924 23.4077 29.2902 23.187 29.3133C22.2922 29.4071 21.3518 29.4547 20.3915 29.4547C17.173 29.4547 13.4619 28.7012 11.8613 27.5429Z" fill="#FEBC35"/>
<path fill-rule="evenodd" clip-rule="evenodd" d="M27.8215 20.129C27.0816 20.447 26.1734 20.7159 25.1836 20.9248C25.9778 20.4863 26.8716 20.2067 27.8215 20.129Z" fill="#FEA930"/>
<path fill-rule="evenodd" clip-rule="evenodd" d="M22.775 23.191C23.0694 23.1642 23.3592 23.1323 23.6438 23.0953C23.8628 23.0643 24.0654 23.2219 24.0938 23.4418C24.1226 23.6619 23.9674 23.8633 23.7473 23.8918C23.2851 23.952 22.8098 23.9992 22.3242 24.0334C22.4545 23.7408 22.6054 23.4595 22.775 23.191Z" fill="#FEA930"/>
<path fill-rule="evenodd" clip-rule="evenodd" d="M21.8051 25.9375C22.0997 25.9221 22.3915 25.9021 22.6791 25.8771C22.8955 25.8555 23.0948 26.0216 23.1141 26.2429C23.133 26.4639 22.9692 26.6586 22.7483 26.6779C22.4234 26.7059 22.0935 26.728 21.7602 26.7443L21.7598 26.7092C21.7598 26.4481 21.7755 26.1907 21.8051 25.9375Z" fill="#FEA930"/>
<path fill-rule="evenodd" clip-rule="evenodd" d="M22.0332 28.6015C22.3939 28.5795 22.7491 28.5503 23.097 28.5138C23.3143 28.4932 23.5155 28.6508 23.5386 28.8715C23.5615 29.0922 23.4017 29.29 23.181 29.3131C22.8998 29.3425 22.6141 29.3675 22.3247 29.3878C22.2115 29.1337 22.114 28.8712 22.0332 28.6015Z" fill="#FEA930"/>
<path fill-rule="evenodd" clip-rule="evenodd" d="M20.3915 18.7458C16.1525 18.7458 11.8613 17.7948 11.8613 15.9771C11.8613 14.5582 14.4225 13.8699 15.9494 13.5862C16.0955 13.558 16.2459 13.6151 16.3382 13.7323C17.4846 15.1864 19.2029 16.0203 21.0521 16.0203C22.7841 16.0203 24.4313 15.2715 25.5715 13.9658C25.672 13.8505 25.8299 13.8024 25.9775 13.8419C27.9037 14.3543 28.9223 15.0929 28.9223 15.9772C28.922 17.7944 24.6308 18.7458 20.3915 18.7458Z" fill="#FEBC35"/>
<path fill-rule="evenodd" clip-rule="evenodd" d="M21.0508 16.8181C17.3031 16.8181 14.2539 13.7689 14.2539 10.0212C14.2539 6.27341 17.3031 3.22403 21.0508 3.22403C24.7986 3.22403 27.8478 6.27349 27.8478 10.0212C27.8478 13.7688 24.7988 16.8181 21.0508 16.8181Z" fill="#FEDB41"/>
<path fill-rule="evenodd" clip-rule="evenodd" d="M21.0489 4.54977C18.0322 4.54977 15.5781 7.00423 15.5781 10.021C15.5781 13.0377 18.0322 15.4918 21.0489 15.4918C24.0656 15.4918 26.5197 13.0377 26.5197 10.021C26.5197 7.00425 24.0658 4.54977 21.0489 4.54977Z" fill="#FEBC35"/>
<path fill-rule="evenodd" clip-rule="evenodd" d="M21.223 13.9486C20.0999 13.9486 19.1859 13.0347 19.1859 11.9116C19.1859 11.6631 19.3879 11.4615 19.6361 11.4615C19.8842 11.4615 20.0862 11.6633 20.0862 11.9116C20.0862 12.5382 20.5959 13.048 21.2226 13.048C21.8494 13.048 22.3591 12.5382 22.3591 11.9116C22.3591 11.093 21.9787 10.9676 21.1182 10.7629C20.303 10.5688 19.1855 10.3025 19.1855 8.7384C19.1855 7.61537 20.0995 6.70129 21.2226 6.70129C22.3458 6.70129 23.2597 7.6152 23.2597 8.7384C23.2597 8.98682 23.0577 9.18843 22.8096 9.18843C22.5614 9.18843 22.3594 8.98659 22.3594 8.7384C22.3594 8.11167 21.8497 7.60192 21.223 7.60192C20.5962 7.60192 20.0865 8.11167 20.0865 8.7384C20.0865 9.55692 20.4669 9.68228 21.3275 9.88705C22.1426 10.0811 23.26 10.3474 23.26 11.9116C23.26 13.0347 22.3461 13.9486 21.223 13.9486Z" fill="#FEDB41"/>
<path fill-rule="evenodd" clip-rule="evenodd" d="M21.2235 7.6022C20.9751 7.6022 20.7734 7.40027 20.7734 7.15208V6.19563C20.7734 5.9472 20.9754 5.74551 21.2235 5.74551C21.4717 5.74551 21.6737 5.94744 21.6737 6.19563V7.15208C21.6737 7.40059 21.4721 7.6022 21.2235 7.6022Z" fill="#FEDB41"/>
<path fill-rule="evenodd" clip-rule="evenodd" d="M21.2235 14.9052C20.9751 14.9052 20.7734 14.7033 20.7734 14.4551V13.4986C20.7734 13.2502 20.9754 13.0486 21.2235 13.0486C21.4717 13.0486 21.6737 13.2504 21.6737 13.4986V14.4551C21.6737 14.7032 21.4721 14.9052 21.2235 14.9052Z" fill="#FEDB41"/>
<path fill-rule="evenodd" clip-rule="evenodd" d="M28.3636 32.7762C25.0184 32.7762 22.2969 30.0546 22.2969 26.7094C22.2969 23.3642 25.0184 20.6425 28.3636 20.6425C31.7088 20.6425 34.4304 23.3643 34.4304 26.7094C34.4304 30.0545 31.709 32.7762 28.3636 32.7762Z" fill="#FEDB41"/>
<path fill-rule="evenodd" clip-rule="evenodd" d="M28.3636 21.8257C25.6709 21.8257 23.4805 24.0165 23.4805 26.7091C23.4805 29.4018 25.6709 31.5923 28.3636 31.5923C31.0563 31.5923 33.2468 29.4018 33.2468 26.7091C33.2468 24.0165 31.0564 21.8257 28.3636 21.8257Z" fill="#FEBC35"/>
<path fill-rule="evenodd" clip-rule="evenodd" d="M28.5197 30.2147C27.5173 30.2147 26.7015 29.3991 26.7015 28.3966C26.7015 28.1748 26.8817 27.9948 27.1033 27.9948C27.3248 27.9948 27.505 28.175 27.505 28.3966C27.505 28.9559 27.96 29.4109 28.5194 29.4109C29.0788 29.4109 29.5338 28.9559 29.5338 28.3966C29.5338 27.6659 29.1942 27.554 28.4262 27.3713C27.6986 27.1981 26.7012 26.9603 26.7012 25.5643C26.7012 24.5619 27.5169 23.746 28.5194 23.746C29.5219 23.746 30.3376 24.5618 30.3376 25.5643C30.3376 25.7861 30.1574 25.966 29.9359 25.966C29.7143 25.966 29.5341 25.7858 29.5341 25.5643C29.5341 25.0049 29.0791 24.5498 28.5197 24.5498C27.9603 24.5498 27.5053 25.0049 27.5053 25.5643C27.5053 26.2949 27.8448 26.4068 28.6129 26.5895C29.3405 26.7628 30.3379 27.0004 30.3379 28.3966C30.3379 29.3991 29.5222 30.2147 28.5197 30.2147Z" fill="#FEDB41"/>
<path fill-rule="evenodd" clip-rule="evenodd" d="M28.517 24.5502C28.2952 24.5502 28.1152 24.37 28.1152 24.1484V23.2947C28.1152 23.073 28.2955 22.8929 28.517 22.8929C28.7386 22.8929 28.9187 23.0732 28.9187 23.2947V24.1484C28.9187 24.3703 28.7389 24.5502 28.517 24.5502Z" fill="#FEDB41"/>
<path fill-rule="evenodd" clip-rule="evenodd" d="M28.517 31.0685C28.2952 31.0685 28.1152 30.8884 28.1152 30.6668V29.8131C28.1152 29.5913 28.2955 29.4114 28.517 29.4114C28.7386 29.4114 28.9187 29.5916 28.9187 29.8131V30.6668C28.9187 30.8883 28.7389 31.0685 28.517 31.0685Z" fill="#FEDB41"/>
</g>
<defs>
<clipPath id="clip0_68_5384">
<rect width="34.2857" height="34.2857" fill="white" transform="translate(0.144531 0.857178)"/>
</clipPath>
</defs>
</svg>
