<svg width="50" height="50" viewBox="0 0 50 50" fill="none" xmlns="http://www.w3.org/2000/svg">
<path fill-rule="evenodd" clip-rule="evenodd" d="M25 11.3792C32.5187 11.3792 38.6208 17.4812 38.6208 25C38.6208 32.5187 32.5187 38.6208 25 38.6208C17.4812 38.6208 11.3791 32.5187 11.3791 25C11.3791 17.4812 17.4812 11.3792 25 11.3792ZM22.9166 6.24999C22.9166 5.09999 23.85 4.16666 25 4.16666C26.15 4.16666 27.0833 5.09999 27.0833 6.24999V7.39791C27.0833 8.54791 26.15 9.48124 25 9.48124C23.85 9.48124 22.9166 8.54791 22.9166 7.39791V6.24999ZM36.7854 10.2687C37.5979 9.45624 38.9187 9.45624 39.7312 10.2687C40.5437 11.0812 40.5437 12.4021 39.7312 13.2146L38.9208 14.0271C38.1062 14.8396 36.7875 14.8396 35.9729 14.0271C35.1604 13.2125 35.1604 11.8937 35.9729 11.0792L36.7854 10.2687ZM43.75 22.9167C44.9 22.9167 45.8333 23.85 45.8333 25C45.8333 26.15 44.9 27.0833 43.75 27.0833H42.602C41.452 27.0833 40.5187 26.15 40.5187 25C40.5187 23.85 41.452 22.9167 42.602 22.9167H43.75ZM39.7312 36.7854C40.5437 37.5979 40.5437 38.9187 39.7312 39.7312C38.9187 40.5437 37.5979 40.5437 36.7854 39.7312L35.9729 38.9208C35.1604 38.1062 35.1604 36.7875 35.9729 35.9729C36.7875 35.1604 38.1062 35.1604 38.9208 35.9729L39.7312 36.7854ZM27.0833 43.75C27.0833 44.9 26.15 45.8333 25 45.8333C23.85 45.8333 22.9166 44.9 22.9166 43.75V42.6021C22.9166 41.4521 23.85 40.5187 25 40.5187C26.15 40.5187 27.0833 41.4521 27.0833 42.6021V43.75ZM13.2145 39.7312C12.402 40.5437 11.0812 40.5437 10.2687 39.7312C9.45621 38.9187 9.45621 37.5979 10.2687 36.7854L11.0791 35.9729C11.8937 35.1604 13.2125 35.1604 14.027 35.9729C14.8395 36.7875 14.8395 38.1062 14.027 38.9208L13.2145 39.7312ZM6.24996 27.0833C5.09996 27.0833 4.16663 26.15 4.16663 25C4.16663 23.85 5.09996 22.9167 6.24996 22.9167H7.39788C8.54788 22.9167 9.48121 23.85 9.48121 25C9.48121 26.15 8.54788 27.0833 7.39788 27.0833H6.24996ZM10.2687 13.2146C9.45621 12.4021 9.45621 11.0812 10.2687 10.2687C11.0812 9.45624 12.402 9.45624 13.2145 10.2687L14.027 11.0792C14.8395 11.8937 14.8395 13.2125 14.027 14.0271C13.2125 14.8396 11.8937 14.8396 11.0791 14.0271L10.2687 13.2146Z" fill="black"/>
</svg>
