<svg width="46" height="60" viewBox="0 0 46 60" fill="none" xmlns="http://www.w3.org/2000/svg">
<path d="M42.2285 53.9314L14.7854 59.9171C14.2917 60.0244 13.781 60.0275 13.286 59.9262C12.7911 59.8249 12.3227 59.6214 11.9108 59.3288L9.27164 57.4499C8.84614 57.1472 8.49111 56.7561 8.23087 56.3033C7.97063 55.8506 7.81134 55.3469 7.7639 54.8269L5.59022 31.0328L5.45703 29.5677L14.0586 31.1983L14.003 33.1302L43.6652 31.1983L45.0707 50.1227C45.1358 50.9935 44.884 51.8586 44.3618 52.5584C43.8395 53.2583 43.0819 53.7459 42.2285 53.9314Z" fill="#3E3E7A"/>
<path d="M13.1864 59.9042C12.7279 59.7975 12.2948 59.602 11.9114 59.3287L9.27224 57.4499C8.84674 57.1472 8.49171 56.756 8.23147 56.3033C7.97123 55.8506 7.81194 55.3469 7.7645 54.8269L5.59082 31.0328L10.7606 33.3409L13.1864 59.9042Z" fill="#2C2C61"/>
<path d="M42.5567 9.17253L32.5146 13.022L28.3548 14.6164L22.8954 16.7086L17.5976 18.7401L12.2998 20.7702L9.51708 21.837C9.36984 21.894 9.21739 21.9364 9.06191 21.9637C8.91261 21.9911 8.76113 22.005 8.60933 22.0051H4.79666C4.28501 22.0052 3.78531 21.8505 3.36321 21.5613C2.94111 21.2721 2.61635 20.862 2.43161 20.3849L0.625166 15.7156C0.504384 15.4031 0.446703 15.0698 0.455456 14.7349C0.464208 14.4 0.539221 14.0701 0.676161 13.7644C0.813101 13.4587 1.00926 13.1831 1.2533 12.9536C1.49734 12.7241 1.78443 12.5452 2.09799 12.4272L9.35609 9.69882L15.3431 7.44755L20.6719 5.44327H20.6732L25.7304 3.54114H25.7317L30.2718 1.83426L32.4933 0.998928C32.6825 0.927801 32.8796 0.879613 33.0803 0.855396L39.9635 0.0187684C40.3348 -0.0270287 40.7117 0.0109707 41.0665 0.129974C41.4448 0.254756 41.7882 0.46714 42.0689 0.749823C42.3495 1.03251 42.5595 1.37749 42.6815 1.75668L44.0612 6.02516C44.2609 6.64265 44.2161 7.31318 43.9363 7.89869C43.6564 8.48419 43.1626 8.9401 42.5567 9.17253Z" fill="#51518E"/>
<path d="M41.0665 0.129457L34.6217 2.5346L30.0196 4.25052L24.7076 6.23283L19.4105 8.20801L14.2711 10.125L7.84059 12.5237C7.51711 12.6442 7.22165 12.8295 6.97229 13.0682C6.72293 13.3069 6.52494 13.594 6.39044 13.9119C6.25594 14.2298 6.18776 14.5718 6.19009 14.917C6.19242 15.2622 6.2652 15.6033 6.40397 15.9193L9.06126 21.9645C8.91196 21.9919 8.76048 22.0058 8.60868 22.0059H4.79666C4.28501 22.0059 3.78531 21.8512 3.36321 21.5621C2.94111 21.2729 2.61635 20.8628 2.43161 20.3857L0.625166 15.7163C0.504384 15.4038 0.446703 15.0705 0.455456 14.7356C0.464208 14.4007 0.539221 14.0709 0.676161 13.7652C0.813101 13.4594 1.00926 13.1838 1.2533 12.9543C1.49734 12.7248 1.78443 12.5459 2.09799 12.428L9.35609 9.69959L15.3431 7.44833L20.6732 5.44404L25.7304 3.54191H25.7317L30.2718 1.83504L32.4933 0.999704C32.6825 0.928577 32.8796 0.88039 33.0804 0.856172L39.9635 0.0195449C40.3347 -0.0266679 40.7116 0.0108895 41.0665 0.129457Z" fill="#3E3E7A"/>
<path d="M45.5457 26.7029V29.5341C45.5454 30.1671 45.3084 30.7772 44.8814 31.2444C44.4543 31.7117 43.868 32.0024 43.2375 32.0595L37.054 32.6194L32.0368 33.0733L25.9309 33.6267L20.9124 34.0806L13.4474 34.7569L10.7888 34.9974C10.4999 35.0234 10.2086 34.9998 9.92763 34.9276L6.00958 33.9164C5.48535 33.7809 5.01819 33.4814 4.67642 33.0614C4.33464 32.6415 4.13618 32.1232 4.11004 31.5824L3.92771 27.7859C3.91155 27.4487 3.96288 27.1117 4.0787 26.7946C4.19452 26.4775 4.37249 26.1867 4.60217 25.9393C4.83186 25.692 5.10863 25.4929 5.41626 25.3539C5.72388 25.2149 6.05617 25.1387 6.39363 25.1299L17.9577 24.826L25.2016 24.6346L30.0713 24.5066L35.9963 24.3501L40.866 24.2221L42.9427 24.1678C43.2813 24.1589 43.6182 24.2179 43.9335 24.3413C44.2489 24.4647 44.5364 24.65 44.779 24.8862C45.0216 25.1225 45.2145 25.405 45.3461 25.717C45.4778 26.029 45.5457 26.3642 45.5457 26.7029Z" fill="#FCF4F6"/>
<path d="M17.9577 24.8253L13.4487 34.7549C13.4487 34.7553 13.4485 34.7556 13.4483 34.7558C13.4481 34.7561 13.4477 34.7562 13.4474 34.7562L10.7888 34.9967C10.6439 35.0103 10.498 35.0103 10.353 34.9967V25.0257L17.9577 24.8253Z" fill="#51518E"/>
<path d="M10.3531 25.0258V34.9967C10.2094 34.9864 10.067 34.9631 9.92763 34.9269L6.00958 33.9157C5.48535 33.7803 5.01819 33.4807 4.67642 33.0607C4.33464 32.6408 4.13618 32.1225 4.11004 31.5817L3.92771 27.7852C3.91155 27.448 3.96288 27.111 4.0787 26.7939C4.19452 26.4768 4.37249 26.1861 4.60217 25.9387C4.83186 25.6913 5.10863 25.4923 5.41626 25.3533C5.72388 25.2143 6.05617 25.1381 6.39363 25.1292L10.3531 25.0258Z" fill="#3E3E7A"/>
<path d="M42.5568 9.17253L32.5146 13.0221L34.6224 2.53383L41.0665 0.129333C41.4448 0.254115 41.7882 0.466499 42.0689 0.749182C42.3496 1.03187 42.5595 1.37685 42.6815 1.75604L44.0613 6.02452C44.2611 6.64209 44.2164 7.31279 43.9365 7.89844C43.6567 8.48409 43.1628 8.9401 42.5568 9.17253Z" fill="#FCF4F6"/>
<path d="M41.0667 0.129335L34.6219 2.53448L30.272 1.83492L32.4935 0.999583C32.6827 0.928456 32.8798 0.880268 33.0806 0.85605L39.9637 0.0194228C40.3349 -0.0267899 40.7118 0.0107674 41.0667 0.129335Z" fill="#F0E3E7"/>
<path d="M30.0194 4.24976L28.3539 14.6164L22.8945 16.7086L24.7074 6.23206L30.0194 4.24976Z" fill="#FCF4F6"/>
<path d="M24.7078 6.23205V6.23076L20.6733 5.44327L25.7306 3.54114H25.7319L30.0198 4.24975L24.7078 6.23205Z" fill="#F0E3E7"/>
<path d="M19.41 8.20789L17.5971 18.7401L12.2993 20.7702L14.2713 10.1242L19.41 8.20789Z" fill="#FCF4F6"/>
<path d="M19.4102 8.20661V8.20791L14.2715 10.1243L9.35645 9.69883L15.3434 7.44757L19.4102 8.20661Z" fill="#F0E3E7"/>
<path d="M40.8663 24.2215L37.0543 32.6188L32.0371 33.0727L35.9965 24.3495L40.8663 24.2215Z" fill="#51518E"/>
<path d="M30.071 24.506L25.9306 33.6261L20.9121 34.08L25.2013 24.634L30.071 24.506Z" fill="#51518E"/>
<path d="M37.4229 44.0975L26.4523 54.5418C26.3805 54.6105 26.3021 54.672 26.2183 54.7254V54.7267C26.1245 54.7862 26.0248 54.836 25.9209 54.8754C25.6909 54.962 25.4439 54.9935 25.1996 54.9674C24.9553 54.9414 24.7205 54.8585 24.514 54.7254C24.3075 54.5922 24.135 54.4126 24.0104 54.2009C23.8858 53.9892 23.8125 53.7512 23.7963 53.506L22.767 37.9735C22.745 37.6363 22.8318 37.301 23.0148 37.0169C23.1978 36.7329 23.4673 36.5152 23.7834 36.3959L24.3562 36.18C24.5523 36.1069 24.7608 36.0733 24.9698 36.0811C25.1788 36.0889 25.3843 36.1378 25.5743 36.2252L37 41.5282C37.2328 41.6363 37.4357 41.7997 37.5909 42.0041C37.7461 42.2085 37.8491 42.4478 37.8907 42.7011C37.9324 42.9543 37.9116 43.2139 37.8301 43.4573C37.7485 43.7007 37.6087 43.9205 37.4229 44.0975Z" fill="#FCF4F6"/>
<path d="M26.2183 54.7254V54.7267C26.1245 54.7862 26.0248 54.836 25.9209 54.8754C25.6909 54.9619 25.4439 54.9934 25.1996 54.9674C24.9553 54.9413 24.7205 54.8584 24.514 54.7253C24.3075 54.5922 24.135 54.4126 24.0104 54.2009C23.8858 53.9891 23.8125 53.7511 23.7963 53.506L22.767 37.9734C22.745 37.6363 22.8318 37.3009 23.0148 37.0169C23.1978 36.7328 23.4673 36.5151 23.7834 36.3959L24.3562 36.1799C24.5563 36.1044 24.7698 36.071 24.9834 36.0816L26.2183 54.7254Z" fill="#F0E3E7"/>
</svg>
