<svg width="16" height="16" viewBox="0 0 16 16" fill="none" xmlns="http://www.w3.org/2000/svg">
<g clip-path="url(#clip0_29_898)">
<g clip-path="url(#clip1_29_898)">
<path d="M0.34375 7.65631V8.34381C0.34375 12.5722 3.77156 16.0001 8 16.0001C12.2284 16.0001 15.6562 12.5722 15.6562 8.34381V7.65631H0.34375Z" fill="#DB5800"/>
<path d="M8 15.3125C12.2284 15.3125 15.6562 11.8847 15.6562 7.65625C15.6562 3.42782 12.2284 0 8 0C3.77157 0 0.34375 3.42782 0.34375 7.65625C0.34375 11.8847 3.77157 15.3125 8 15.3125Z" fill="#FFCE33"/>
<path d="M15.6562 7.65625C15.6562 7.70844 15.6556 7.76062 15.6547 7.8125C15.5716 3.65625 12.1762 0.3125 8 0.3125C3.82375 0.3125 0.428437 3.65625 0.345312 7.8125C0.344375 7.76062 0.34375 7.70844 0.34375 7.65625C0.34375 3.42781 3.77156 0 8 0C12.2284 0 15.6562 3.42781 15.6562 7.65625Z" fill="#FFF0B3"/>
<path d="M14.0197 8.07499C14.0197 11.3997 11.3247 14.0947 7.99998 14.0947C4.67529 14.0947 1.97998 11.3997 1.97998 8.07499C1.97998 8.02312 1.98061 7.97124 1.98186 7.91968C2.06529 11.1719 4.72779 13.7822 7.99998 13.7822C11.2722 13.7822 13.9344 11.1719 14.0178 7.91968C14.019 7.97124 14.0197 8.02312 14.0197 8.07499Z" fill="#FFF0B3"/>
<path opacity="0.6" d="M14.0328 2.94151L1.09687 10.9718C0.614062 9.96869 0.34375 8.844 0.34375 7.65619C0.34375 7.29525 0.36875 6.93994 0.417187 6.59213L10.4119 0.387756C11.8584 0.867131 13.1134 1.76682 14.0328 2.94151ZM15.5866 6.62088L3.70625 13.9959C4.45406 14.5034 5.29625 14.8821 6.20125 15.0996L15.4687 9.3465C15.5916 8.80275 15.6562 8.23713 15.6562 7.65619C15.6562 7.30494 15.6325 6.95963 15.5866 6.62088ZM14.85 4.23244L1.89406 12.2756C2.10406 12.5531 2.33281 12.8159 2.57812 13.0618L15.2519 5.19401C15.1394 4.86276 15.0047 4.54182 14.85 4.23244Z" fill="#FFF0B3"/>
<path d="M8.00016 13.7821C11.3247 13.7821 14.0198 11.0869 14.0198 7.76236C14.0198 4.43778 11.3247 1.74268 8.00016 1.74268C4.67558 1.74268 1.98047 4.43778 1.98047 7.76236C1.98047 11.0869 4.67558 13.7821 8.00016 13.7821Z" fill="#F28A00"/>
<path d="M14.0198 7.76249C14.0198 7.86874 14.017 7.97437 14.0117 8.07937C13.847 4.90218 11.2186 2.37624 8.00016 2.37624C4.78172 2.37624 2.15328 4.90187 1.98859 8.07905C1.98328 7.97405 1.98047 7.86843 1.98047 7.76218C1.98047 4.43781 4.67578 1.74249 8.00016 1.74249C11.3245 1.74249 14.0198 4.43781 14.0198 7.76218V7.76249Z" fill="#DB5800"/>
<path d="M8.08375 5.90907C8.3025 5.90907 8.47094 5.99188 8.58906 6.1575C8.70719 6.32313 8.76656 6.55938 8.76656 6.86688H10.2653V6.55438L10.2469 6.54407C10.1978 6.12532 10.0497 5.76969 9.80219 5.47688C9.49312 5.11188 9.06844 4.88938 8.5275 4.80969V3.85657H7.8225V4.79219C7.26094 4.84532 6.81156 5.03375 6.47469 5.3575C6.20188 5.61938 6.03969 5.93907 5.98781 6.31625L5.96937 6.28V6.5925C5.96937 6.89125 6.01656 7.14532 6.11125 7.355C6.20594 7.565 6.34188 7.74969 6.51906 7.90938C6.69656 8.06907 6.90781 8.20938 7.15312 8.33063C7.39844 8.45188 7.66594 8.57157 7.95563 8.68969C8.24531 8.80782 8.44781 8.93344 8.56313 9.06657C8.67844 9.19969 8.73594 9.38282 8.73594 9.61625C8.73594 9.82625 8.67844 9.99094 8.56313 10.1106C8.44781 10.2303 8.28969 10.2903 8.08875 10.2903C7.81375 10.2903 7.60187 10.2025 7.4525 10.0266C7.30312 9.85063 7.22844 9.59438 7.22844 9.25719H5.88469L5.73438 8.94469V9.25719C5.73438 9.86907 5.90656 10.3619 6.25094 10.7359C6.59531 11.11 7.08969 11.3306 7.73406 11.3988V12.2944H8.43906V11.4031C8.99188 11.35 9.42844 11.1638 9.74937 10.8444C10.07 10.525 10.2303 10.1128 10.2303 9.6075V9.295L10.2116 9.31125C10.1888 9.13625 10.145 8.97907 10.0797 8.84063C9.97906 8.62782 9.84031 8.44157 9.66281 8.28188C9.48531 8.12219 9.275 7.97969 9.03094 7.85407C8.78719 7.72844 8.52781 7.60719 8.25281 7.49063C7.97781 7.37375 7.77844 7.25125 7.65438 7.1225C7.53031 6.99375 7.46812 6.82032 7.46812 6.60157C7.46812 6.38282 7.52187 6.21657 7.63 6.09375C7.73781 5.97125 7.88937 5.90969 8.08437 5.90969L8.08375 5.90907Z" fill="#BC4C00"/>
<path d="M8.73576 9.30314C8.73576 9.0697 8.67826 8.88626 8.56295 8.75345C8.44764 8.62032 8.24514 8.4947 7.95545 8.37657C7.66576 8.25845 7.39826 8.13876 7.15295 8.01751C6.90764 7.89626 6.69639 7.75595 6.51889 7.59626C6.34139 7.43657 6.20545 7.25189 6.11107 7.04189C6.01639 6.8322 5.9692 6.57782 5.9692 6.27939C5.9692 5.78001 6.13764 5.36814 6.47451 5.0447C6.81139 4.72126 7.26076 4.53251 7.82232 4.47939V3.54376H8.52732V4.49689C9.06826 4.57657 9.49326 4.79907 9.80201 5.16407C10.1108 5.52907 10.2654 5.99251 10.2654 6.55407H8.7667C8.7667 6.24657 8.70764 6.01032 8.5892 5.8447C8.47107 5.67907 8.30232 5.59626 8.08389 5.59626C7.88889 5.59626 7.73732 5.65751 7.62951 5.78032C7.5217 5.90314 7.46764 6.0722 7.46764 6.28814C7.46764 6.50407 7.52982 6.68064 7.65389 6.80907C7.77795 6.93751 7.97764 7.06032 8.25232 7.1772C8.52732 7.29407 8.7867 7.41532 9.03045 7.54064C9.2742 7.66626 9.48482 7.80876 9.66232 7.96845C9.83982 8.12814 9.97857 8.31439 10.0792 8.5272C10.1795 8.74001 10.2298 8.99564 10.2298 9.29439C10.2298 9.7997 10.0695 10.2122 9.74889 10.5313C9.42826 10.8506 8.99139 11.0366 8.43857 11.09V11.9813H7.73357V11.0856C7.0892 11.0175 6.59482 10.7969 6.25045 10.4228C5.90607 10.0491 5.73389 9.55595 5.73389 8.94407H7.22795C7.22795 9.28095 7.30264 9.53751 7.45201 9.71345C7.60139 9.88939 7.81326 9.9772 8.08826 9.9772C8.2892 9.9772 8.44732 9.9172 8.56264 9.79751C8.67795 9.67782 8.73545 9.51314 8.73545 9.30314H8.73576Z" fill="#FFCE33"/>
<path opacity="0.6" d="M9.99875 5.44564L8.73969 6.2272C8.71188 6.07345 8.66187 5.94595 8.58969 5.8447C8.47156 5.67939 8.30281 5.59657 8.08437 5.59657C7.88906 5.59657 7.7375 5.65782 7.62969 5.78064C7.52187 5.90314 7.46781 6.07251 7.46781 6.28814C7.46781 6.50376 7.53 6.68064 7.65406 6.80907C7.67219 6.82782 7.69187 6.84626 7.71312 6.8647L6.52563 7.60189C6.52344 7.60001 6.52125 7.59814 6.51906 7.59626C6.34187 7.43657 6.20562 7.25189 6.11125 7.04189C6.01656 6.8322 5.96938 6.57782 5.96938 6.27939C5.96938 5.7797 6.13781 5.36814 6.47469 5.04439C6.81187 4.72095 7.26094 4.53251 7.8225 4.47907V3.54376H8.5275V4.49689C9.06844 4.57689 9.49344 4.79907 9.80219 5.16407C9.87687 5.2522 9.94219 5.34595 9.99875 5.44564ZM7.73406 11.4956V11.9813H8.43906V11.09C8.99156 11.0369 9.42844 10.8506 9.74906 10.5313C9.89594 10.3853 10.0094 10.2194 10.0887 10.0338L7.73406 11.4956ZM7.4525 9.71314C7.30594 9.54095 7.23125 9.29095 7.22875 8.96376L5.875 9.80439C5.96094 10.0378 6.08625 10.2438 6.25094 10.4228C6.3225 10.5006 6.40094 10.5719 6.48562 10.6363L7.68281 9.89282C7.59406 9.8497 7.51719 9.7897 7.4525 9.71314ZM9.6625 7.96845C9.55062 7.86782 9.42531 7.77376 9.28656 7.68626L8.08469 8.43251C8.30625 8.53407 8.46562 8.64095 8.56312 8.75345C8.66781 8.87407 8.725 9.03657 8.73437 9.24032L10.0322 8.43439C9.93687 8.2597 9.81375 8.10439 9.6625 7.96845Z" fill="#FFF0B3"/>
</g>
</g>
<defs>
<clipPath id="clip0_29_898">
<rect width="16" height="16" fill="white"/>
</clipPath>
<clipPath id="clip1_29_898">
<rect width="16" height="16" fill="white"/>
</clipPath>
</defs>
</svg>
