<svg width="60" height="60" viewBox="0 0 60 60" fill="none" xmlns="http://www.w3.org/2000/svg">
<g clip-path="url(#clip0_44_1186)">
<g clip-path="url(#clip1_44_1186)">
<path d="M39.0893 0.308791C38.7744 -0.0605836 38.2197 -0.10488 37.8502 0.210002C37.4809 0.524885 37.4367 1.07965 37.7515 1.44903C37.7764 1.47821 40.2214 4.42102 38.6545 9.01324C38.4978 9.47262 38.7432 9.97219 39.2026 10.1289C39.2967 10.161 39.3923 10.1762 39.4865 10.1762C39.8522 10.1762 40.1935 9.94629 40.3183 9.5809C42.2045 4.05246 39.2174 0.459026 39.0893 0.308791Z" fill="#58768C"/>
<path d="M22.2295 0.20998C21.86 -0.104903 21.3053 -0.0607229 20.9905 0.308769C20.8624 0.459004 17.8753 4.05244 19.7616 9.581C19.8862 9.94639 20.2276 10.1764 20.5934 10.1763C20.6875 10.1763 20.7832 10.1611 20.8772 10.129C21.3366 9.97228 21.582 9.47271 21.4252 9.01334C19.8741 4.46717 22.2266 1.57111 22.3309 1.44596C22.6429 1.07658 22.5979 0.524043 22.2295 0.20998Z" fill="#58768C"/>
<path d="M55.344 53.2934C55.2655 53.3402 54.3163 53.8875 52.5045 54.45C51.3163 54.8191 49.7553 55.1941 47.8264 55.4379C46.8397 55.5621 45.7557 55.6523 44.5756 55.6898C44.626 56.1246 44.6717 56.5605 44.7139 56.9965C44.7526 57.3914 44.5217 57.7629 44.1514 57.9035C43.9252 57.9892 38.5229 60 29.9999 60C21.4768 60 16.0745 57.9891 15.8483 57.9035C15.478 57.7629 15.2471 57.3914 15.2858 56.9965C15.328 56.5605 15.3737 56.1246 15.4241 55.6898C14.244 55.6523 13.16 55.5621 12.1733 55.4379C7.30532 54.8227 4.78579 53.3707 4.65571 53.2934C4.32642 53.0988 4.16001 52.7145 4.24439 52.3418C6.55649 42.1312 12.001 33.9164 16.16 28.8223C19.4377 24.8086 22.4002 22.091 23.8346 20.8594C18.3163 16.6559 18.0795 10.7555 18.0725 10.493C18.0655 10.2551 18.1545 10.0242 18.3209 9.8543C18.4241 9.74883 20.8944 7.25977 25.2057 7.25977C27.635 7.25977 29.1631 8.61445 29.9999 9.70547C30.8366 8.61445 32.3647 7.25977 34.794 7.25977C36.2459 7.25977 37.4881 7.54219 38.503 7.9207C40.501 8.66602 41.6108 9.78398 41.6788 9.8543C41.8452 10.0242 41.9342 10.2551 41.9272 10.493C41.9202 10.7555 41.6834 16.6559 36.1651 20.8594C36.417 21.0762 36.717 21.3387 37.0569 21.6457C37.0569 21.6457 37.0581 21.6469 37.0592 21.6492C38.653 23.0895 41.1397 25.5164 43.8397 28.8223C47.9987 33.9164 53.4432 42.1312 55.7553 52.3418C55.8397 52.7146 55.6733 53.0988 55.344 53.2934Z" fill="#FF5F85"/>
<path d="M41.9273 10.4929C41.9203 10.7554 41.6836 16.6558 36.1652 20.8593L33.5508 20.7914C37.7777 16.2023 38.4293 10.3746 38.5031 7.92065C40.5012 8.66597 41.6109 9.78394 41.6789 9.85425C41.8453 10.0242 41.9344 10.255 41.9273 10.4929Z" fill="#B2527E"/>
<path d="M37.6806 19.9268C30.0879 19.3782 22.3964 19.9211 22.3195 19.9268C21.8354 19.9617 21.4713 20.3825 21.5062 20.8667C21.5413 21.3508 21.9623 21.7148 22.4462 21.68C22.4859 21.6772 24.5863 21.5291 27.6512 21.4666C26.1234 23.2259 24.4079 26.6257 25.3147 32.6579C25.3869 33.1379 25.8347 33.4692 26.3144 33.3964C26.7944 33.3242 27.125 32.8766 27.0529 32.3967C26.5183 28.8405 26.9312 25.8131 28.2468 23.6415C28.8783 22.5993 29.5816 21.9813 30.0031 21.6727C31.0892 22.4608 34.0149 25.293 32.9471 32.3967C32.8751 32.8767 33.2056 33.3243 33.6856 33.3964C33.7299 33.4031 33.774 33.4062 33.8175 33.4062C34.245 33.4062 34.62 33.0936 34.6855 32.6579C35.594 26.6141 33.87 23.2128 32.3401 21.4564C34.0169 21.4851 35.7884 21.5525 37.554 21.6801C37.5756 21.6816 37.5969 21.6825 37.6182 21.6825C38.0748 21.6825 38.4606 21.3294 38.494 20.8668C38.529 20.3826 38.1648 19.9617 37.6806 19.9268Z" fill="#FFE878"/>
<path d="M47.8266 55.438C46.8398 55.5622 45.7559 55.6524 44.5758 55.6899C43.8551 48.8017 41.6719 41.8337 41.6719 41.8337C45.6258 46.5222 47.284 52.8492 47.8266 55.438Z" fill="#B2527E"/>
<path d="M18.328 41.8336C18.328 41.8336 16.1448 48.8015 15.4241 55.6898C14.244 55.6523 13.1601 55.5621 12.1733 55.4379C12.7159 52.8492 14.3741 46.5222 18.328 41.8336Z" fill="#B2527E"/>
<path d="M30 53.9037C30.4854 53.9037 30.8789 53.5102 30.8789 53.0248C30.8789 52.5394 30.4854 52.1459 30 52.1459C29.5146 52.1459 29.1211 52.5394 29.1211 53.0248C29.1211 53.5102 29.5146 53.9037 30 53.9037Z" fill="#FFA1A8"/>
<path d="M23.6123 53.5522C24.0977 53.5522 24.4912 53.1587 24.4912 52.6733C24.4912 52.1879 24.0977 51.7944 23.6123 51.7944C23.1269 51.7944 22.7334 52.1879 22.7334 52.6733C22.7334 53.1587 23.1269 53.5522 23.6123 53.5522Z" fill="#FFA1A8"/>
<path d="M36.3857 53.5522C36.8711 53.5522 37.2646 53.1587 37.2646 52.6733C37.2646 52.1879 36.8711 51.7944 36.3857 51.7944C35.9003 51.7944 35.5068 52.1879 35.5068 52.6733C35.5068 53.1587 35.9003 53.5522 36.3857 53.5522Z" fill="#FFA1A8"/>
<path d="M11.7188 50.204C12.2042 50.204 12.5977 49.8105 12.5977 49.3251C12.5977 48.8397 12.2042 48.4462 11.7188 48.4462C11.2333 48.4462 10.8398 48.8397 10.8398 49.3251C10.8398 49.8105 11.2333 50.204 11.7188 50.204Z" fill="#FFA1A8"/>
<path d="M48.2812 50.204C48.7667 50.204 49.1602 49.8105 49.1602 49.3251C49.1602 48.8397 48.7667 48.4462 48.2812 48.4462C47.7958 48.4462 47.4023 48.8397 47.4023 49.3251C47.4023 49.8105 47.7958 50.204 48.2812 50.204Z" fill="#FFA1A8"/>
<path d="M55.3438 53.2933C55.2653 53.3402 54.3161 53.8875 52.5044 54.45C49.7294 38.864 37.2571 21.9175 37.0591 21.6492C38.6528 23.0894 41.1396 25.5164 43.8396 28.8222C47.9985 33.9164 53.4431 42.1312 55.7552 52.3417C55.8396 52.7145 55.6731 53.0988 55.3438 53.2933Z" fill="#B2527E"/>
</g>
</g>
<defs>
<clipPath id="clip0_44_1186">
<rect width="60" height="60" fill="white"/>
</clipPath>
<clipPath id="clip1_44_1186">
<rect width="60" height="60" fill="white"/>
</clipPath>
</defs>
</svg>
