<svg width="60" height="60" viewBox="0 0 60 60" fill="none" xmlns="http://www.w3.org/2000/svg">
<path d="M31.7842 51.3181L29.8694 50.4944L28.2163 51.3181L26.4555 57.7446C26.1445 58.8799 26.9989 60 28.1761 60H31.8242C33.0014 60 33.8558 58.8799 33.5448 57.7446L31.7842 51.3181Z" fill="#D82F3C"/>
<path d="M31.8247 60H28.176C26.9986 60 26.1447 58.8797 26.4563 57.7451L28.2164 51.3181L29.4614 50.6615L30.4356 51.3181L28.9318 56.8067C28.7866 57.3365 29.1853 57.8592 29.7347 57.8592H33.5718C33.7978 58.9546 32.9629 60 31.8247 60Z" fill="#C42430"/>
<path d="M30.0004 42.6249C29.5076 42.6249 29.1084 42.1798 29.1084 41.6308V37.6549C29.1084 37.1059 29.5076 36.6609 30.0004 36.6609C30.4931 36.6609 30.8923 37.1059 30.8923 37.6549V41.6308C30.8923 42.1798 30.4931 42.6249 30.0004 42.6249Z" fill="#FFBF54"/>
<path d="M31.487 50.9588H28.6897C28.3613 50.9588 28.095 50.6925 28.095 50.3642L28.0039 46.089H32.379V49.5341L32.0816 50.3642C32.0816 50.6925 31.8154 50.9588 31.487 50.9588Z" fill="#FFBF54"/>
<path d="M32.3788 49.5342V50.7235C32.3788 51.0519 32.1125 51.3181 31.7841 51.3181H28.2162C27.8879 51.3181 27.6216 51.0519 27.6216 50.7235V46.3267H29.4055V49.1774C29.4055 49.3745 29.5652 49.5342 29.7623 49.5342H32.3788Z" fill="#FFA442"/>
<path d="M33.0329 44.4596C33.0329 42.7847 31.6751 41.4269 30.0002 41.4269C29.5642 41.4269 29.1497 41.5189 28.7751 41.6845C27.7105 42.1552 27.3965 43.2206 27.3965 44.4596C27.3965 46.1345 28.3253 47.2303 30.0003 47.2303C31.2377 47.2303 32.3019 46.7514 32.7735 45.689C32.9403 45.3131 33.0329 44.8972 33.0329 44.4596Z" fill="#D82F3C"/>
<path d="M32.771 45.688C32.3013 46.7512 31.2369 47.4921 30 47.4921C28.3255 47.4921 26.9673 46.134 26.9673 44.4594C26.9673 43.2202 27.7106 42.1546 28.775 41.6848C28.6061 42.0606 28.5134 42.4757 28.5134 42.9134C28.5134 44.5879 29.8715 45.9461 31.5461 45.9461C31.9814 45.9461 32.3964 45.8545 32.771 45.688Z" fill="#C42430"/>
<path d="M30.0003 36.0701C41.1664 36.0701 50.2183 28.589 50.2183 19.3605C50.2183 10.132 41.1664 2.65088 30.0003 2.65088C18.8342 2.65088 9.78223 10.132 9.78223 19.3605C9.78223 28.589 18.8342 36.0701 30.0003 36.0701Z" fill="#D82F3C"/>
<path d="M30.0003 36.0701C37.4085 36.0701 43.4141 28.589 43.4141 19.3605C43.4141 10.132 37.4085 2.65088 30.0003 2.65088C22.592 2.65088 16.5864 10.132 16.5864 19.3605C16.5864 28.589 22.592 36.0701 30.0003 36.0701Z" fill="#C42430"/>
<path d="M30 36.0701C32.7579 36.0701 34.9936 28.589 34.9936 19.3605C34.9936 10.132 32.7579 2.65088 30 2.65088C27.2421 2.65088 25.0063 10.132 25.0063 19.3605C25.0063 28.589 27.2421 36.0701 30 36.0701Z" fill="#D82F3C"/>
<path d="M38.0803 34.6823C35.6054 35.5754 32.8724 36.0702 30.0003 36.0702C18.834 36.0702 9.78223 28.5895 9.78223 19.3606C9.78223 14.2478 12.5592 9.67257 16.9358 6.60657C16.8502 7.46643 16.8062 8.33699 16.8062 9.21945C16.8062 21.9378 25.9852 32.513 38.0803 34.6823Z" fill="#C42430"/>
<path d="M30 36.0702C29.9417 36.0702 29.8846 36.0701 29.8264 36.069C22.4979 35.9536 16.5859 28.5169 16.5859 19.3605C16.5859 17.5219 16.825 15.7522 17.2662 14.0979C18.3901 19.9897 21.5132 25.1726 25.9029 28.9142C26.8044 33.2408 28.3041 36.0702 30 36.0702Z" fill="#A81F2A"/>
<path d="M44.8647 6.85742C40.8865 3.56949 35.6074 1.75879 30.0001 1.75879C24.3929 1.75879 19.1138 3.56949 15.1356 6.85742C11.1081 10.1859 8.89014 14.6263 8.89014 19.3604C8.89014 24.0945 11.1081 28.5348 15.1356 31.8634C19.1138 35.1513 24.3929 36.962 30.0001 36.962C35.6074 36.962 40.8865 35.1513 44.8647 31.8634C48.8921 28.5348 51.1102 24.0945 51.1102 19.3604C51.1102 14.6263 48.8922 10.1859 44.8647 6.85742ZM26.9616 4.01465C25.0836 7.19994 24.1147 13.3055 24.1147 19.3604C24.1147 25.4152 25.0837 31.5208 26.9616 34.7061C21.5206 32.9864 17.4783 26.7589 17.4783 19.3604C17.4783 11.9619 21.5206 5.73437 26.9616 4.01465ZM25.8986 19.3604C25.8986 9.70472 28.3279 3.54273 30.0001 3.54273C31.6724 3.54273 34.1017 9.70472 34.1017 19.3604C34.1017 29.016 31.6724 35.178 30.0001 35.178C28.3279 35.178 25.8986 29.0162 25.8986 19.3604ZM33.0387 34.7061C34.9167 31.5208 35.8856 25.4152 35.8856 19.3604C35.8856 13.3055 34.9167 7.19994 33.0387 4.01465C38.4797 5.73437 42.522 11.9619 42.522 19.3604C42.522 26.7589 38.4797 32.9864 33.0387 34.7061ZM10.6741 19.3604C10.6741 13.1104 15.1262 7.69588 21.5709 5.12854C20.9538 5.68418 20.3677 6.30369 19.8197 6.98646C17.1594 10.3003 15.6943 14.6946 15.6943 19.3603C15.6943 24.0259 17.1593 28.4203 19.8197 31.7341C20.3678 32.4168 20.9538 33.0363 21.5709 33.592C15.1262 31.0249 10.6741 25.6104 10.6741 19.3604ZM38.4294 33.5922C39.0465 33.0366 39.6325 32.4171 40.1806 31.7343C42.8409 28.4206 44.306 24.0261 44.306 19.3605C44.306 14.6949 42.841 10.3004 40.1806 6.9867C39.6325 6.30392 39.0465 5.68442 38.4294 5.12878C44.874 7.69611 49.3262 13.1106 49.3262 19.3606C49.3262 25.6106 44.8741 31.0249 38.4294 33.5922Z" fill="#FFBF54"/>
<path d="M39.0869 5.35183H20.9135C20.4207 5.35183 20.0215 4.95247 20.0215 4.45986V2.08127C20.0215 0.933717 20.9552 0 22.1028 0H37.8977C39.0452 0 39.9789 0.933717 39.9789 2.08127V4.45986C39.9788 4.95247 39.5796 5.35183 39.0869 5.35183Z" fill="#FFBF54"/>
<path d="M37.8976 38.751H22.1028C20.9552 38.751 20.0215 37.8173 20.0215 36.6697L21.4549 34.9499C21.4549 34.4573 21.8542 34.0579 22.3469 34.0579L22.2199 33.3992H39.0869C39.5796 33.3992 39.9788 33.7985 39.9788 34.2911V36.6697C39.9788 37.8173 39.0452 38.751 37.8976 38.751Z" fill="#FFBF54"/>
<path d="M33.46 33.399L33.6598 33.474L33.6919 33.399H33.46Z" fill="#FFBF54"/>
<path d="M39.9783 34.9499V36.6696C39.9783 37.8172 39.0447 38.7508 37.8971 38.7508H22.1032C20.9555 38.7508 20.022 37.8172 20.022 36.6696V34.8821C18.2487 34.0888 16.6039 33.0767 15.1351 31.8636C11.1082 28.5348 8.89014 24.0951 8.89014 19.3606C8.89014 14.626 11.1082 10.1863 15.1351 6.85749C15.7536 6.34609 16.4041 5.87037 17.082 5.43152C16.9678 6.20456 16.8882 6.9895 16.8453 7.78395C13.0515 10.6727 10.6741 14.7937 10.6741 19.3606C10.6741 25.4581 14.9127 30.7612 21.1042 33.399C21.2588 33.4656 21.4134 33.5298 21.5704 33.5917C21.5002 33.5286 21.4301 33.4644 21.3611 33.399C20.82 32.8947 20.305 32.3393 19.8198 31.734C17.1593 28.4206 15.6941 24.0262 15.6941 19.3606C15.6941 16.8107 16.1318 14.3417 16.9643 12.0868C17.1165 13.4712 17.3781 14.8234 17.7409 16.1328C17.5684 17.1758 17.478 18.2545 17.478 19.3606C17.478 25.4581 20.2241 30.7612 24.2368 33.399H26.3086C25.6664 31.9005 25.1633 30.0167 24.8017 27.9223C25.5082 28.5966 26.2527 29.2317 27.0317 29.824C27.4015 31.3059 27.8332 32.5094 28.2804 33.399H31.7199C31.815 33.2099 31.9102 33.0065 32.0017 32.7901C32.4798 33.0077 32.9663 33.2111 33.4598 33.399L33.6596 33.4739C34.0747 33.6285 34.4933 33.7725 34.9179 33.9057C36.5032 34.4028 38.1552 34.7524 39.8558 34.9368C39.8963 34.9415 39.9379 34.9463 39.9783 34.9499Z" fill="#FFA442"/>
<path opacity="0.5" d="M39.9785 34.8821V34.9499C39.938 34.9463 39.8964 34.9415 39.856 34.9368C39.8976 34.919 39.938 34.9011 39.9785 34.8821Z" fill="#FFA442"/>
</svg>
