<svg width="56" height="60" viewBox="0 0 56 60" fill="none" xmlns="http://www.w3.org/2000/svg">
<path d="M10.3445 39.9916L14.2559 40.029C15.1354 40.0374 15.8553 39.3313 15.8636 38.4517L16.1261 3.19927C16.1374 2.01327 14.8948 1.23139 13.8306 1.75503L10.4534 3.41644C9.57458 3.8488 9.01422 4.73939 9.00493 5.71868L8.76716 38.384C8.75881 39.2634 9.46493 39.9833 10.3445 39.9916Z" fill="url(#paint0_linear_44_1251)"/>
<path d="M15.9541 26.3341L15.864 38.4522C15.8547 39.3316 15.1356 40.0375 14.2562 40.0295L10.344 39.9911C9.46455 39.9831 8.75867 39.2627 8.76667 38.3833L9.00502 5.71855C9.01161 4.94902 9.35996 4.23526 9.93337 3.75714L14.2257 25.0653C14.3887 25.8786 15.1462 26.4202 15.9541 26.3341Z" fill="url(#paint1_linear_44_1251)"/>
<path d="M25.9438 39.9916L22.0324 40.029C21.1529 40.0374 20.433 39.3313 20.4247 38.4517L20.1622 3.19927C20.1509 2.01327 21.3935 1.23139 22.4577 1.75503L25.8349 3.41644C26.7137 3.8488 27.2741 4.73939 27.2834 5.71868L27.5211 38.384C27.5296 39.2634 26.8234 39.9833 25.9438 39.9916Z" fill="url(#paint2_linear_44_1251)"/>
<path d="M39.5376 38.4023L35.6262 38.4397C34.7466 38.4481 34.0268 37.742 34.0184 36.8625L33.7559 1.60998C33.7446 0.423864 34.9872 -0.3579 36.0515 0.165629L39.4286 1.82704C40.3075 2.25939 40.8678 3.14998 40.8771 4.12928L41.1149 36.7946C41.1233 37.6741 40.4171 38.394 39.5376 38.4023Z" fill="url(#paint3_linear_44_1251)"/>
<path d="M45.8208 35.5995L41.9286 35.9899C41.0535 36.0776 40.2728 35.4394 40.185 34.5641L37.4429 7.22703C37.3245 6.04691 38.4915 5.15609 39.5986 5.58139L43.1121 6.93103C44.0263 7.28221 44.6648 8.11856 44.7625 9.09303L47.2464 33.8559C47.3343 34.731 46.6959 35.5117 45.8208 35.5995Z" fill="url(#paint4_linear_44_1251)"/>
<path d="M21.9139 39.2328L18.0218 39.6231C17.1466 39.7109 16.3602 39.0158 16.2654 38.0706L13.3036 8.5442C13.1758 7.26949 14.3366 6.31737 15.448 6.78525L18.9749 8.26984C19.8927 8.6562 20.5383 9.56384 20.6439 10.6164L23.3267 37.3622C23.4216 38.3075 22.789 39.1449 21.9139 39.2328Z" fill="url(#paint5_linear_44_1251)"/>
<path d="M43.3375 39.3551L47.1857 40.0566C48.051 40.2143 48.8804 39.6407 49.0382 38.7754L55.2878 4.08034C55.5005 2.91352 54.4089 1.93187 53.2711 2.26693L49.6607 3.33023C48.7211 3.60693 48.0176 4.38928 47.8419 5.35281L42.0564 37.5026C41.8985 38.368 42.4721 39.1973 43.3375 39.3551Z" fill="url(#paint6_linear_44_1251)"/>
<path d="M49.6606 3.33025C48.7211 3.60695 48.0176 4.3893 47.8419 5.35283L42.0564 37.5026C41.8986 38.3679 42.4723 39.1973 43.3376 39.3551L44.0533 39.4855C44.2657 39.2341 44.4213 38.9162 44.4871 38.5555L50.9079 2.96295L49.6606 3.33025Z" fill="url(#paint7_linear_44_1251)"/>
<path d="M30.7706 40.7567L34.6664 40.3989C35.5424 40.3184 36.1883 39.5321 36.1091 38.6424L32.8604 2.99371C32.7536 1.79406 31.4393 1.12971 30.4324 1.76641L27.2373 3.78677C26.4059 4.31253 25.9371 5.269 26.0252 6.25959L29.041 39.2916C29.1203 40.1811 29.8946 40.837 30.7706 40.7567Z" fill="url(#paint8_linear_44_1251)"/>
<path d="M27.2373 3.78663C26.4059 4.31239 25.9371 5.26886 26.0252 6.25945L29.041 39.2915C29.1201 40.1811 29.8945 40.837 30.7705 40.7566L31.4951 40.69C31.6326 40.3864 31.6976 40.033 31.6645 39.6622L28.3411 3.08875L27.2373 3.78663Z" fill="url(#paint9_linear_44_1251)"/>
<path d="M48.7703 24.9232C48.6838 24.8037 48.5797 24.6926 48.4547 24.5953L35.8246 15.0839C33.2204 13.05 29.6203 14.3754 28.8276 17.5833L27.4497 21.8541L29.0417 39.2914C29.1209 40.1811 29.8952 40.8371 30.7712 40.7566L34.667 40.3988C35.543 40.3184 36.1889 39.532 36.1097 38.6424L36.0909 38.4353L39.5368 38.4024C40.4163 38.394 41.1225 37.6741 41.1141 36.7946L41.1072 35.852C41.3559 35.9662 41.6366 36.0192 41.9286 35.9899L42.3362 35.9491L42.0567 37.5026C41.8989 38.3679 42.4725 39.1973 43.3378 39.3551L47.1861 40.0566C48.0514 40.2144 48.8808 39.6407 49.0385 38.7754L51.1119 27.2648L48.7703 24.9232Z" fill="url(#paint10_linear_44_1251)"/>
<path d="M22.8866 15.0922C22.5396 14.5094 15.8015 16.3911 15.6081 17.3513L11.0449 39.9982L14.2566 40.0289C15.1361 40.0373 15.856 39.3312 15.8643 38.4516L15.8947 34.3694L16.266 38.0706C16.3608 39.0159 17.1472 39.7109 18.0223 39.6232L20.7161 39.3529C21.0074 39.7659 21.4895 40.0341 22.033 40.0289L25.9445 39.9915C26.824 39.9832 27.5302 39.2633 27.5217 38.3837L29.0425 39.2913C29.1216 40.1809 29.896 40.8369 30.772 40.7564L34.6677 40.3987C35.5437 40.3182 36.1896 39.5319 36.1105 38.6422L36.0916 38.4352L39.5375 38.4022C40.417 38.3939 41.1233 37.674 41.1148 36.7944L41.108 35.8519C41.3567 35.9661 41.6374 36.019 41.9294 35.9897L43.615 35.8207L22.8866 15.0922Z" fill="url(#paint11_linear_44_1251)"/>
<path d="M48.4545 24.5953L35.8245 14.7309C33.2203 12.697 29.3849 14.0225 28.5922 17.2303L23.6963 37.0432C23.4831 37.8974 24.0022 38.7609 24.8551 38.9741L28.6508 39.921C29.5037 40.1342 30.3685 39.6152 30.5817 38.7622L34.5443 22.7397L42.0562 28.6094C42.8296 29.2107 43.8745 29.3259 44.7592 28.9047L48.1603 27.2916C49.2319 26.7832 49.3909 25.3236 48.4545 24.5953Z" fill="url(#paint12_linear_44_1251)"/>
<path d="M34.5443 22.7397L30.5817 38.7622C30.3686 39.6151 29.5037 40.1342 28.6508 39.921L24.8552 38.974C24.0022 38.7609 23.483 37.8973 23.6963 37.0431L28.4137 17.9507L34.5443 22.7397Z" fill="url(#paint13_linear_44_1251)"/>
<path d="M11.8551 39.2247L8.02056 39.9973C7.15832 40.171 6.31844 39.6128 6.14467 38.7506L0.717969 11.8176C0.483734 10.6549 1.55703 9.65328 2.70079 9.96728L6.33032 10.9636C7.27479 11.2229 7.99268 11.9921 8.18609 12.9522L13.1019 37.349C13.2755 38.2112 12.7174 39.051 11.8551 39.2247Z" fill="url(#paint14_linear_44_1251)"/>
<path d="M11.8551 39.2247L8.02056 39.9973C7.15832 40.171 6.31844 39.6128 6.14467 38.7506L0.717969 11.8176C0.483734 10.6549 1.55703 9.65328 2.70079 9.96728L6.33032 10.9636C7.27479 11.2229 7.99268 11.9921 8.18609 12.9522L13.1019 37.349C13.2755 38.2112 12.7174 39.051 11.8551 39.2247Z" fill="url(#paint15_linear_44_1251)"/>
<path d="M11.9385 43.6239L15.7731 44.3964C16.6353 44.5702 17.4752 44.012 17.6489 43.1497L23.0758 16.2167C23.31 15.054 22.2367 14.0523 21.0929 14.3663L17.4634 15.3627C16.5189 15.622 15.8011 16.3911 15.6077 17.3513L10.6919 41.7481C10.518 42.6103 11.0762 43.4502 11.9385 43.6239Z" fill="url(#paint16_linear_44_1251)"/>
<path d="M3.00098 23.1474L6.14498 38.7507C6.31874 39.6129 7.15851 40.1712 8.02086 39.9974L9.45357 39.7087C9.70674 39.8842 10.0133 39.9884 10.3446 39.9916L11.0445 39.9983L10.6919 41.7481C10.5182 42.6103 11.0764 43.4502 11.9386 43.6239L15.7732 44.3965C16.6354 44.5702 17.4753 44.0121 17.6491 43.1497L18.3666 39.5885L20.7158 39.3528C21.0071 39.7657 21.4892 40.034 22.0327 40.0288L25.9442 39.9914C26.3793 39.9873 26.7717 39.8086 27.0564 39.5229L28.6514 39.9208C28.8533 39.9713 29.0556 39.9795 29.25 39.9532C29.5509 40.4817 30.1337 40.8149 30.7718 40.7563L34.6676 40.3986C35.5436 40.3181 36.1894 39.5317 36.1103 38.6421L36.0914 38.435L39.5373 38.4021C40.4169 38.3937 41.1231 37.6739 41.1146 36.7943L41.1078 35.8517C41.3565 35.966 41.6372 36.0189 41.9292 35.9896L42.3367 35.9488L42.0572 37.5023C41.8995 38.3676 42.4731 39.197 43.3384 39.3548L47.1866 40.0563C48.0519 40.2141 48.8813 39.6404 49.0391 38.7752L51.8542 23.1472H3.00098V23.1474Z" fill="url(#paint17_linear_44_1251)"/>
<path d="M50.1851 30.5889C47.5595 30.5889 44.9905 31.2858 42.6886 32.5486C39.0528 34.5432 33.7025 35.8037 27.7365 35.8037C21.7705 35.8037 16.4202 34.5432 12.7843 32.5486C10.4825 31.2858 7.9134 30.5889 5.28788 30.5889C4.45823 30.5889 3.8474 31.3652 4.04235 32.1716L9.84682 56.1684C10.4235 58.5529 12.6418 60.1713 15.0879 59.9857C23.146 59.3742 32.3267 59.3742 40.3848 59.9857C42.8309 60.1713 45.0492 58.5529 45.6259 56.1684L51.4303 32.1716C51.6255 31.3651 51.0146 30.5889 50.1851 30.5889Z" fill="url(#paint18_linear_44_1251)"/>
<path d="M40.6255 42.6384C40.4277 42.3249 40.0905 42.1017 39.6849 42.0729C32.0322 41.5298 23.4408 41.5298 15.788 42.0729C15.0373 42.1262 14.5157 42.8428 14.6929 43.5742C15.0445 45.0254 15.5986 47.3134 15.9973 48.9591C16.1292 49.5034 16.4361 49.9655 16.8466 50.2971L26.084 59.5345C30.9396 59.4904 35.8408 59.6407 40.385 59.9855C42.8312 60.1711 45.0494 58.5526 45.6261 56.1682L47.2874 49.3002L40.6255 42.6384Z" fill="url(#paint19_linear_44_1251)"/>
<path d="M14.6929 43.5742C15.0444 45.0254 15.5985 47.3134 15.9972 48.9591C16.2769 50.1134 17.3377 50.9058 18.5236 50.8431C24.5255 50.5255 30.9474 50.5255 36.9492 50.8431C38.1351 50.9058 39.1961 50.1134 39.4756 48.9591C39.8743 47.3132 40.4284 45.0254 40.7799 43.5742C40.9571 42.8428 40.4356 42.1262 39.6849 42.0729C32.0322 41.5298 23.4407 41.5298 15.7879 42.0729C15.0372 42.1262 14.5158 42.8428 14.6929 43.5742Z" fill="url(#paint20_linear_44_1251)"/>
<path d="M8.76611 51.7001L9.84682 56.1683C10.4235 58.5527 12.6418 60.1712 15.0879 59.9855C23.146 59.374 32.3267 59.374 40.3848 59.9855C42.8309 60.1712 45.0492 58.5527 45.6259 56.1683L46.7066 51.7001H8.76611Z" fill="url(#paint21_linear_44_1251)"/>
<defs>
<linearGradient id="paint0_linear_44_1251" x1="8.81857" y1="19.2367" x2="21.7976" y2="24.799" gradientUnits="userSpaceOnUse">
<stop stop-color="#FFD945"/>
<stop offset="0.3043" stop-color="#FFCD3E"/>
<stop offset="0.8558" stop-color="#FFAD2B"/>
<stop offset="1" stop-color="#FFA325"/>
</linearGradient>
<linearGradient id="paint1_linear_44_1251" x1="13.023" y1="21.659" x2="5.42985" y2="23.8663" gradientUnits="userSpaceOnUse">
<stop stop-color="#F82814" stop-opacity="0"/>
<stop offset="1" stop-color="#C0272D"/>
</linearGradient>
<linearGradient id="paint2_linear_44_1251" x1="32.9144" y1="12.0963" x2="26.5574" y2="18.1886" gradientUnits="userSpaceOnUse">
<stop stop-color="#FFD945"/>
<stop offset="0.3043" stop-color="#FFCD3E"/>
<stop offset="0.8558" stop-color="#FFAD2B"/>
<stop offset="1" stop-color="#FFA325"/>
</linearGradient>
<linearGradient id="paint3_linear_44_1251" x1="32.7743" y1="18.7219" x2="37.807" y2="19.649" gradientUnits="userSpaceOnUse">
<stop stop-color="#FFD945"/>
<stop offset="0.3043" stop-color="#FFCD3E"/>
<stop offset="0.8558" stop-color="#FFAD2B"/>
<stop offset="1" stop-color="#FFA325"/>
</linearGradient>
<linearGradient id="paint4_linear_44_1251" x1="39.5258" y1="20.6824" x2="43.8522" y2="20.9474" gradientUnits="userSpaceOnUse">
<stop stop-color="#FFD945"/>
<stop offset="0.3043" stop-color="#FFCD3E"/>
<stop offset="0.8558" stop-color="#FFAD2B"/>
<stop offset="1" stop-color="#FFA325"/>
</linearGradient>
<linearGradient id="paint5_linear_44_1251" x1="22.2367" y1="21.0824" x2="14.4242" y2="24.3784" gradientUnits="userSpaceOnUse">
<stop stop-color="#FFD945"/>
<stop offset="0.3043" stop-color="#FFCD3E"/>
<stop offset="0.8558" stop-color="#FFAD2B"/>
<stop offset="1" stop-color="#FFA325"/>
</linearGradient>
<linearGradient id="paint6_linear_44_1251" x1="43.5894" y1="17.4764" x2="55.441" y2="25.1674" gradientUnits="userSpaceOnUse">
<stop stop-color="#FFD945"/>
<stop offset="0.3043" stop-color="#FFCD3E"/>
<stop offset="0.8558" stop-color="#FFAD2B"/>
<stop offset="1" stop-color="#FFA325"/>
</linearGradient>
<linearGradient id="paint7_linear_44_1251" x1="44.5357" y1="14.2947" x2="55.5723" y2="49.7" gradientUnits="userSpaceOnUse">
<stop stop-color="#F82814" stop-opacity="0"/>
<stop offset="1" stop-color="#C0272D"/>
</linearGradient>
<linearGradient id="paint8_linear_44_1251" x1="27.1692" y1="19.9391" x2="40.7475" y2="24.2097" gradientUnits="userSpaceOnUse">
<stop stop-color="#FFD945"/>
<stop offset="0.3043" stop-color="#FFCD3E"/>
<stop offset="0.8558" stop-color="#FFAD2B"/>
<stop offset="1" stop-color="#FFA325"/>
</linearGradient>
<linearGradient id="paint9_linear_44_1251" x1="20.5586" y1="8.76787" x2="40.9412" y2="40.4021" gradientUnits="userSpaceOnUse">
<stop stop-color="#F82814" stop-opacity="0"/>
<stop offset="1" stop-color="#C0272D"/>
</linearGradient>
<linearGradient id="paint10_linear_44_1251" x1="42.0147" y1="38.9971" x2="31.9871" y2="9.78636" gradientUnits="userSpaceOnUse">
<stop stop-color="#F82814" stop-opacity="0"/>
<stop offset="1" stop-color="#C0272D"/>
</linearGradient>
<linearGradient id="paint11_linear_44_1251" x1="27.5433" y1="32.0372" x2="3.1221" y2="21.634" gradientUnits="userSpaceOnUse">
<stop stop-color="#F82814" stop-opacity="0"/>
<stop offset="1" stop-color="#C0272D"/>
</linearGradient>
<linearGradient id="paint12_linear_44_1251" x1="30.9981" y1="27.0615" x2="45.8977" y2="33.447" gradientUnits="userSpaceOnUse">
<stop stop-color="#FFD945"/>
<stop offset="0.3043" stop-color="#FFCD3E"/>
<stop offset="0.8558" stop-color="#FFAD2B"/>
<stop offset="1" stop-color="#FFA325"/>
</linearGradient>
<linearGradient id="paint13_linear_44_1251" x1="29.2368" y1="29.1017" x2="40.4941" y2="31.7505" gradientUnits="userSpaceOnUse">
<stop stop-color="#F82814" stop-opacity="0"/>
<stop offset="1" stop-color="#C0272D"/>
</linearGradient>
<linearGradient id="paint14_linear_44_1251" x1="1.68421" y1="23.7946" x2="15.2743" y2="28.2086" gradientUnits="userSpaceOnUse">
<stop stop-color="#FFD945"/>
<stop offset="0.3043" stop-color="#FFCD3E"/>
<stop offset="0.8558" stop-color="#FFAD2B"/>
<stop offset="1" stop-color="#FFA325"/>
</linearGradient>
<linearGradient id="paint15_linear_44_1251" x1="1.68421" y1="23.7946" x2="15.2743" y2="28.2086" gradientUnits="userSpaceOnUse">
<stop stop-color="#FFD945"/>
<stop offset="0.3043" stop-color="#FFCD3E"/>
<stop offset="0.8558" stop-color="#FFAD2B"/>
<stop offset="1" stop-color="#FFA325"/>
</linearGradient>
<linearGradient id="paint16_linear_44_1251" x1="12.5168" y1="26.9096" x2="20.3307" y2="30.6179" gradientUnits="userSpaceOnUse">
<stop stop-color="#FFD945"/>
<stop offset="0.3043" stop-color="#FFCD3E"/>
<stop offset="0.8558" stop-color="#FFAD2B"/>
<stop offset="1" stop-color="#FFA325"/>
</linearGradient>
<linearGradient id="paint17_linear_44_1251" x1="27.4274" y1="26.6693" x2="27.4274" y2="41.6372" gradientUnits="userSpaceOnUse">
<stop stop-color="#F82814" stop-opacity="0"/>
<stop offset="0.2662" stop-color="#EE2818" stop-opacity="0.266"/>
<stop offset="0.7123" stop-color="#D42724" stop-opacity="0.712"/>
<stop offset="1" stop-color="#C0272D"/>
</linearGradient>
<linearGradient id="paint18_linear_44_1251" x1="12.886" y1="37.1412" x2="49.9688" y2="52.9015" gradientUnits="userSpaceOnUse">
<stop stop-color="#FF6359"/>
<stop offset="0.2243" stop-color="#FE5B50"/>
<stop offset="0.5952" stop-color="#FC4637"/>
<stop offset="1" stop-color="#F82814"/>
</linearGradient>
<linearGradient id="paint19_linear_44_1251" x1="34.686" y1="62.5825" x2="29.6534" y2="40.5977" gradientUnits="userSpaceOnUse">
<stop stop-color="#F82814" stop-opacity="0"/>
<stop offset="1" stop-color="#C0272D"/>
</linearGradient>
<linearGradient id="paint20_linear_44_1251" x1="26.3457" y1="41.3122" x2="31.7092" y2="53.6283" gradientUnits="userSpaceOnUse">
<stop stop-color="#FFD945"/>
<stop offset="0.3043" stop-color="#FFCD3E"/>
<stop offset="0.8558" stop-color="#FFAD2B"/>
<stop offset="1" stop-color="#FFA325"/>
</linearGradient>
<linearGradient id="paint21_linear_44_1251" x1="27.7365" y1="54.6138" x2="27.7365" y2="62.351" gradientUnits="userSpaceOnUse">
<stop stop-color="#F82814" stop-opacity="0"/>
<stop offset="1" stop-color="#C0272D"/>
</linearGradient>
</defs>
</svg>
