<svg width="60" height="60" viewBox="0 0 60 60" fill="none" xmlns="http://www.w3.org/2000/svg">
<path fill-rule="evenodd" clip-rule="evenodd" d="M38.0366 46.6784C38.0366 46.4854 37.9179 46.3119 37.7379 46.242C33.1294 44.4523 29.8584 39.9721 29.8584 34.7337C29.8584 29.495 33.1296 25.0144 37.7379 23.2251C37.9179 23.1553 38.0366 22.982 38.0366 22.7887V16.1269C38.0366 15.9467 37.9332 15.7824 37.7705 15.7047C37.6078 15.6269 37.4148 15.6494 37.2745 15.7627L30.0453 21.5962C29.8575 21.1103 29.564 20.6768 29.1927 20.3245L36.4554 14.4638C36.61 14.3389 36.6691 14.1299 36.6026 13.9427C36.5078 13.6762 36.4566 13.3896 36.4566 13.0912C36.4566 12.124 36.997 11.2824 37.7916 10.8514C37.9426 10.7694 38.0366 10.6117 38.0366 10.4398V9.92065C38.0366 8.86133 37.6159 7.84537 36.8667 7.09616C36.1177 6.34717 35.1017 5.92627 34.0424 5.92627C28.8736 5.92627 19.2948 5.92627 14.1262 5.92627C13.0667 5.92627 12.0507 6.34717 11.3017 7.09616C10.5525 7.84537 10.1318 8.86133 10.1318 9.92065V19.2413C10.1318 19.4051 10.2175 19.5571 10.3575 19.6418C10.4977 19.7267 10.6718 19.7321 10.817 19.6562L13.8568 18.066C13.9909 18.571 14.2354 19.0308 14.5631 19.418L10.3831 21.6045C10.2285 21.6854 10.1318 21.8451 10.1318 22.0193V50.0045C10.1318 51.0638 10.5525 52.0798 11.3017 52.8287C12.0507 53.578 13.0667 53.9986 14.1262 53.9986H34.0424C35.1017 53.9986 36.1177 53.578 36.8667 52.8287C37.6159 52.0798 38.0366 51.0638 38.0366 50.0042V46.6784Z" fill="#E2F4FD"/>
<path fill-rule="evenodd" clip-rule="evenodd" d="M13.9325 18.3132C14.0743 18.7213 14.2898 19.0948 14.5631 19.418L10.3831 21.6045C10.2285 21.6854 10.1318 21.8452 10.1318 22.0193V26.0559C11.5822 25.6634 12.6584 24.3557 12.7015 22.7919L17.7741 20.1386C18.3226 20.4993 18.979 20.7094 19.6842 20.7094C20.301 20.7094 20.8808 20.5485 21.3837 20.2665L25.7759 22.9757C25.8134 24.8654 27.359 26.3879 29.2575 26.3879C31.1793 26.3879 32.7397 24.8276 32.7397 22.9056C32.7397 22.8276 32.737 22.7501 32.7321 22.6737L38.0366 18.393V16.127C38.0366 15.9467 37.9332 15.7825 37.7705 15.7047C37.6078 15.627 37.4148 15.6494 37.2745 15.7627L30.0453 21.5962C29.8575 21.1103 29.564 20.6768 29.1927 20.3245L30.1619 19.5425C29.8734 19.4647 29.5703 19.4234 29.2575 19.4234C28.5662 19.4234 27.9219 19.6252 27.3802 19.973L23.1633 17.3721C23.1653 17.3238 23.1664 17.2757 23.1664 17.2272C23.1664 15.3054 21.606 13.7449 19.6842 13.7449C17.7963 13.7449 16.2572 15.2506 16.2033 17.1256L13.9325 18.3132Z" fill="#C3E7F9"/>
<path fill-rule="evenodd" clip-rule="evenodd" d="M30.2035 37.6406C30.2029 37.6961 30.2026 37.7514 30.2026 37.8065C30.2026 43.1952 33.4199 47.8386 38.0368 49.9184V46.6784C38.0368 46.4853 37.9181 46.3119 37.7381 46.242C34.0103 44.7943 31.1575 41.586 30.2035 37.6406Z" fill="#CAE2FA"/>
<path fill-rule="evenodd" clip-rule="evenodd" d="M18.4488 48.8752H29.7205C29.9787 48.8752 30.1886 48.6654 30.1886 48.4069C30.1886 48.1487 29.9787 47.9388 29.7205 47.9388H18.4488C18.1904 47.9388 17.9805 48.1487 17.9805 48.4069C17.9805 48.6654 18.1904 48.8752 18.4488 48.8752Z" fill="#363C50"/>
<path fill-rule="evenodd" clip-rule="evenodd" d="M15.2905 5.92627V7.11773C15.2905 7.72942 15.5334 8.31616 15.966 8.74874C16.3986 9.18133 16.9854 9.42447 17.5973 9.42447H30.5719C31.1836 9.42447 31.7703 9.18133 32.2029 8.74874C32.6355 8.31616 32.8784 7.72942 32.8784 7.11773L32.8786 5.92627H15.2905Z" fill="#363C50"/>
<path fill-rule="evenodd" clip-rule="evenodd" d="M41.4295 22.0614C41.4538 21.9178 41.41 21.7713 41.3106 21.6645C41.2115 21.558 41.0684 21.5036 40.9234 21.5173C34.1936 22.16 28.9219 27.836 28.9219 34.7338C28.9219 42.0614 34.8711 48.0106 42.1987 48.0106C49.1008 48.0106 54.7796 42.7322 55.4163 35.9964C55.43 35.8513 55.3751 35.7081 55.2684 35.609C55.1614 35.5099 55.0147 35.4663 54.8709 35.4908L54.6985 35.5054C51.7394 35.5171 45.3441 35.5171 42.4383 35.5171C41.8733 35.5171 41.4154 35.0591 41.4154 34.4942V22.232C41.4154 22.1744 41.4201 22.1173 41.4295 22.0614Z" fill="#4972B8"/>
<path fill-rule="evenodd" clip-rule="evenodd" d="M40.9642 21.5153C40.961 21.5627 40.9595 21.6103 40.9595 21.6584V35.069C40.9595 35.64 41.1862 36.2162 41.59 36.671C41.9939 37.1256 42.5415 37.4216 43.1125 37.4937C45.806 37.8337 51.2213 38.5171 54.788 38.9595C55.1055 38.0142 55.3195 37.0222 55.4166 35.9964C55.4303 35.8512 55.3754 35.7081 55.2687 35.609C55.1617 35.5099 55.015 35.4663 54.8712 35.4908L54.6988 35.5054C51.7397 35.5171 45.3444 35.5171 42.4386 35.5171C41.8736 35.5171 41.4157 35.0591 41.4157 34.4942V22.2319C41.4157 22.1744 41.4204 22.1173 41.4298 22.0613C41.4541 21.9177 41.4103 21.7712 41.3109 21.6645C41.221 21.5679 41.095 21.5142 40.9642 21.5153Z" fill="#4568A3"/>
<path fill-rule="evenodd" clip-rule="evenodd" d="M20.4571 17.1652C20.3219 17.0818 20.1536 17.0726 20.0102 17.1409C19.8666 17.2092 19.7675 17.3456 19.747 17.5032C19.6513 18.2378 19.2416 18.8742 18.6574 19.2739C18.5266 19.3636 18.45 19.513 18.4538 19.6715C18.4576 19.8299 18.5412 19.9757 18.676 20.0589L23.5419 23.06C23.6819 23.1465 23.8572 23.153 24.0032 23.0773C24.1493 23.0016 24.2448 22.8546 24.2549 22.6903C24.301 21.9427 24.6711 21.282 25.2257 20.8463C25.3461 20.7519 25.4127 20.6045 25.4039 20.4517C25.3954 20.2989 25.3124 20.16 25.1823 20.0796L20.4571 17.1652ZM14.6812 17.3234C14.672 17.1649 14.5828 17.0218 14.4446 16.9436C14.3061 16.8654 14.1376 16.8625 13.9969 16.9362L8.40996 19.8587C8.26951 19.9321 8.17557 20.0717 8.16074 20.2297C8.14591 20.3874 8.2122 20.5423 8.33647 20.6407C8.88816 21.0769 9.25535 21.7366 9.30029 22.4829C9.30996 22.6414 9.39917 22.7843 9.53737 22.8623C9.67557 22.9405 9.84411 22.9432 9.98479 22.8694L15.5688 19.9488C15.7093 19.8753 15.803 19.7357 15.8178 19.578C15.8329 19.4202 15.767 19.2656 15.6428 19.167C15.0918 18.7299 14.7252 18.0697 14.6812 17.3234ZM36.6025 13.9427C36.5515 13.7996 36.4347 13.6901 36.2886 13.6488C36.1425 13.6076 35.9855 13.6398 35.8673 13.7351L28.1504 19.9623C28.0338 20.0562 27.9693 20.2002 27.9767 20.3499C27.9841 20.4993 28.0625 20.6362 28.1877 20.7182C28.7848 21.1092 29.2082 21.7438 29.3151 22.4805C29.3394 22.6467 29.4511 22.7874 29.6075 22.849C29.7641 22.9103 29.9416 22.8832 30.0724 22.7775L38.163 16.2488C38.292 16.1447 38.3563 15.9802 38.3322 15.8162C38.3079 15.6521 38.1987 15.5133 38.0452 15.4508C37.3747 15.1782 36.8459 14.6276 36.6025 13.9427Z" fill="#383D5E"/>
<path d="M26.7957 26.3319C28.7189 26.3319 30.278 24.7729 30.278 22.8497C30.278 20.9265 28.7189 19.3674 26.7957 19.3674C24.8725 19.3674 23.3135 20.9265 23.3135 22.8497C23.3135 24.7729 24.8725 26.3319 26.7957 26.3319Z" fill="#FAA923"/>
<path d="M6.7591 26.1207C8.68229 26.1207 10.2414 24.5616 10.2414 22.6384C10.2414 20.7152 8.68229 19.1562 6.7591 19.1562C4.83591 19.1562 3.27686 20.7152 3.27686 22.6384C3.27686 24.5616 4.83591 26.1207 6.7591 26.1207Z" fill="#58D56A"/>
<path d="M17.2225 20.6535C19.1457 20.6535 20.7047 19.0944 20.7047 17.1712C20.7047 15.248 19.1457 13.689 17.2225 13.689C15.2993 13.689 13.7402 15.248 13.7402 17.1712C13.7402 19.0944 15.2993 20.6535 17.2225 20.6535Z" fill="#019EFA"/>
<path d="M39.0023 16.5735C40.9255 16.5735 42.4845 15.0144 42.4845 13.0913C42.4845 11.1681 40.9255 9.60901 39.0023 9.60901C37.0791 9.60901 35.52 11.1681 35.52 13.0913C35.52 15.0144 37.0791 16.5735 39.0023 16.5735Z" fill="#FF005D"/>
<path fill-rule="evenodd" clip-rule="evenodd" d="M40.479 22.2398V34.4872C40.479 35.0085 40.6862 35.5088 41.055 35.8775C41.4237 36.2463 41.9239 36.4535 42.4453 36.4535C45.3527 36.4535 51.7334 36.4535 54.6945 36.4416C55.243 36.4416 55.768 36.2094 56.1386 35.8023C56.5089 35.3948 56.6902 34.8503 56.6383 34.3023C56.6381 34.3005 56.6379 34.2987 56.6377 34.2969C55.8532 26.9355 49.9977 21.0798 42.6377 20.2823C42.6354 20.282 42.6334 20.2818 42.6314 20.2816C42.0799 20.2292 41.5318 20.4119 41.1219 20.7847C40.7123 21.1575 40.4788 21.6861 40.479 22.2402V22.2398Z" fill="#019EFA"/>
</svg>
