<svg width="40" height="40" viewBox="0 0 40 40" fill="none" xmlns="http://www.w3.org/2000/svg">
<g clip-path="url(#clip0_29_1709)">
<path fill-rule="evenodd" clip-rule="evenodd" d="M14.5265 9.20765V8.45148C14.5265 5.92405 6.66944 5.92405 6.66944 8.45148V9.07319C9.4867 7.4871 11.7097 7.71773 14.5265 9.20765ZM33.3305 9.07319V8.45148C33.3305 5.92405 25.4734 5.92405 25.4734 8.45148V9.20765C28.2903 7.7178 30.5133 7.4871 33.3305 9.07319ZM14.5574 10.2931C17.7008 12.0699 22.2991 12.0699 25.4426 10.2931C28.2622 8.69944 30.334 8.26249 33.4276 10.2237C36.9562 12.4609 39.71 21.2703 39.1449 27.2198C38.4771 34.2523 32.3362 35.2564 28.0116 30.5828C25.7794 28.1704 23.3319 26.8663 20 26.8319C16.6681 26.8664 14.2206 28.1704 11.9883 30.5828C7.66373 35.2564 1.52287 34.2523 0.855061 27.2198C0.289983 21.2702 3.04373 12.4609 6.5724 10.2237C9.66592 8.26249 11.7377 8.69944 14.5574 10.2931ZM11.9827 18.3301V15.4877H9.1403V18.3301H6.29787V21.1725H9.1403V24.0149H11.9827V21.1725H14.8251V18.3301H11.9827ZM28.9928 15.0421C28.1927 15.0421 27.544 15.6908 27.544 16.4909C27.544 17.2909 28.1927 17.9396 28.9928 17.9396C29.7929 17.9396 30.4415 17.2909 30.4415 16.4909C30.4415 15.6908 29.7929 15.0421 28.9928 15.0421ZM27.1812 19.7512C27.1812 18.9511 26.5325 18.3025 25.7324 18.3025C24.9323 18.3025 24.2837 18.9512 24.2837 19.7512C24.2837 20.5513 24.9323 21.2 25.7324 21.2C26.5325 21.2 27.1812 20.5513 27.1812 19.7512ZM28.9928 21.5629C28.1927 21.5629 27.544 22.2116 27.544 23.0116C27.544 23.8117 28.1927 24.4604 28.9928 24.4604C29.7929 24.4604 30.4415 23.8117 30.4415 23.0116C30.4415 22.2116 29.7929 21.5629 28.9928 21.5629ZM33.7019 19.7512C33.7019 18.9511 33.0533 18.3025 32.2532 18.3025C31.4531 18.3025 30.8044 18.9512 30.8044 19.7512C30.8044 20.5513 31.4531 21.2 32.2532 21.2C33.0533 21.2 33.7019 20.5513 33.7019 19.7512Z" fill="black" fill-opacity="0.5"/>
</g>
<defs>
<clipPath id="clip0_29_1709">
<rect width="40" height="40" fill="white"/>
</clipPath>
</defs>
</svg>
