<svg width="60" height="60" viewBox="0 0 60 60" fill="none" xmlns="http://www.w3.org/2000/svg">
<path d="M53.9959 10.5713C51.3277 8.47413 47.9627 7.22327 44.3057 7.22327C39.6434 7.22327 35.4567 9.25706 32.5822 12.4849L27.8379 30.8767L31.9595 32.6077C31.9595 32.6077 36.5796 37.5223 41.6497 37.5223C50.3174 37.5223 58.6683 28.9292 58.6683 20.2615C58.6684 16.6045 55.9983 12.636 53.9959 10.5713Z" fill="#FFE15E"/>
<path d="M33.8029 18.5622C33.8029 16.4074 33.3682 14.3541 32.5825 12.4849C30.113 15.2579 28.6117 18.912 28.6117 22.9174L22.7637 28.7456L27.8381 30.8766C31.4713 28.0024 33.8029 23.5547 33.8029 18.5622Z" fill="#FDD556"/>
<path d="M53.9959 10.5714C56.0931 13.2397 57.3439 16.6046 57.3439 20.2616C57.3439 28.9293 50.3174 35.9559 41.6497 35.9559C37.9926 35.9559 34.6277 34.705 31.9595 32.6078C34.8329 36.2637 39.2951 38.6118 44.3056 38.6118C52.9733 38.6118 59.9999 31.5852 59.9999 22.9176C59.9999 17.907 57.6518 13.4448 53.9959 10.5714Z" fill="#FDD556"/>
<path d="M42.7257 21.7473L41.54 24.2541L49.2948 24.1689V21.7473H42.7257Z" fill="#FDD556"/>
<path d="M39.9351 25.369H49.2947V23.5581H42.7256V21.7473H39.9351V25.369Z" fill="#FFD064"/>
<path d="M38.5 18.3705H37.8963C36.8963 18.3705 36.0854 19.1812 36.0854 20.1814V26.3313L39.9347 28.1599L38.5 18.3705Z" fill="#FFD064"/>
<path d="M39.104 18.3705H38.5004V25.4258C38.5004 25.9258 38.095 26.3311 37.595 26.3311H36.0859V26.9348C36.0859 27.9349 36.8968 28.7457 37.8968 28.7457H39.1041C40.1042 28.7457 40.915 27.935 40.915 26.9348V20.1813C40.9148 19.1812 40.1041 18.3705 39.104 18.3705Z" fill="#FFA600"/>
<path d="M50.5727 18.3705H49.9691C48.969 18.3705 48.1582 19.1812 48.1582 20.1814V26.3313L52.0075 28.1599L50.5727 18.3705Z" fill="#FFD064"/>
<path d="M51.1762 18.3705H50.5726V25.4258C50.5726 25.9258 50.1673 26.3311 49.6672 26.3311H48.1582V26.9348C48.1582 27.9349 48.969 28.7457 49.9691 28.7457H51.1764C52.1764 28.7457 52.9873 27.935 52.9873 26.9348V20.1813C52.987 19.1812 52.1763 18.3705 51.1762 18.3705Z" fill="#FFA600"/>
<path d="M32.4963 31.506C31.5185 30.7375 30.4468 30.0831 29.3017 29.5619L11.6129 32.8527C8.82955 35.6848 7.11182 39.5676 7.11182 43.8522C7.11182 47.5093 8.36268 50.8742 10.4599 53.5424C13.1249 56.2042 16.493 58.0427 20.1501 58.0427C28.8178 58.0427 37.4494 49.8639 37.4494 41.1963C37.4494 37.5392 34.6799 33.9687 32.4963 31.506Z" fill="#E592D0"/>
<path d="M32.4964 31.5061C34.5936 34.1743 35.8444 37.5393 35.8444 41.1963C35.8444 49.864 28.8179 56.8906 20.1502 56.8906C16.4931 56.8906 13.1282 55.6397 10.46 53.5425C13.3333 57.1984 17.7955 59.5465 22.8061 59.5465C31.4738 59.5465 38.5004 52.5199 38.5004 43.8523C38.5004 38.8416 36.1523 34.3794 32.4964 31.5061Z" fill="#E172C1"/>
<path d="M29.3017 29.5619C27.3221 28.6607 25.1229 28.158 22.806 28.158C18.4229 28.158 14.4602 29.9555 11.6128 32.8527C13.5923 33.754 15.7917 34.2564 18.1086 34.2564C22.4917 34.2565 26.4542 32.459 29.3017 29.5619Z" fill="#E172C1"/>
<path d="M29.9999 40.6097C30.0905 39.3818 28.536 38.2251 27.8453 37.3301C27.3737 37.1437 26.8626 37.034 26.3233 37.0209C24.9244 36.9868 23.6641 37.5833 22.8059 38.5461C21.9477 37.5834 20.6874 36.9869 19.2885 37.0209C16.6498 37.0851 14.667 39.426 14.8613 42.0582C15.0552 44.6856 16.8648 47.1646 20.8315 50.1167C26.087 48.4557 29.7775 43.6231 29.9999 40.6097Z" fill="#E172C1"/>
<path d="M27.8453 37.3302C28.5359 38.2253 28.9096 39.3819 28.819 40.6098C28.5966 43.6233 26.1235 46.5547 20.8315 50.117C21.2901 50.4582 21.7758 50.8056 22.293 51.1604C22.6015 51.3722 23.0105 51.3722 23.3191 51.1604C28.3092 47.7356 30.5344 44.9896 30.7508 42.0585C30.9052 39.9641 29.6808 38.0557 27.8453 37.3302Z" fill="#DD50B3"/>
<path d="M30 13.6126C30 9.92471 27.7571 6.10897 25.4513 3.85557C22.7723 1.72627 19.3821 0.453735 15.6942 0.453735C7.02656 0.453618 0 7.48018 0 16.1478C0 19.8357 1.27266 23.2261 3.40184 25.9049C5.9107 28.4188 9.47098 30.3684 13.1589 30.3684C21.8266 30.3684 30 22.2803 30 13.6126Z" fill="#BED9FD"/>
<path d="M25.4513 3.85547C27.5806 6.53438 28.8531 9.92461 28.8531 13.6125C28.8531 22.2802 21.8265 29.3067 13.1589 29.3067C9.471 29.3067 6.08064 28.0341 3.40186 25.9049C6.27693 29.5222 10.7144 31.842 15.6941 31.842C24.3618 31.842 31.3883 24.8154 31.3883 16.1477C31.3883 11.1681 29.0686 6.73055 25.4513 3.85547Z" fill="#9EC8FC"/>
<path d="M20.2408 9.46984L11.8737 7.22606C11.2986 7.07195 10.7339 7.50531 10.7339 8.10063V8.73379L21.4481 12.4902L20.2408 9.46984Z" fill="#9EC8FC"/>
<path d="M8.9226 21.8082C10.3164 21.5828 11.4892 20.4106 10.7335 18.2735C10.338 18.2354 9.91084 18.2376 9.48814 18.3178C7.98803 18.6025 7.11182 19.4981 7.11182 20.6677C7.11182 20.8713 7.14943 21.0678 7.21822 21.2524C7.68873 21.8122 8.57045 21.8651 8.9226 21.8082Z" fill="#9EC8FC"/>
<path d="M18.4299 24.3571C19.8237 24.1318 20.9966 22.9596 20.2408 20.8224C19.8453 20.7843 19.4182 20.7865 18.9955 20.8667C17.4954 21.1515 16.6191 22.047 16.6191 23.2167C16.6191 23.4202 16.6568 23.6167 16.7255 23.8013C17.1962 24.3612 18.0778 24.4141 18.4299 24.3571Z" fill="#9EC8FC"/>
<path d="M22.0515 10.6498C22.0515 10.24 21.7762 9.88127 21.3804 9.77522L20.2406 9.46982H20.2405V10.7324C20.2405 11.0103 19.9769 11.2124 19.7086 11.1406L10.7335 8.73389V18.2734C10.7335 20.0637 9.60361 21.0299 8.2099 21.2554C7.85775 21.3123 7.52271 21.3068 7.21826 21.2524C7.54463 22.1285 8.58912 22.7318 9.82814 22.4966C11.3279 22.212 12.5438 20.9921 12.5444 18.732C12.5444 18.7314 12.5444 11.0277 12.5444 11.0277L20.2406 13.0916L20.2405 20.8226C20.2405 22.6129 19.1106 23.5791 17.7169 23.8046C17.3647 23.8615 17.0297 23.856 16.7252 23.8016C17.0516 24.6777 18.0961 25.281 19.3351 25.0458C20.8349 24.7612 22.0508 23.5412 22.0514 21.2812L22.0515 10.6498Z" fill="#66A5F5"/>
<path d="M59.1086 54.3144L57.5854 36.412H36.8456C35.8455 36.412 35.0347 37.2227 35.0347 38.2229V52.7734L59.1086 54.3144Z" fill="#ED96DC"/>
<path d="M58.1893 36.412H57.5857V51.8678C57.5857 52.3679 57.1803 52.7732 56.6803 52.7732H35.0352V53.3769C35.0352 54.3769 35.8459 55.1878 36.8461 55.1878H58.1894C59.1895 55.1878 60.0003 54.3771 60.0003 53.3769V38.2229C60.0002 37.2227 59.1895 36.412 58.1893 36.412Z" fill="#E592D0"/>
<path d="M44.2031 50.0563V41.7851C44.2031 41.0808 44.972 40.6462 45.5754 41.0093L52.4479 45.145C53.0326 45.4969 53.0326 46.3447 52.4479 46.6966L45.5754 50.8322C44.9719 51.1953 44.2031 50.7606 44.2031 50.0563Z" fill="#F1F6F7"/>
</svg>
