<svg width="60" height="60" viewBox="0 0 60 60" fill="none" xmlns="http://www.w3.org/2000/svg">
<path d="M37.3305 39.3436V55.4396C37.3305 57.9587 35.2875 59.9998 32.7689 59.9998H27.2931C24.7745 59.9998 22.7319 57.9582 22.7319 55.4396V39.3436H37.3305Z" fill="#356B93"/>
<path d="M37.3307 45.8169V55.4396C37.3307 57.9582 35.289 59.9999 32.7704 59.9999H30.943C28.4239 59.9999 26.3818 57.9578 26.3818 55.4387V48.6203C26.3818 47.0721 27.6366 45.8169 29.1847 45.8169H37.3307Z" fill="#5881A5"/>
<path d="M37.9827 28.3082C32.6823 29.2412 27.3813 29.2412 22.0804 28.3082C19.6767 27.8853 17.8213 25.9572 17.4515 23.5447C16.5272 17.5178 16.5272 11.4904 17.4515 5.46298C17.8213 3.05056 19.6767 1.12245 22.0804 0.699474C27.3813 -0.232995 32.6823 -0.232995 37.9827 0.699474C40.3865 1.12245 42.2422 3.05056 42.6121 5.46298C43.5359 11.4904 43.5359 17.5178 42.6121 23.5447C42.2422 25.9572 40.3865 27.8853 37.9827 28.3082Z" fill="#394D63"/>
<path d="M27.8644 28.9546C25.9372 28.863 24.0086 28.6474 22.0814 28.3078C19.6772 27.8853 17.8224 25.9581 17.4511 23.5452C16.5274 17.5178 16.5274 11.4904 17.4511 5.46298C17.8224 3.05009 19.6772 1.12153 22.0814 0.699008C24.0086 0.359346 25.9372 0.144654 27.8644 0.0531006C25.5614 0.653232 23.8209 2.58867 23.4543 4.97134C22.4801 11.3265 22.4801 17.6817 23.4543 24.0364C23.8205 26.419 25.5614 28.3549 27.8644 28.9546Z" fill="#20303F"/>
<path d="M45.4144 31.1794V37.8321C45.4144 40.3228 43.3957 42.3429 40.9045 42.3429H19.1579C16.6686 42.3429 14.6484 40.3228 14.6484 37.8321V31.1794C14.6484 28.6887 16.6681 26.6686 19.1579 26.6686H40.9045C43.3957 26.6686 45.4144 28.6887 45.4144 31.1794Z" fill="#ED2929"/>
<path d="M45.4142 31.1794V37.8321C45.4142 40.3228 43.3955 42.3429 40.9043 42.3429H25.5934C23.1041 42.3429 21.084 40.3228 21.084 37.8321V31.1794C21.084 28.6887 23.1036 26.6686 25.5934 26.6686H40.9043C43.3955 26.6686 45.4142 28.6887 45.4142 31.1794Z" fill="#FF5A5A"/>
<path d="M22.45 30.4369C22.0051 30.4369 21.7062 30.6548 21.7062 30.9793V35.091L19.6961 31.1707C19.448 30.6946 19.2136 30.4369 18.6867 30.4369C18.2349 30.4369 17.9429 30.6539 17.9429 30.9899V37.9969C17.9429 38.3599 18.3169 38.5499 18.6867 38.5499C19.1248 38.5499 19.4306 38.3224 19.4306 37.9969V33.8692L21.621 38.039L21.6219 38.0408C21.7959 38.3645 22.0976 38.5499 22.45 38.5499C22.8877 38.5499 23.1939 38.3224 23.1939 37.9969V30.9793C23.1939 30.6498 22.9018 30.4369 22.45 30.4369Z" fill="#E6E6E6"/>
<path d="M29.2129 31.7974C29.5333 31.7974 29.7658 31.5071 29.7658 31.1066C29.7658 30.7738 29.5763 30.4369 29.2129 30.4369H25.439C25.1094 30.4369 24.7588 30.6305 24.7588 30.9899V37.9969C24.7588 38.3562 25.1094 38.5499 25.439 38.5499H29.2129C29.5763 38.5499 29.7658 38.213 29.7658 37.8802C29.7658 37.4801 29.5333 37.1894 29.2129 37.1894H26.2465V35.1153H27.6972C28.0561 35.1153 28.2502 34.7976 28.2502 34.4986C28.2502 34.1292 28.0176 33.8605 27.6972 33.8605H26.2465V31.7974H29.2129Z" fill="#E6E6E6"/>
<path d="M36.3332 30.446C36.0439 30.446 35.826 30.5866 35.7642 30.8132L35.3005 35.817L34.607 33.059C34.5406 32.7642 34.2641 32.5884 33.8677 32.5884C33.4713 32.5884 33.1953 32.7642 33.1298 33.0544L32.4349 35.817L31.9767 30.8443L31.9712 30.8132C31.9094 30.5866 31.6915 30.446 31.4022 30.446C30.9856 30.446 30.521 30.7083 30.521 31.0846C30.521 31.129 30.521 31.1753 30.5347 31.2256L31.2415 37.9076C31.269 38.158 31.4269 38.3745 31.6521 38.4721C31.8915 38.5764 32.1703 38.6135 32.3516 38.6135C32.7293 38.6135 33.1499 38.4533 33.2392 38.0949L33.8677 35.5945L34.4962 38.0944C34.5855 38.4533 35.0066 38.6135 35.3843 38.6135C35.5651 38.6135 35.8444 38.5764 36.0824 38.4721C36.3085 38.3741 36.4665 38.158 36.4944 37.9067L37.2007 31.2256C37.2144 31.1748 37.2144 31.129 37.2144 31.0846C37.2144 30.7083 36.7498 30.446 36.3332 30.446Z" fill="#E6E6E6"/>
<path d="M40.5743 33.5634C39.8085 33.2539 39.3388 33.0374 39.3388 32.5165C39.3388 31.8697 39.9605 31.7337 40.4819 31.7337C41.0142 31.7337 41.2981 31.8797 41.5265 31.9974C41.672 32.072 41.7975 32.1365 41.9449 32.1365C42.3678 32.1365 42.5935 31.6802 42.5935 31.3506C42.5935 30.6044 41.266 30.4053 40.4819 30.4053C39.2102 30.4053 37.8511 30.9876 37.8511 32.6222C37.8511 34.1118 38.9296 34.5668 39.8808 34.9683C40.6407 35.2887 41.2967 35.5652 41.2967 36.3114C41.2967 37.1614 40.4896 37.253 40.1431 37.253C39.4633 37.253 39.1333 36.9541 38.8678 36.7137C38.6915 36.5535 38.5391 36.4157 38.3304 36.4157C37.9591 36.4157 37.6606 36.8456 37.6606 37.2017C37.6606 37.8783 38.7405 38.635 40.1852 38.635C41.7883 38.635 42.7844 37.6998 42.7844 36.1946C42.784 34.457 41.559 33.9617 40.5743 33.5634Z" fill="#E6E6E6"/>
<path d="M37.5889 5.10735C37.2154 5.10735 36.8748 4.87251 36.7398 4.52461C36.5974 4.15794 36.7141 3.72581 37.025 3.48274C37.6759 2.97324 38.6427 3.56056 38.4811 4.37538C38.3978 4.79561 38.0165 5.10735 37.5889 5.10735Z" fill="#20303F"/>
<path d="M39.4858 7.59893C38.6499 7.59893 38.2627 6.5122 38.9086 5.98439C39.2226 5.7285 39.6785 5.71202 40.0104 5.94411C40.2988 6.14598 40.4457 6.51128 40.3798 6.85689C40.2993 7.28033 39.9189 7.59893 39.4858 7.59893Z" fill="#20303F"/>
<path d="M36.4017 8.07227C35.5874 8.07227 35.1863 7.03406 35.7906 6.4884C36.0914 6.21649 36.5459 6.17804 36.8883 6.3941C37.2033 6.59277 37.3671 6.97455 37.2939 7.34031C37.2097 7.76053 36.8316 8.07227 36.4017 8.07227Z" fill="#20303F"/>
</svg>
