<svg width="50" height="50" viewBox="0 0 50 50" fill="none" xmlns="http://www.w3.org/2000/svg">
<g clip-path="url(#clip0_44_1557)">
<path d="M17.2413 34.9138C26.7634 34.9138 34.4826 27.1946 34.4826 17.6725C34.4826 8.15035 26.7634 0.431152 17.2413 0.431152C7.71919 0.431152 0 8.15035 0 17.6725C0 27.1946 7.71919 34.9138 17.2413 34.9138Z" fill="#F15A24"/>
<path d="M17.4277 32.4017C17.4662 32.8469 17.8385 33.189 18.2855 33.1896C18.3105 33.1909 18.3355 33.1909 18.3605 33.1896C18.8346 33.1485 19.1858 32.731 19.1449 32.2568C18.8136 28.2981 17.1851 24.5594 14.5122 21.6207L17.2415 18.8914L20.0803 21.7301C20.4227 22.0609 20.9685 22.0514 21.2992 21.7089C21.6219 21.3749 21.6219 20.8452 21.2992 20.5112L18.4605 17.6724L21.1992 14.9336C22.2301 15.8709 23.3647 16.6871 24.5811 17.3664C24.9975 17.5977 25.5226 17.4478 25.754 17.0315C25.9853 16.6151 25.8354 16.09 25.419 15.8586C24.3419 15.258 23.3359 14.5378 22.4199 13.7121L30.013 6.12073C29.6268 5.69369 29.2204 5.28744 28.794 4.90177L21.1992 12.5C18.7573 9.79194 17.2921 6.34444 17.0372 2.70695L16.882 0.543169C16.8759 0.511811 16.8676 0.480992 16.857 0.450928C16.2898 0.462997 15.7286 0.500065 15.1751 0.566444C15.1691 0.599203 15.1648 0.632285 15.1622 0.665582L15.3174 2.82937C15.602 6.87946 17.2442 10.7151 19.9786 13.7164L17.2415 16.4534L5.68982 4.90005C5.26224 5.28625 4.85567 5.69315 4.47 6.12073L16.0225 17.6724L13.2924 20.4026C10.2883 17.6693 6.45016 16.0291 2.39846 15.7474L0.234674 15.5931C0.201377 15.5953 0.168295 15.5996 0.135536 15.606C0.0691573 16.1586 0.0320884 16.719 0.0200195 17.2862C0.0502996 17.2965 0.0810106 17.3052 0.112261 17.3121L2.27604 17.4664C5.91267 17.7207 9.35985 19.1839 12.0691 21.6232L4.47 29.2241C4.85621 29.6505 5.26256 30.0568 5.68896 30.443L13.2924 22.8448C15.6765 25.4939 17.1289 28.8502 17.4277 32.4017Z" fill="black"/>
<path d="M19.35 32.3276C17.4465 23.9718 22.677 15.6549 31.0329 13.7514C39.3888 11.8478 47.7056 17.0784 49.6092 25.4343C51.5127 33.7901 46.2821 42.107 37.9262 44.0105C37.359 44.1397 36.785 44.2369 36.2068 44.3017" fill="#E6E6E6"/>
<path d="M49.8911 27.1077C49.6144 24.6571 48.7545 22.3085 47.3833 20.2586C46.9717 19.6528 46.518 19.0767 46.0256 18.5345H44.8273C44.4424 18.5348 44.1043 18.7902 43.9988 19.1603L42.3773 24.8336L39.7411 26.1793L35.3446 23.2483V19.8457L40.1497 16.4836C40.448 16.2748 40.5828 15.9012 40.4868 15.55L40.1894 14.4621C36.5486 13.028 32.5012 13.0179 28.8532 14.4336L28.4929 15.5017C28.3705 15.8643 28.5018 16.2641 28.8153 16.4836L33.6204 19.8457V23.2457L29.2093 26.1862L25.6627 24.7672L24.0765 20.8017C23.9976 20.6056 23.8499 20.4449 23.661 20.35L22.0929 19.569C20.2547 22.0036 19.1818 24.9299 19.011 27.9758C18.9938 28.2775 18.9653 28.5793 18.9653 28.8827C18.9653 29.212 18.9783 29.5387 18.9981 29.8629L20.3041 30.5163C20.636 30.682 21.0368 30.6168 21.2989 30.3543L25.2075 26.4465L28.598 27.8025L30.2058 33.4292C30.3126 33.7981 30.6503 34.0518 31.0342 34.0517H37.5739L39.4704 35.9482L37.1618 40.5654C37.0107 40.8677 37.0502 41.2303 37.2627 41.493L39.0515 43.7068C42.8105 42.5602 45.9878 40.0178 47.9307 36.6016L47.3273 35.3904C47.1805 35.0968 46.8798 34.9119 46.5514 34.9137H40.8739L38.8989 32.9387L40.3644 27.7965L43.042 26.4284L47.7937 29.5965C48.0506 29.7676 48.3793 29.7883 48.6557 29.6508L49.9893 28.9836C49.9893 28.9482 49.9945 28.9146 49.9945 28.8793C49.9936 28.2872 49.9592 27.6959 49.8911 27.1077Z" fill="#1A1A1A"/>
<path d="M3.38603 43.0568L6.1593 45.1361C9.99495 48.0137 14.6608 49.569 19.4558 49.5688H21.923C26.718 49.569 31.3839 48.0137 35.2195 45.1361L37.9928 43.0568C38.7546 42.4856 38.909 41.4048 38.3378 40.643C38.2739 40.5579 38.2023 40.4788 38.1238 40.4068L35.6652 38.1525C31.5776 34.406 26.2342 32.3276 20.6894 32.3275C15.1446 32.3276 9.8012 34.406 5.71361 38.1525L3.255 40.4068C2.55328 41.0504 2.50619 42.141 3.14983 42.8428C3.22181 42.9213 3.3008 42.9929 3.38603 43.0568Z" fill="#FF902A"/>
<path d="M28.4481 41.8103H11.2068C10.7307 41.8103 10.3447 41.4243 10.3447 40.9482C10.3447 40.4722 10.7307 40.0862 11.2068 40.0862H28.4481C28.9242 40.0862 29.3102 40.4722 29.3102 40.9482C29.3102 41.4243 28.9242 41.8103 28.4481 41.8103Z" fill="#42210B"/>
<path d="M12.9309 43.5345C12.4548 43.5345 12.0688 43.1485 12.0688 42.6724V39.2241C12.0688 38.7481 12.4548 38.3621 12.9309 38.3621C13.407 38.3621 13.793 38.7481 13.793 39.2241V42.6724C13.793 43.1485 13.407 43.5345 12.9309 43.5345Z" fill="#42210B"/>
<path d="M16.3792 43.5345C15.9031 43.5345 15.5171 43.1485 15.5171 42.6724V39.2241C15.5171 38.7481 15.9031 38.3621 16.3792 38.3621C16.8552 38.3621 17.2412 38.7481 17.2412 39.2241V42.6724C17.2412 43.1485 16.8552 43.5345 16.3792 43.5345Z" fill="#42210B"/>
<path d="M19.8274 43.5345C19.3513 43.5345 18.9653 43.1485 18.9653 42.6724V39.2241C18.9653 38.7481 19.3513 38.3621 19.8274 38.3621C20.3035 38.3621 20.6895 38.7481 20.6895 39.2241V42.6724C20.6895 43.1485 20.3035 43.5345 19.8274 43.5345Z" fill="#42210B"/>
<path d="M23.2756 43.5345C22.7996 43.5345 22.4136 43.1485 22.4136 42.6724V39.2241C22.4136 38.7481 22.7996 38.3621 23.2756 38.3621C23.7517 38.3621 24.1377 38.7481 24.1377 39.2241V42.6724C24.1377 43.1485 23.7517 43.5345 23.2756 43.5345Z" fill="#42210B"/>
<path d="M26.7239 43.5345C26.2478 43.5345 25.8618 43.1485 25.8618 42.6724V39.2241C25.8618 38.7481 26.2478 38.3621 26.7239 38.3621C27.2 38.3621 27.5859 38.7481 27.5859 39.2241V42.6724C27.5859 43.1485 27.2 43.5345 26.7239 43.5345Z" fill="#42210B"/>
</g>
<defs>
<clipPath id="clip0_44_1557">
<rect width="50" height="50" fill="white"/>
</clipPath>
</defs>
</svg>
