<svg width="40" height="40" viewBox="0 0 40 40" fill="none" xmlns="http://www.w3.org/2000/svg">
<path d="M30.0408 4.25134C29.9646 4.19276 29.8755 4.15314 29.7809 4.13574C29.6863 4.11835 29.589 4.12368 29.4969 4.15129L7.64637 10.3845C7.54345 10.4112 7.4494 10.4646 7.37366 10.5392C7.29793 10.6138 7.2432 10.7071 7.21498 10.8096C7.18549 10.9121 7.18265 11.0205 7.20672 11.1244C7.23079 11.2284 7.28098 11.3244 7.35254 11.4036C10.0066 14.2366 11.8167 17.7546 12.5788 21.561C13.341 25.3675 13.025 29.3112 11.6664 32.9477C10.1784 24.5138 6.10841 19.7874 4.33285 18.0743L8.75297 16.5551C8.90991 16.5008 9.03893 16.3865 9.11176 16.2372C9.18459 16.0879 9.1953 15.9159 9.14154 15.7587C9.08777 15.6016 8.97393 15.4722 8.82493 15.3988C8.67593 15.3254 8.50392 15.3141 8.34658 15.3672L2.91365 17.2366C2.80807 17.275 2.71467 17.3409 2.6431 17.4275C2.57153 17.5141 2.52438 17.6182 2.50654 17.7291C2.4887 17.84 2.50081 17.9537 2.54161 18.0584C2.58242 18.163 2.65044 18.2549 2.73865 18.3245C2.8074 18.3745 9.42819 23.6386 10.7473 35.3047C10.7574 35.4228 10.801 35.5355 10.873 35.6297C10.945 35.7238 11.0424 35.7954 11.1537 35.8361C11.2845 35.8841 11.4278 35.8863 11.5601 35.8423L23.2575 32.1412C22.5094 30.8402 22.2354 29.3202 22.4822 27.8399L16.4241 29.8405C16.2678 29.8874 16.0995 29.8712 15.9549 29.7956C15.8104 29.72 15.7011 29.5908 15.6505 29.4357C15.5999 29.2807 15.612 29.1119 15.6841 28.9656C15.7562 28.8193 15.8827 28.7069 16.0365 28.6526L22.9198 26.377C23.3971 25.3886 24.1331 24.0809 25.2455 23.4635C25.2455 23.4636 26.5959 23.1822 27.0023 24.864C27.0996 25.2922 27.0189 26.0136 27.1774 26.2144C27.27 26.2322 27.3656 26.2263 27.4554 26.1973C27.5451 26.1684 27.6261 26.1173 27.6909 26.0487C27.7557 25.9802 27.8022 25.8964 27.8261 25.8052C27.85 25.714 27.8505 25.6182 27.8276 25.5267C27.763 25.2869 27.6526 25.0618 27.5025 24.864C27.1786 24.0334 27.1175 23.1234 27.3274 22.2569L16.4241 25.858C16.3461 25.8836 16.2637 25.8936 16.1818 25.8874C16.0999 25.8812 16.0201 25.8588 15.9468 25.8217C15.8735 25.7846 15.8083 25.7334 15.7549 25.671C15.7014 25.6086 15.6608 25.5363 15.6353 25.4582C15.6098 25.3802 15.6 25.2978 15.6064 25.2159C15.6127 25.134 15.6352 25.0542 15.6725 24.981C15.7097 24.9078 15.761 24.8427 15.8235 24.7893C15.886 24.736 15.9583 24.6955 16.0364 24.6701L28.0089 20.7127C28.7811 19.4584 32.4389 16.9648 32.9543 19.6685C32.9669 19.9428 32.9042 20.2152 32.7729 20.4563C32.5561 20.8719 32.4917 21.3503 32.5911 21.8083C32.6905 22.2664 32.9473 22.6751 33.3168 22.9634C33.6356 23.1655 33.9276 23.4071 34.1859 23.6824L36.1427 24.0074C36.6788 24.0911 36.9454 24.5491 37.2931 25.0077C38.9373 11.0222 30.1346 4.31385 30.0408 4.25134ZM27.3087 7.46485C27.9402 6.47703 29.2531 6.7396 29.9283 7.04594C30.0754 7.11714 30.1887 7.24306 30.2441 7.39678C30.2996 7.55049 30.2926 7.71979 30.2248 7.86845C30.157 8.01712 30.0337 8.13335 29.8813 8.19228C29.7289 8.25121 29.5595 8.24816 29.4093 8.18378C27.8815 7.55136 28.0216 8.9296 29.4219 8.81523C29.6443 8.80305 29.8669 8.83582 30.0764 8.91156C30.2858 8.98731 30.4779 9.10449 30.6411 9.2561C30.8043 9.40771 30.9353 9.59065 31.0262 9.794C31.1171 9.99734 31.1662 10.2169 31.1704 10.4396C31.1745 10.6623 31.1338 10.8836 31.0506 11.0902C30.9674 11.2969 30.8434 11.4846 30.6861 11.6423C30.5287 11.7999 30.3412 11.9243 30.1347 12.0078C29.9282 12.0914 29.707 12.1326 29.4843 12.1288C28.7013 12.124 27.2456 11.5838 27.8776 10.6658C27.9326 10.605 27.999 10.5556 28.0731 10.5205C28.1471 10.4854 28.2274 10.4652 28.3093 10.4612C28.3912 10.4571 28.4731 10.4692 28.5503 10.4968C28.6275 10.5245 28.6984 10.567 28.7592 10.6221C28.9854 10.8227 29.5817 11.0352 29.847 10.7033C29.885 10.658 29.9121 10.6045 29.9261 10.5471C29.9402 10.4896 29.941 10.4297 29.9283 10.3719C29.897 10.2749 29.8334 10.1916 29.748 10.1358C29.6627 10.0801 29.5608 10.0553 29.4594 10.0656C27.9676 10.2206 26.472 8.93567 27.3087 7.46485ZM21.5569 9.29666C21.6942 9.20448 21.8622 9.16986 22.0247 9.20026C22.1872 9.23067 22.3313 9.32365 22.426 9.45922L23.4325 10.9471V9.37794C23.4328 9.242 23.4774 9.10985 23.5596 9.00157C23.6417 8.89329 23.757 8.8148 23.8879 8.77801C24.0188 8.74123 24.1581 8.74816 24.2846 8.79776C24.4112 8.84736 24.5181 8.93692 24.5891 9.05282L25.2894 10.2032L25.2519 8.60267C25.2486 8.4369 25.3113 8.27663 25.4262 8.15709C25.5411 8.03755 25.6988 7.96854 25.8646 7.96523C26.0303 7.96191 26.1906 8.02457 26.3102 8.13942C26.4298 8.25426 26.4989 8.4119 26.5022 8.57767L26.596 12.4977C26.5964 12.6337 26.5527 12.7661 26.4713 12.875C26.3899 12.984 26.2752 13.0635 26.1447 13.1016C26.0141 13.1397 25.8748 13.1343 25.7475 13.0863C25.6203 13.0382 25.5122 12.9501 25.4394 12.8352L24.6829 11.6036V12.9853C24.6818 13.1179 24.6385 13.2468 24.5593 13.3532C24.48 13.4596 24.3689 13.5379 24.2422 13.5769C24.1154 13.616 23.9794 13.6136 23.8541 13.5701C23.7288 13.5267 23.6205 13.4445 23.545 13.3354L21.3881 10.1656C21.342 10.0976 21.3097 10.021 21.2932 9.94046C21.2767 9.85988 21.2763 9.77683 21.292 9.69609C21.3077 9.61535 21.3392 9.5385 21.3846 9.46995C21.4301 9.40141 21.4887 9.34252 21.5569 9.29666ZM17.7058 10.6408C17.7456 10.565 17.8005 10.4981 17.8672 10.4443C17.9338 10.3906 18.0108 10.351 18.0934 10.3282L20.0689 9.79055C20.2276 9.74832 20.3965 9.77044 20.5389 9.85209C20.6813 9.93375 20.7857 10.0683 20.8293 10.2266C20.873 10.3848 20.8524 10.5539 20.7721 10.697C20.6917 10.8402 20.5581 10.9458 20.4003 10.9909L19.0686 11.3598L19.3 12.0287L20.1502 11.7474C20.2278 11.7212 20.3098 11.7106 20.3915 11.7162C20.4732 11.7219 20.5529 11.7436 20.6262 11.7802C20.6994 11.8168 20.7647 11.8676 20.8182 11.9296C20.8717 11.9915 20.9124 12.0635 20.938 12.1413C20.9898 12.2996 20.9767 12.4721 20.9018 12.6209C20.8268 12.7696 20.6959 12.8827 20.5378 12.9353L19.7064 13.2104L19.9502 13.9106L21.2631 13.4979C21.4198 13.4512 21.5886 13.4679 21.733 13.5445C21.8774 13.6211 21.986 13.7514 22.0352 13.9073C22.0844 14.0632 22.0704 14.2322 21.9961 14.3779C21.9218 14.5235 21.7933 14.6341 21.6382 14.6858C21.5351 14.7083 19.6146 15.3588 19.5563 15.3173C19.4262 15.317 19.2994 15.2757 19.1939 15.1994C19.0885 15.1231 19.0097 15.0156 18.9686 14.8921L17.6683 11.1347C17.6401 11.0543 17.6289 10.9689 17.6354 10.8838C17.6418 10.7988 17.6658 10.7161 17.7058 10.6408ZM14.4485 14.0669L15.3738 16.3488C15.4332 16.5017 15.4301 16.6717 15.3651 16.8223C15.3002 16.9729 15.1786 17.0918 15.0266 17.1534C14.8746 17.215 14.7045 17.2143 14.553 17.1515C14.4016 17.0887 14.2809 16.9688 14.2172 16.8177L12.5042 12.5977C12.4559 12.4735 12.4485 12.3372 12.4829 12.2085C12.5173 12.0798 12.5918 11.9654 12.6955 11.8819C12.7993 11.7983 12.9269 11.7499 13.06 11.7438C13.1931 11.7376 13.3246 11.7739 13.4357 11.8475L16.3553 13.8606L15.5863 11.7099C15.5336 11.5548 15.5441 11.3851 15.6155 11.2376C15.6868 11.0901 15.8134 10.9766 15.9677 10.9216C16.1221 10.8666 16.2919 10.8745 16.4404 10.9436C16.589 11.0128 16.7044 11.1376 16.7617 11.2911L18.1871 15.2673C18.2296 15.3916 18.232 15.5262 18.194 15.652C18.156 15.7778 18.0795 15.8885 17.9753 15.9686C17.8711 16.0486 17.7444 16.094 17.613 16.0983C17.4817 16.1026 17.3523 16.0656 17.2431 15.9925L14.4485 14.0669ZM33.5669 16.2176L16.4241 21.8818C16.3613 21.9013 16.296 21.9118 16.2303 21.9131C16.0831 21.9103 15.9416 21.8559 15.8305 21.7593C15.7194 21.6627 15.6459 21.53 15.6228 21.3846C15.5996 21.2392 15.6284 21.0904 15.7041 20.9641C15.7798 20.8378 15.8974 20.7421 16.0365 20.6939L33.1731 15.0297C33.3296 14.9812 33.4988 14.9961 33.6445 15.071C33.7902 15.146 33.9007 15.2751 33.9522 15.4306C34.0038 15.5861 33.9923 15.7556 33.9203 15.9028C33.8482 16.0499 33.7214 16.1629 33.5669 16.2176Z" fill="black" fill-opacity="0.5"/>
<path d="M35.9926 25.3703C35.8425 25.2117 35.8202 25.1272 35.7238 25.1702C35.7112 25.1776 35.7018 25.1893 35.6972 25.2031C35.6926 25.2169 35.6931 25.2319 35.6987 25.2453C36.2716 26.5639 35.1076 27.7091 34.1857 28.0461C34.245 27.8165 34.2848 27.5823 34.3045 27.3459C34.3436 26.7836 34.2515 26.2198 34.0356 25.6991C33.8197 25.1783 33.4859 24.7148 33.0604 24.345C32.6631 24.0655 32.2983 23.7426 31.9726 23.3822C31.0119 22.325 31.2757 20.6053 31.6976 19.7998C31.7031 19.7879 31.7051 19.7747 31.7033 19.7617C31.7014 19.7487 31.6959 19.7365 31.6873 19.7266C31.6787 19.7166 31.6674 19.7094 31.6548 19.7058C31.6422 19.7021 31.6288 19.7022 31.6162 19.7061C29.4738 20.2724 28.7286 21.1352 28.2651 22.4819C28.1686 22.8234 28.1604 23.1839 28.2414 23.5294C28.3223 23.875 28.4897 24.1944 28.7279 24.4575C28.9758 24.8097 29.103 25.2326 29.0906 25.6631C29.0782 26.0936 28.9268 26.5085 28.659 26.8458C28.0964 27.541 26.8212 27.7492 26.2145 27.0083C25.9011 26.5477 25.7353 26.0025 25.7394 25.4453C25.697 24.9559 25.815 24.7134 25.7207 24.6388C24.9209 25.2788 24.3156 26.1294 23.9732 27.0948C23.6307 28.0602 23.5647 29.102 23.7825 30.103C25.0599 35.2751 32.4971 36.2753 35.7113 31.5285C37.2533 29.2108 37.2544 26.9213 35.9926 25.3703Z" fill="black" fill-opacity="0.5"/>
</svg>
