<svg width="60" height="60" viewBox="0 0 60 60" fill="none" xmlns="http://www.w3.org/2000/svg">
<path d="M25.3125 1.17188L22.9688 9.61055V9.61113C22.1402 9.89684 21.3346 10.2314 20.5552 10.6118L20.5547 10.6113L12.9305 6.30117L6.30117 12.9305L10.6113 20.5547L10.6118 20.5552C10.2314 21.3346 9.89684 22.1402 9.61113 22.9688H9.61055L1.17188 25.3125V34.6875L9.61055 37.0312H9.61113C9.89684 37.8598 10.2314 38.6654 10.6118 39.4448L10.6113 39.4453L6.30117 47.0695L12.9305 53.6988L20.5547 49.3887L20.5552 49.3882C21.3346 49.7686 22.1402 50.1032 22.9688 50.3889V50.3895L25.3125 58.8281H30V51.5625V39.9434V39.375C24.8223 39.375 20.625 35.1777 20.625 30C20.625 24.8223 24.8223 20.625 30 20.625V20.0566V8.4375V1.17188H25.3125Z" fill="#6E83B7"/>
<path d="M30 20.625C24.8223 20.625 20.625 24.8223 20.625 30C20.625 35.1777 24.8223 39.375 30 39.375V47.5781C20.2918 47.5781 12.4219 39.7082 12.4219 30C12.4219 20.2918 20.2918 12.4219 30 12.4219V20.625Z" fill="#466089"/>
<path d="M44.6482 22.5H34.7471V21.3281H43.4764V8.4375H44.6482V22.5Z" fill="#80D6FB"/>
<path d="M44.0625 11.9531C46.0041 11.9531 47.5781 10.3791 47.5781 8.4375C47.5781 6.49587 46.0041 4.92188 44.0625 4.92188C42.1209 4.92188 40.5469 6.49587 40.5469 8.4375C40.5469 10.3791 42.1209 11.9531 44.0625 11.9531Z" fill="#6E83B7"/>
<path d="M44.2811 26.543H38.4565V25.3711H43.8438L51.1785 19.0104L51.9463 19.8958L44.2811 26.543Z" fill="#80D6FB"/>
<path d="M51.5625 22.9688C53.5041 22.9688 55.0781 21.3948 55.0781 19.4531C55.0781 17.5115 53.5041 15.9375 51.5625 15.9375C49.6209 15.9375 48.0469 17.5115 48.0469 19.4531C48.0469 21.3948 49.6209 22.9688 51.5625 22.9688Z" fill="#6E83B7"/>
<path d="M39.375 29.4141H55.3125V30.5859H39.375V29.4141Z" fill="#80D6FB"/>
<path d="M55.3125 33.5156C57.2541 33.5156 58.8281 31.9416 58.8281 30C58.8281 28.0584 57.2541 26.4844 55.3125 26.4844C53.3709 26.4844 51.7969 28.0584 51.7969 30C51.7969 31.9416 53.3709 33.5156 55.3125 33.5156Z" fill="#6E83B7"/>
<path d="M44.6482 51.5625H43.4764V38.6719H34.7471V37.5H44.6482V51.5625Z" fill="#80D6FB"/>
<path d="M44.0625 55.0781C46.0041 55.0781 47.5781 53.5041 47.5781 51.5625C47.5781 49.6209 46.0041 48.0469 44.0625 48.0469C42.1209 48.0469 40.5469 49.6209 40.5469 51.5625C40.5469 53.5041 42.1209 55.0781 44.0625 55.0781Z" fill="#6E83B7"/>
<path d="M51.1785 40.9896L43.8438 34.6289H38.4565V33.457H44.2811L51.9463 40.1041L51.1785 40.9896Z" fill="#80D6FB"/>
<path d="M51.5625 44.0625C53.5041 44.0625 55.0781 42.4885 55.0781 40.5469C55.0781 38.6052 53.5041 37.0312 51.5625 37.0312C49.6209 37.0312 48.0469 38.6052 48.0469 40.5469C48.0469 42.4885 49.6209 44.0625 51.5625 44.0625Z" fill="#6E83B7"/>
<path d="M39.9609 30C39.9609 27.2665 38.8535 24.787 37.0645 22.9854L37.0834 22.9688H37.0486C35.2443 21.16 32.7506 20.0391 30 20.0391C27.2494 20.0391 24.7557 21.16 22.9514 22.9688H22.9166L22.9355 22.9854C21.1465 24.787 20.0391 27.2665 20.0391 30C20.0391 32.7335 21.1465 35.213 22.9355 37.0146L22.9166 37.0312H22.9514C24.7557 38.84 27.2494 39.9609 30 39.9609C32.7506 39.9609 35.2443 38.84 37.0486 37.0312H37.0834L37.0645 37.0146C38.8535 35.213 39.9609 32.7335 39.9609 30ZM38.7674 29.4141H35.263C35.2133 27.7232 34.9516 26.1564 34.5234 24.8078C35.1033 24.5115 35.6564 24.1591 36.1727 23.7507C37.6566 25.2165 38.621 27.2051 38.7674 29.4141ZM29.4141 29.4141H25.9089C25.9579 27.9116 26.1922 26.4991 26.5623 25.2831C27.4733 25.6189 28.4334 25.8206 29.4141 25.879V29.4141ZM29.4141 30.5859V34.1211C28.4334 34.1795 27.4733 34.3812 26.5623 34.717C26.1922 33.501 25.9579 32.0885 25.9089 30.5861H29.4141V30.5859ZM30.5859 30.5859H34.0911C34.0421 32.0884 33.8078 33.5009 33.4377 34.7169C32.5267 34.3811 31.5666 34.1794 30.5859 34.121V30.5859ZM30.5859 29.4141V25.8789C31.5666 25.8205 32.5267 25.6188 33.4377 25.283C33.8078 26.499 34.0421 27.9115 34.0911 29.4139H30.5859V29.4141ZM35.2687 22.9699C34.902 23.2451 34.5156 23.4892 34.114 23.7023C33.7902 22.9437 33.4083 22.2792 32.979 21.7328C33.8065 22.032 34.5773 22.4504 35.2687 22.9699ZM33.0437 24.1812C32.2582 24.4716 31.4309 24.648 30.5859 24.7048V21.3056C31.5473 21.6156 32.4123 22.672 33.0437 24.1812ZM29.4141 21.3056V24.7048C28.5691 24.648 27.7419 24.4716 26.9563 24.1812C27.5877 22.672 28.4527 21.6156 29.4141 21.3056ZM27.021 21.7328C26.5917 22.2792 26.2098 22.9437 25.886 23.7023C25.4844 23.4893 25.098 23.2451 24.7312 22.9699C25.4227 22.4504 26.1935 22.032 27.021 21.7328ZM23.8273 23.7509C24.3436 24.1593 24.8968 24.5116 25.4766 24.8079C25.0484 26.1564 24.7867 27.7232 24.737 29.4142H21.2326C21.379 27.2051 22.3434 25.2165 23.8273 23.7509ZM21.2326 30.5859H24.737C24.7867 32.2768 25.0484 33.8436 25.4766 35.1922C24.8968 35.4885 24.3436 35.8409 23.8273 36.2493C22.3434 34.7835 21.379 32.7949 21.2326 30.5859ZM24.7312 37.0301C25.098 36.7549 25.4844 36.5108 25.886 36.2977C26.2098 37.0563 26.5917 37.7208 27.021 38.2672C26.1935 37.968 25.4227 37.5496 24.7312 37.0301ZM26.9563 35.8188C27.7418 35.5284 28.5691 35.352 29.4141 35.2952V38.6944C28.4527 38.3844 27.5877 37.328 26.9563 35.8188ZM30.5859 38.6944V35.2952C31.4309 35.352 32.2581 35.5284 33.0437 35.8188C32.4123 37.328 31.5473 38.3844 30.5859 38.6944ZM32.979 38.2672C33.4083 37.7208 33.7902 37.0563 34.114 36.2977C34.5156 36.5107 34.902 36.7549 35.2687 37.0301C34.5773 37.5496 33.8065 37.968 32.979 38.2672ZM36.1727 36.2491C35.6564 35.8407 35.1032 35.4884 34.5234 35.1921C34.9516 33.8436 35.2133 32.2768 35.263 30.5858H38.7674C38.621 32.7949 37.6566 34.7835 36.1727 36.2491Z" fill="#80D6FB"/>
</svg>
