<svg width="40" height="40" viewBox="0 0 40 40" fill="none" xmlns="http://www.w3.org/2000/svg">
<g clip-path="url(#clip0_29_1688)">
<path d="M20.0001 38.5068C17.0862 38.5068 14.3235 38.0088 12.6166 37.2102L11.5952 38.2316C13.4779 39.2572 16.6097 39.8861 20.0001 39.8861C23.3905 39.8861 26.5221 39.2571 28.4049 38.2316L27.3835 37.2102C25.6766 38.0089 22.9139 38.5068 20.0001 38.5068Z" fill="white"/>
<path d="M27.5864 19.8862C27.5864 15.7035 24.183 12.3 20.0002 12.3C15.8175 12.3 12.4141 15.7035 12.4141 19.8862C12.4141 24.069 15.8175 27.4724 20.0002 27.4724C24.183 27.4724 27.5864 24.069 27.5864 19.8862ZM20.0002 13.6793C23.423 13.6793 26.2071 16.4635 26.2071 19.8862H24.8278C24.8278 17.2248 22.6616 15.0586 20.0002 15.0586V13.6793ZM20.0002 21.9552C20.3809 21.9552 20.6899 22.2642 20.6899 22.6449C20.6899 23.0256 20.3809 23.3346 20.0002 23.3346C19.6195 23.3346 19.3105 23.0256 19.3105 22.6449C19.3105 22.2642 19.6195 21.9552 20.0002 21.9552ZM17.2416 19.1966C17.6223 19.1966 17.9313 19.5056 17.9313 19.8863C17.9313 20.267 17.6223 20.576 17.2416 20.576C16.8609 20.576 16.552 20.267 16.552 19.8863C16.552 19.5056 16.8609 19.1966 17.2416 19.1966ZM13.7934 19.8862C13.7934 19.5055 14.1023 19.1965 14.483 19.1965C14.8638 19.1965 15.1727 19.5055 15.1727 19.8862C15.1727 20.2669 14.8638 20.5759 14.483 20.5759C14.1023 20.5759 13.7934 20.2676 13.7934 19.8862ZM15.1671 22.6352C14.8154 22.7808 14.412 22.6138 14.2657 22.2621C14.1202 21.9104 14.2871 21.5069 14.6388 21.3607C14.9905 21.2151 15.394 21.3821 15.5402 21.7338C15.6864 22.0856 15.5188 22.489 15.1671 22.6352ZM16.5864 24.2752C16.3167 24.5449 15.8802 24.5449 15.6112 24.2752C15.3416 24.0055 15.3416 23.569 15.6112 23.3C15.8809 23.0304 16.3174 23.0304 16.5864 23.3C16.8561 23.5697 16.8561 24.0062 16.5864 24.2752ZM18.5258 25.2476C18.3802 25.5993 17.9768 25.7669 17.6244 25.6208C17.2727 25.4752 17.1051 25.0718 17.2513 24.7193C17.3968 24.3676 17.8002 24.2 18.1527 24.3462C18.5044 24.4925 18.672 24.8959 18.5258 25.2476ZM18.5375 22.3249C18.2678 22.5946 17.8313 22.5946 17.5623 22.3249C17.2927 22.0552 17.2927 21.6187 17.5623 21.3497C17.832 21.08 18.2685 21.08 18.5375 21.3497C18.8064 21.6186 18.8064 22.0552 18.5375 22.3249ZM19.3105 25.4035C19.3105 25.0228 19.6195 24.7138 20.0002 24.7138C20.3809 24.7138 20.6899 25.0228 20.6899 25.4035C20.6899 25.7842 20.3809 26.0932 20.0002 26.0932C19.6195 26.0932 19.3105 25.7849 19.3105 25.4035Z" fill="white"/>
<path d="M3.47586 30.4875L0.621406 33.3421C0.226172 33.7372 0 34.2841 0 34.8434C0 35.5848 0.395156 36.282 1.03102 36.6641L3.73789 38.289L7.32344 33.9069L3.47586 30.4875Z" fill="white"/>
<path d="M14.1874 31.5L11.0626 34.6248C10.3316 35.3552 9.18117 35.4207 8.36602 34.8104L4.93359 39.0055L5.85086 39.5559C6.73703 40.0876 7.935 39.9407 8.66602 39.2097L15.3336 32.5421C14.9405 32.2055 14.5605 31.8566 14.1874 31.5Z" fill="white"/>
<path d="M19.9998 10.9205C21.7191 10.9205 23.3218 11.4157 24.6881 12.2585L25.8246 8.08882L22.6219 9.69022L19.9998 7.06812L17.3771 9.69085L14.1743 8.08944L15.3109 12.2591C16.6778 11.4157 18.2805 10.9205 19.9998 10.9205Z" fill="white"/>
<path d="M4.85494 10.5434L1.11775 6.80615C0.84877 6.85717 0.601894 6.98756 0.403926 7.18545C0.205957 7.38342 0.0756445 7.631 0.0239258 7.89928L5.0115 12.8869C4.92877 12.111 4.87635 11.3297 4.85494 10.5434Z" fill="white"/>
<path d="M28.9374 34.6256L25.8125 31.5007C25.4394 31.8573 25.0587 32.2056 24.667 32.5435L31.3339 39.211C32.0642 39.9414 33.2621 40.0876 34.149 39.5572L35.0663 39.0069L31.6339 34.8117C30.8208 35.4214 29.6698 35.3573 28.9374 34.6256Z" fill="white"/>
<path d="M39.3788 33.342L36.5243 30.4875L32.6768 33.9068L36.2623 38.2889L38.9699 36.664C39.6057 36.282 40.0002 35.5847 40.0002 34.8433C40.0002 34.284 39.774 33.7372 39.3788 33.342Z" fill="white"/>
<path d="M39.5957 7.18545C39.3984 6.98748 39.1501 6.85717 38.8818 6.80615L35.1446 10.5434C35.1225 11.3296 35.0707 12.1117 34.9873 12.8876L39.9749 7.89928C39.9246 7.63021 39.7936 7.38334 39.5957 7.18545Z" fill="white"/>
<path d="M20.0002 34.2551C28.5195 29.071 33.7933 19.7096 33.7933 9.72338V5.4365H33.3195C28.7139 5.4365 24.0056 3.55033 20.0002 0.11377C15.9946 3.55025 11.2863 5.4365 6.68086 5.4365H6.20703V9.72338C6.20703 19.7096 11.4809 29.071 20.0002 34.2551ZM11.0346 19.8861C11.0346 17.1923 12.2346 14.7785 14.1208 13.1337L12.0318 5.47572L17.1049 8.01229L20.0002 5.11791L22.8946 8.01236L27.9677 5.4758L25.8787 13.1338C27.7656 14.7786 28.9656 17.1924 28.9656 19.8862C28.9656 24.8296 24.9436 28.8517 20.0001 28.8517C15.0566 28.8517 11.0346 24.8296 11.0346 19.8861Z" fill="white"/>
</g>
<defs>
<clipPath id="clip0_29_1688">
<rect width="40" height="40" fill="white"/>
</clipPath>
</defs>
</svg>
