<svg width="60" height="60" viewBox="0 0 60 60" fill="none" xmlns="http://www.w3.org/2000/svg">
<g clip-path="url(#clip0_44_1624)">
<g clip-path="url(#clip1_44_1624)">
<path d="M31.7183 58.6871C47.3379 58.6871 60.0001 46.0249 60.0001 30.4053C60.0001 14.7857 47.3379 2.12354 31.7183 2.12354C16.0987 2.12354 3.43652 14.7857 3.43652 30.4053C3.43652 46.0249 16.0987 58.6871 31.7183 58.6871Z" fill="url(#paint0_linear_44_1624)"/>
<path d="M51.632 15.5298C50.6615 14.817 49.6326 14.1631 48.5542 13.5693C47.9603 12.4909 47.3066 11.4619 46.5936 10.4915C42.6349 5.1024 37.3519 2.13452 31.7181 2.13452C26.0842 2.13452 20.8013 5.1024 16.8426 10.4915C16.1296 11.4619 15.4759 12.491 14.8821 13.5693C13.8036 14.1631 12.7747 14.8169 11.8042 15.5298C6.41515 19.4886 3.44727 24.7715 3.44727 30.4053C3.44727 36.0392 6.41515 41.3222 11.8042 45.2809C12.7747 45.9938 13.8037 46.6476 14.8821 47.2413C15.4759 48.3197 16.1296 49.3488 16.8426 50.3192C20.8014 55.7083 26.0842 58.6762 31.7181 58.6762C37.3519 58.6762 42.6349 55.7083 46.5936 50.3192C47.3066 49.3488 47.9603 48.3197 48.5542 47.2412C49.6326 46.6475 50.6616 45.9937 51.632 45.2808C57.021 41.322 59.9889 36.0391 59.9889 30.4052C59.9889 24.7713 57.021 19.4886 51.632 15.5298ZM31.7181 57.3453C30.1655 57.3453 28.5199 55.0325 27.2188 51.0862C28.6934 51.2596 30.1964 51.3495 31.7181 51.3495C33.2397 51.3495 34.7428 51.2596 36.2174 51.0862C34.9163 55.0326 33.2707 57.3453 31.7181 57.3453ZM31.7181 50.0186C30.036 50.0186 28.3899 49.9048 26.7922 49.6889C25.9056 46.5539 25.2619 42.7906 24.8935 38.6819C27.0989 38.8396 29.387 38.9209 31.7181 38.9209C34.0492 38.9209 36.3373 38.8396 38.5427 38.6819C38.1744 42.7906 37.5307 46.5538 36.6441 49.6889C35.0464 49.9048 33.4003 50.0186 31.7181 50.0186ZM31.7181 3.46546C33.2707 3.46546 34.9163 5.77829 36.2174 9.72464C34.7428 9.55111 33.2397 9.46123 31.7181 9.46123C30.1964 9.46123 28.6934 9.55111 27.2188 9.72464C28.5199 5.77817 30.1655 3.46546 31.7181 3.46546ZM31.7181 10.7922C33.4003 10.7922 35.0464 10.9061 36.6441 11.1219C37.5307 14.257 38.1744 18.0202 38.5427 22.1289C36.3373 21.9712 34.0492 21.8899 31.7181 21.8899C29.387 21.8899 27.099 21.9712 24.8935 22.1289C25.2617 18.0202 25.9055 14.257 26.7922 11.1219C28.3899 10.9061 30.036 10.7922 31.7181 10.7922ZM24.5334 30.4053C24.5334 28.0324 24.6189 25.707 24.7839 23.4711C27.0197 23.3062 29.345 23.2206 31.7181 23.2206C34.091 23.2206 36.4164 23.3062 38.6523 23.4711C38.8173 25.707 38.9028 28.0323 38.9028 30.4053C38.9028 32.7784 38.8173 35.1037 38.6523 37.3395C36.4164 37.5044 34.091 37.5899 31.7181 37.5899C29.3451 37.5899 27.0197 37.5044 24.7839 37.3395C24.6189 35.1038 24.5334 32.7784 24.5334 30.4053ZM23.4415 37.2299C19.3328 36.8617 15.5695 36.2179 12.4346 35.3312C12.2188 33.7336 12.1048 32.0875 12.1048 30.4053C12.1048 28.7232 12.2187 27.0771 12.4346 25.4795C15.5695 24.5929 19.3328 23.9491 23.4415 23.5808C23.2839 25.7862 23.2026 28.0743 23.2026 30.4053C23.2026 32.7364 23.2837 35.0245 23.4415 37.2299ZM39.9948 23.5809C44.1035 23.9491 47.8667 24.5929 51.0017 25.4796C51.2175 27.0772 51.3315 28.7233 51.3315 30.4055C51.3315 32.0876 51.2176 33.7337 51.0017 35.3313C47.8667 36.2181 44.1035 36.8617 39.9948 37.23C40.1524 35.0246 40.2337 32.7365 40.2337 30.4055C40.2337 28.0743 40.1524 25.7863 39.9948 23.5809ZM39.8881 22.2355C39.5376 18.2082 38.9267 14.4945 38.0857 11.3471C41.5563 11.9618 44.7657 13.067 47.5675 14.5561C49.0566 17.3578 50.1617 20.5671 50.7764 24.0377C47.629 23.1969 43.9154 22.5859 39.8881 22.2355ZM23.5481 22.2355C19.5208 22.5859 15.8071 23.1969 12.6597 24.0377C13.2744 20.5671 14.3796 17.3578 15.8687 14.5561C18.6704 13.067 21.8797 11.9618 25.3503 11.3471C24.5095 14.4945 23.8987 18.2082 23.5481 22.2355ZM11.0373 34.9046C7.09091 33.6036 4.77809 31.9579 4.77809 30.4053C4.77809 28.8528 7.0908 27.2071 11.0373 25.9061C10.8639 27.3806 10.7739 28.8837 10.7739 30.4053C10.7739 31.927 10.8639 33.43 11.0373 34.9046ZM23.5481 38.5753C23.8986 42.6026 24.5095 46.3163 25.3503 49.4637C21.8797 48.849 18.6704 47.7438 15.8687 46.2548C14.3796 43.453 13.2744 40.2437 12.6597 36.7731C15.8073 37.6139 19.5209 38.2249 23.5481 38.5753ZM39.8881 38.5753C43.9154 38.2249 47.629 37.6139 50.7764 36.7731C50.1617 40.2437 49.0566 43.453 47.5675 46.2548C44.7657 47.7439 41.5564 48.849 38.0857 49.4637C38.9267 46.3163 39.5376 42.6025 39.8881 38.5753ZM52.3989 25.9062C56.3453 27.2072 58.658 28.8528 58.658 30.4055C58.658 31.9581 56.3453 33.6037 52.3989 34.9048C52.5723 33.4302 52.6622 31.9271 52.6622 30.4055C52.6623 28.8837 52.5724 27.3808 52.3989 25.9062ZM58.3437 27.4082C57.0415 26.2977 54.9773 25.2995 52.198 24.4453C51.714 21.3809 50.8573 18.4613 49.6581 15.7872C54.2084 18.7502 57.373 22.819 58.3437 27.4082ZM46.3364 12.4655C43.6623 11.2663 40.7427 10.4096 37.6782 9.92546C36.8241 7.14605 35.8259 5.08182 34.7154 3.77958C39.3046 4.7504 43.3734 7.91499 46.3364 12.4655ZM28.7209 3.7797C27.6104 5.08193 26.6122 7.14617 25.7581 9.92558C22.6936 10.4096 19.774 11.2663 17.0999 12.4655C20.0628 7.91499 24.1316 4.7504 28.7209 3.7797ZM13.7781 15.7871C12.579 18.4612 11.7222 21.3809 11.2382 24.4453C8.4588 25.2995 6.39456 26.2977 5.09232 27.4082C6.06303 22.819 9.22774 18.7502 13.7781 15.7871ZM5.09232 33.4026C6.39456 34.5131 8.4588 35.5113 11.2382 36.3655C11.7222 39.4299 12.579 42.3496 13.7781 45.0237C9.22774 42.0606 6.06303 37.9918 5.09232 33.4026ZM17.0997 48.3453C19.7739 49.5445 22.6935 50.4012 25.758 50.8852C26.6121 53.6646 27.6103 55.7289 28.7208 57.0311C24.1316 56.0604 20.0628 52.8957 17.0997 48.3453ZM34.7153 57.0311C35.8257 55.7289 36.824 53.6646 37.6781 50.8852C40.7426 50.4012 43.6622 49.5444 46.3363 48.3453C43.3734 52.8957 39.3046 56.0604 34.7153 57.0311ZM49.6581 45.0237C50.8573 42.3496 51.714 39.4299 52.198 36.3656C54.9774 35.5115 57.0416 34.5132 58.3437 33.4028C57.373 37.9918 54.2084 42.0606 49.6581 45.0237Z" fill="url(#paint1_linear_44_1624)"/>
<path d="M21.9915 3.84156C14.9105 6.43521 9.15643 11.7796 6.02172 18.5804C5.65019 19.3864 5.46631 20.2662 5.46631 21.1537C5.46631 22.8067 6.12301 24.392 7.29184 25.561L7.86984 26.139C10.4602 28.7293 13.9734 30.1845 17.6367 30.1845C18.184 30.1845 18.6276 29.7409 18.6276 29.1937C18.6276 28.6464 18.184 28.2027 17.6367 28.2027H14.5907C13.1858 28.2027 12.0469 27.0639 12.0469 25.659C12.0469 24.2542 13.1857 23.1152 14.5907 23.1152H16.9697C19.8224 23.1152 22.5583 21.982 24.5754 19.9649L28.2487 16.2916C29.0485 15.4917 30.1335 15.0423 31.2647 15.0423C32.9011 15.0423 34.3933 14.106 35.1051 12.6325C35.9776 10.8266 34.662 8.7298 32.6564 8.7298H27.917C26.5236 8.7298 25.394 7.60027 25.394 6.20674C25.3938 4.44838 23.6428 3.23674 21.9915 3.84156Z" fill="url(#paint2_linear_44_1624)"/>
<path d="M59.3414 24.3116C58.9508 22.5332 57.3606 21.2753 55.5399 21.2753H51.553H49.4219C45.7996 21.2753 42.8633 24.2116 42.8633 27.8339V28.6319C42.8633 31.8134 45.4425 34.3926 48.624 34.3926C50.2416 34.3926 51.553 35.704 51.553 37.3216V44.9703C51.553 46.9635 54.141 47.7575 55.2487 46.1004C57.5506 42.6569 59.1165 38.679 59.7215 34.3926C59.9045 33.0904 59.9999 31.7584 59.9999 30.4054C59.9998 28.3129 59.7723 26.2742 59.3414 24.3116Z" fill="url(#paint3_linear_44_1624)"/>
<path d="M44.3693 5.1062C46.2768 8.91314 47.352 13.2095 47.352 17.7575C47.352 33.377 34.6899 46.0393 19.0702 46.0393C14.5222 46.0393 10.2259 44.9641 6.41895 43.0566C11.0625 52.3241 20.6465 58.687 31.718 58.687C47.3375 58.687 59.9998 46.0249 59.9998 30.4053C59.9998 19.3337 53.6368 9.74973 44.3693 5.1062Z" fill="url(#paint4_linear_44_1624)"/>
<path d="M45.9923 18.7187C44.5743 17.3007 41.0493 18.4734 34.3387 24.7412L30.4172 24.2579L29.1504 22.9509C28.4733 22.2739 27.3757 22.2739 26.6986 22.9509C26.5367 23.1128 26.4153 23.2992 26.3313 23.4977L25.3227 22.483C24.6457 21.806 23.548 21.806 22.871 22.483C22.6445 22.7095 22.4957 22.9834 22.4206 23.2725L20.9039 23.0855C20.5423 23.0409 20.1272 23.2063 19.8136 23.5201L17.2176 26.1161C16.9436 26.3901 16.9449 26.7848 17.2203 26.9034L25.0327 34.5379C22.7551 37.1875 20.674 39.8076 19.0763 42.0656L15.1871 41.5378C15.0309 41.5166 14.8504 41.5875 14.7142 41.7238L13.5026 42.9353C13.2687 43.1692 13.2478 43.5047 13.4587 43.6402L16.3796 46.4745C15.8892 47.547 15.754 48.3069 16.0791 48.632L25.4322 57.985C27.4538 58.4439 29.5573 58.6872 31.7179 58.6872C46.5858 58.6872 58.7734 47.2142 59.9122 32.6387L45.9923 18.7187Z" fill="url(#paint5_linear_44_1624)"/>
<path d="M24.0969 25.4425C25.0544 25.4425 25.8306 24.6663 25.8306 23.7089C25.8306 22.7514 25.0544 21.9752 24.0969 21.9752C23.1395 21.9752 22.3633 22.7514 22.3633 23.7089C22.3633 24.6663 23.1395 25.4425 24.0969 25.4425Z" fill="url(#paint6_linear_44_1624)"/>
<path d="M24.0973 25.1557C24.8965 25.1557 25.5443 24.5079 25.5443 23.7088C25.5443 22.9097 24.8965 22.2618 24.0973 22.2618C23.2982 22.2618 22.6504 22.9097 22.6504 23.7088C22.6504 24.5079 23.2982 25.1557 24.0973 25.1557Z" fill="url(#paint7_linear_44_1624)"/>
<path d="M25.7418 23.1605C25.6594 23.4082 25.5198 23.641 25.3227 23.8382C24.6457 24.5152 23.548 24.5152 22.871 23.8382C22.6738 23.641 22.5343 23.4082 22.4519 23.1605C22.2514 23.7635 22.3911 24.4548 22.871 24.9346C23.548 25.6117 24.6457 25.6117 25.3227 24.9346C25.8026 24.4548 25.9423 23.7636 25.7418 23.1605Z" fill="url(#paint8_linear_44_1624)"/>
<path d="M24.0969 25.4425C25.0544 25.4425 25.8306 24.6663 25.8306 23.7089C25.8306 22.7514 25.0544 21.9752 24.0969 21.9752C23.1395 21.9752 22.3633 22.7514 22.3633 23.7089C22.3633 24.6663 23.1395 25.4425 24.0969 25.4425Z" fill="url(#paint9_linear_44_1624)"/>
<path d="M29.1505 25.4026C28.4734 26.0796 27.3758 26.0796 26.6987 25.4026C26.0217 24.7255 26.0217 23.6278 26.6987 22.9508C27.3758 22.2737 28.4734 22.2737 29.1505 22.9508C29.8274 23.6278 29.8274 24.7256 29.1505 25.4026Z" fill="url(#paint10_linear_44_1624)"/>
<path d="M27.9245 25.6237C28.7236 25.6237 29.3714 24.9759 29.3714 24.1768C29.3714 23.3777 28.7236 22.7299 27.9245 22.7299C27.1254 22.7299 26.4775 23.3777 26.4775 24.1768C26.4775 24.9759 27.1254 25.6237 27.9245 25.6237Z" fill="url(#paint11_linear_44_1624)"/>
<path d="M29.5694 23.6285C29.4871 23.8762 29.3474 24.109 29.1504 24.3062C28.4733 24.9832 27.3757 24.9832 26.6986 24.3062C26.5014 24.109 26.3619 23.8762 26.2795 23.6285C26.0791 24.2315 26.2187 24.9228 26.6986 25.4027C27.3757 26.0797 28.4733 26.0797 29.1504 25.4027C29.6302 24.9227 29.7699 24.2315 29.5694 23.6285Z" fill="url(#paint12_linear_44_1624)"/>
<path d="M29.1505 25.4026C28.4734 26.0796 27.3758 26.0796 26.6987 25.4026C26.0217 24.7255 26.0217 23.6278 26.6987 22.9508C27.3758 22.2737 28.4734 22.2737 29.1505 22.9508C29.8274 23.6278 29.8274 24.7256 29.1505 25.4026Z" fill="url(#paint13_linear_44_1624)"/>
<path d="M41.0022 42.3479C41.9597 42.3479 42.7359 41.5717 42.7359 40.6143C42.7359 39.6568 41.9597 38.8806 41.0022 38.8806C40.0447 38.8806 39.2686 39.6568 39.2686 40.6143C39.2686 41.5717 40.0447 42.3479 41.0022 42.3479Z" fill="url(#paint14_linear_44_1624)"/>
<path d="M41.0021 42.0611C41.8012 42.0611 42.4491 41.4133 42.4491 40.6142C42.4491 39.8151 41.8012 39.1672 41.0021 39.1672C40.203 39.1672 39.5552 39.8151 39.5552 40.6142C39.5552 41.4133 40.203 42.0611 41.0021 42.0611Z" fill="url(#paint15_linear_44_1624)"/>
<path d="M41.5505 38.9692C41.3028 39.0515 41.07 39.1912 40.8728 39.3882C40.1958 40.0653 40.1958 41.1629 40.8728 41.84C41.07 42.0372 41.3028 42.1767 41.5505 42.2591C40.9475 42.4595 40.2562 42.3199 39.7763 41.84C39.0993 41.1629 39.0993 40.0653 39.7763 39.3882C40.2562 38.9084 40.9474 38.7688 41.5505 38.9692Z" fill="url(#paint16_linear_44_1624)"/>
<path d="M41.0022 42.3479C41.9597 42.3479 42.7359 41.5717 42.7359 40.6143C42.7359 39.6568 41.9597 38.8806 41.0022 38.8806C40.0447 38.8806 39.2686 39.6568 39.2686 40.6143C39.2686 41.5717 40.0447 42.3479 41.0022 42.3479Z" fill="url(#paint17_linear_44_1624)"/>
<path d="M39.3086 35.5607C38.6315 36.2377 38.6315 37.3354 39.3086 38.0124C39.9856 38.6895 41.0833 38.6895 41.7603 38.0124C42.4374 37.3354 42.4374 36.2377 41.7603 35.5607C41.0833 34.8836 39.9856 34.8836 39.3086 35.5607Z" fill="url(#paint18_linear_44_1624)"/>
<path d="M40.5343 38.2335C41.3335 38.2335 41.9813 37.5857 41.9813 36.7865C41.9813 35.9874 41.3335 35.3396 40.5343 35.3396C39.7352 35.3396 39.0874 35.9874 39.0874 36.7865C39.0874 37.5857 39.7352 38.2335 40.5343 38.2335Z" fill="url(#paint19_linear_44_1624)"/>
<path d="M41.0827 35.1415C40.835 35.2239 40.6022 35.3635 40.405 35.5606C39.728 36.2377 39.728 37.3353 40.405 38.0124C40.6022 38.2095 40.835 38.3491 41.0827 38.4314C40.4798 38.6319 39.7885 38.4923 39.3086 38.0124C38.6315 37.3353 38.6315 36.2377 39.3086 35.5606C39.7885 35.0807 40.4796 34.9412 41.0827 35.1415Z" fill="url(#paint20_linear_44_1624)"/>
<path d="M39.3086 35.5607C38.6315 36.2377 38.6315 37.3354 39.3086 38.0124C39.9856 38.6895 41.0833 38.6895 41.7603 38.0124C42.4374 37.3354 42.4374 36.2377 41.7603 35.5607C41.0833 34.8836 39.9856 34.8836 39.3086 35.5607Z" fill="url(#paint21_linear_44_1624)"/>
<path d="M13.4592 43.6401L17.1752 46.0276L20.8911 42.3117L15.1875 41.5378C15.0313 41.5166 14.8508 41.5875 14.7146 41.7237L13.5031 42.9353C13.2692 43.1692 13.2484 43.5046 13.4592 43.6401Z" fill="url(#paint22_linear_44_1624)"/>
<path d="M13.8655 42.5729L13.5031 42.9352C13.2692 43.1691 13.2483 43.5046 13.4592 43.6402L17.1752 46.0277L20.0419 43.161L14.3384 42.3869C14.1822 42.3657 14.0017 42.4367 13.8655 42.5729Z" fill="url(#paint23_linear_44_1624)"/>
<path d="M21.0711 51.2522L18.6836 47.5362L22.3995 43.8203L23.1735 49.5238C23.1947 49.6801 23.1237 49.8607 22.9876 49.9968L21.7761 51.2083C21.5421 51.4422 21.2067 51.463 21.0711 51.2522Z" fill="url(#paint24_linear_44_1624)"/>
<path d="M22.1384 50.8459L21.7761 51.2083C21.5422 51.4421 21.2067 51.4631 21.0711 51.2521L18.6836 47.5361L21.5503 44.6694L22.3243 50.373C22.3456 50.5292 22.2745 50.7098 22.1384 50.8459Z" fill="url(#paint25_linear_44_1624)"/>
<path d="M17.2205 26.9034L29.0454 31.9997L36.0882 24.9568L20.9041 23.0857C20.5425 23.0411 20.1274 23.2065 19.8138 23.5203L17.2178 26.1163C16.9439 26.39 16.9452 26.7847 17.2205 26.9034Z" fill="url(#paint26_linear_44_1624)"/>
<path d="M18.1407 25.1933L17.2179 26.1161C16.9439 26.3901 16.9452 26.7848 17.2206 26.9034L29.0455 31.9996L34.4152 26.63L19.231 24.7588C18.8694 24.7141 18.4545 24.8795 18.1407 25.1933Z" fill="url(#paint27_linear_44_1624)"/>
<path d="M24.8986 25.4572L19.231 24.7588C18.8694 24.7142 18.4545 24.8796 18.1407 25.1934L17.2179 26.1162C16.9439 26.3902 16.9452 26.7849 17.2206 26.9035L21.5755 28.7803L24.8986 25.4572Z" fill="url(#paint28_linear_44_1624)"/>
<path d="M17.2205 26.9034L29.0454 31.9996L31.4673 29.5777L18.3579 24.9761L17.2179 26.1161C16.9439 26.39 16.9452 26.7847 17.2205 26.9034Z" fill="url(#paint29_linear_44_1624)"/>
<path d="M37.808 47.4907L32.7119 35.6657L39.7547 28.6229L41.6259 43.807C41.6705 44.1687 41.5051 44.5837 41.1913 44.8974L38.5954 47.4933C38.3214 47.7673 37.9267 47.766 37.808 47.4907Z" fill="url(#paint30_linear_44_1624)"/>
<path d="M39.5181 46.5706L38.5953 47.4934C38.3213 47.7674 37.9266 47.7661 37.808 47.4907L32.7119 35.6658L38.0816 30.2961L39.9527 45.4803C39.9973 45.8419 39.8319 46.2569 39.5181 46.5706Z" fill="url(#paint31_linear_44_1624)"/>
<path d="M39.2542 39.8127L39.9527 45.4803C39.9973 45.8419 39.8319 46.2569 39.5181 46.5706L38.5953 47.4935C38.3213 47.7675 37.9266 47.7662 37.808 47.4907L35.9312 43.1358L39.2542 39.8127Z" fill="url(#paint32_linear_44_1624)"/>
<path d="M37.808 47.4907L32.7119 35.6658L35.1338 33.2439L39.7353 46.3534L38.5953 47.4934C38.3214 47.7673 37.9267 47.766 37.808 47.4907Z" fill="url(#paint33_linear_44_1624)"/>
<path d="M37.6858 32.7318C29.4255 40.992 17.6551 50.2075 16.0793 48.6318C14.5035 47.056 23.7191 35.2857 31.9793 27.0253C40.2395 18.7651 44.4166 17.1428 45.9924 18.7186C47.5682 20.2945 45.9461 24.4715 37.6858 32.7318Z" fill="url(#paint34_linear_44_1624)"/>
<path d="M37.0736 32.4904C29.2167 40.3473 18.1497 49.2416 16.8097 47.9014C15.4697 46.5613 24.364 35.4945 32.2208 27.6376C40.0777 19.7806 43.9221 18.109 45.2621 19.449C46.6022 20.7891 44.9304 24.6334 37.0736 32.4904Z" fill="url(#paint35_linear_44_1624)"/>
<path d="M37.6856 32.7318C45.9458 24.4715 47.568 20.2945 45.9923 18.7188L16.0791 48.6319C17.655 50.2077 29.4253 40.9922 37.6856 32.7318Z" fill="url(#paint36_linear_44_1624)"/>
<path d="M38.9569 21.7826C38.451 22.223 37.9201 22.6973 37.3634 23.2068C37.2211 23.3372 37.234 23.5394 37.388 23.5672C38.3404 23.7387 39.2001 24.1559 39.8777 24.8334C40.5552 25.5109 40.9724 26.3708 41.1439 27.323C41.1717 27.477 41.3739 27.49 41.5043 27.3476C42.0138 26.7909 42.488 26.2601 42.9285 25.7542C43.2283 25.4099 43.3574 24.9767 43.2604 24.627C43.0481 23.8632 42.664 23.1739 42.1006 22.6105C41.5371 22.0469 40.8478 21.6628 40.084 21.4507C39.7344 21.3535 39.3012 21.4827 38.9569 21.7826Z" fill="url(#paint37_linear_44_1624)"/>
<path d="M42.9283 25.7541C42.5412 26.2 42.1271 26.6647 41.6859 27.1494C41.6259 27.2153 41.5659 27.2812 41.5047 27.3482C41.3742 27.4906 41.1718 27.4776 41.1436 27.3235C40.973 26.3706 40.5553 25.5106 39.8777 24.8329C39.8377 24.7929 39.7977 24.7541 39.7565 24.7176C39.2753 24.2718 38.7106 23.9494 38.0918 23.7447C38.6483 23.2376 39.1765 22.7647 39.6812 22.3259C40.0259 22.0259 40.4589 21.8965 40.8083 21.9941C41.2236 22.1094 41.6165 22.2753 41.98 22.4941C42.0212 22.5318 42.0612 22.5706 42.1012 22.6106C42.6647 23.1741 43.0483 23.8635 43.26 24.6271C43.3577 24.9765 43.2283 25.4094 42.9283 25.7541Z" fill="url(#paint38_linear_44_1624)"/>
<path d="M41.1442 27.3231C41.1719 27.4771 41.3742 27.49 41.5045 27.3477C42.014 26.7909 42.4883 26.2601 42.9288 25.7542C43.2285 25.4099 43.3577 24.9767 43.2606 24.6271C43.0484 23.8632 42.6643 23.1739 42.1009 22.6105L39.8779 24.8334C40.5555 25.5109 40.9726 26.3708 41.1442 27.3231Z" fill="url(#paint39_linear_44_1624)"/>
<path d="M18.8552 46.1045L18.6066 45.8559C18.3987 45.648 18.47 45.2484 18.7617 44.9873L23.0552 41.1438C23.2438 40.975 23.4938 40.9483 23.6283 41.0829C23.7627 41.2173 23.7362 41.4673 23.5672 41.6559L19.7237 45.9495C19.4627 46.241 19.0631 46.3124 18.8552 46.1045Z" fill="url(#paint40_linear_44_1624)"/>
<path d="M3.75929 54.8886C3.51247 54.8886 3.27494 54.8736 3.04847 54.8438C2.73 54.8018 2.52129 54.4893 2.60718 54.1798L2.84271 53.3297C2.91071 53.0844 3.14388 52.9216 3.39718 52.9464C3.87294 52.993 4.46306 52.9416 5.14106 52.7934C5.41518 52.7333 5.68859 52.8996 5.76153 53.1705L5.98847 54.0133C6.06694 54.3049 5.884 54.6003 5.58918 54.6658C4.92318 54.8138 4.30953 54.8886 3.75929 54.8886ZM7.98094 53.3385L7.65447 52.5303C7.54718 52.2645 7.67153 51.9631 7.93471 51.8498C8.52647 51.5951 9.15294 51.2973 9.80635 50.9604C10.0621 50.8285 10.3771 50.9262 10.5125 51.1802L10.9226 51.9492C11.0609 52.2086 10.9594 52.5315 10.6981 52.6663C9.99447 53.0293 9.31753 53.3508 8.67577 53.6264C8.40483 53.7429 8.09153 53.6123 7.98094 53.3385ZM0.848941 52.6644C0.550706 52.7908 0.207765 52.6215 0.131412 52.3066C0.0441177 51.9461 0 51.5523 0 51.1293C0 50.6844 0.0488235 50.1975 0.145647 49.6765C0.200824 49.3793 0.492471 49.1873 0.786471 49.2572L1.63541 49.4591C1.90659 49.5236 2.08141 49.7892 2.03153 50.0635C1.96071 50.4536 1.92494 50.8105 1.92494 51.1291C1.92494 51.3508 1.94224 51.5529 1.97624 51.7339C2.02224 51.9784 1.89435 52.2213 1.66529 52.3184L0.848941 52.6644ZM12.7292 50.9322L12.2849 50.1823C12.138 49.9342 12.2172 49.6141 12.4638 49.4646C13.0454 49.1123 13.6449 48.7342 14.2549 48.335C14.4966 48.1769 14.8208 48.2441 14.9808 48.4844L15.4636 49.2101C15.626 49.4541 15.5574 49.7831 15.3122 49.9436C14.6807 50.3569 14.0593 50.7488 13.4559 51.1142C13.2049 51.2662 12.8787 51.1846 12.7292 50.9322ZM17.9056 48.1671C17.6674 48.3372 17.3364 48.2821 17.1678 48.0428L17.9056 48.1671ZM2.23106 47.5583L1.41753 47.2452C1.14176 47.1391 1.00588 46.8275 1.11847 46.5543C1.38435 45.9092 1.69824 45.2269 2.05612 44.5161C2.18835 44.2533 2.51047 44.1485 2.77129 44.2846L3.54412 44.6877C3.79918 44.8208 3.89977 45.1344 3.77047 45.3913C3.44 46.0482 3.15082 46.6762 2.90635 47.2676C2.79706 47.5322 2.49812 47.6611 2.23106 47.5583ZM4.52706 42.9088L3.77412 42.4698C3.52094 42.3223 3.43647 41.9969 3.58647 41.7452C3.59129 41.7372 3.59612 41.7291 3.60082 41.7211C3.75094 41.4696 4.078 41.3884 4.328 41.541L5.072 41.995C5.31859 42.1455 5.39753 42.4668 5.24941 42.7149C5.24765 42.7179 5.24577 42.7209 5.244 42.7239C5.09612 42.9719 4.77659 43.0542 4.52706 42.9088ZM46.8866 18.257L46.1726 17.7572C45.9358 17.5915 45.8765 17.2655 46.0406 17.0276C46.4532 16.4296 46.8482 15.8388 47.2208 15.2626C47.3777 15.0202 47.7006 14.9505 47.9444 15.1052L48.6801 15.5724C48.9274 15.7295 48.9991 16.0576 48.8399 16.3036C48.4555 16.898 48.0482 17.5071 47.6231 18.1233C47.4568 18.3644 47.1265 18.4249 46.8866 18.257ZM49.7582 13.8058L49.006 13.3656C48.7573 13.22 48.6718 12.9009 48.8146 12.6506C49.178 12.0137 49.5104 11.396 49.8077 10.8053C49.9368 10.5486 50.2474 10.4439 50.5062 10.569L51.2911 10.9483C51.5561 11.0764 51.6653 11.3959 51.5331 11.659C51.2182 12.2851 50.8668 12.9385 50.4831 13.6109C50.3373 13.8658 50.0117 13.954 49.7582 13.8058ZM52.1268 9.03593L51.3147 8.71958C51.048 8.61569 50.9149 8.31781 51.0114 8.0484C51.2584 7.35887 51.4349 6.72864 51.5393 6.16522C51.5897 5.89346 51.8426 5.70887 52.1172 5.74087L52.9845 5.84228C53.2855 5.87746 53.4961 6.15852 53.4426 6.45675C53.3188 7.14593 53.1085 7.90475 52.8142 8.7237C52.714 9.00228 52.4025 9.14334 52.1268 9.03593ZM44.9544 4.08593L44.5937 3.29217C44.4719 3.02416 44.5935 2.70711 44.8639 2.59052C45.6233 2.26322 46.3405 1.99699 47.0061 1.79487C47.2931 1.70781 47.5947 1.87487 47.6708 2.16499L47.892 3.00864C47.9634 3.28122 47.8085 3.5624 47.5389 3.64475C46.9546 3.82322 46.32 4.05958 45.6428 4.35087C45.3794 4.46416 45.0729 4.34699 44.9544 4.08593ZM51.9251 3.95111C51.7104 4.03369 51.4622 3.97099 51.3239 3.78722C51.292 3.74475 51.2575 3.70511 51.2205 3.66805C50.9358 3.38346 50.4654 3.23875 49.8222 3.23781H49.8041V1.31299V2.27546L49.8052 1.86511C49.806 1.55522 50.0737 1.30981 50.382 1.34122C51.2964 1.4344 52.0326 1.75816 52.5815 2.30687C52.7488 2.47405 52.896 2.66064 53.0222 2.86475C53.1947 3.14381 53.0662 3.51193 52.7601 3.62969L51.9251 3.95111Z" fill="url(#paint41_linear_44_1624)"/>
<path d="M19.476 10.8933C20.384 10.8933 21.12 10.1573 21.12 9.24935C21.12 8.34139 20.384 7.60535 19.476 7.60535C18.5681 7.60535 17.832 8.34139 17.832 9.24935C17.832 10.1573 18.5681 10.8933 19.476 10.8933Z" fill="url(#paint42_linear_44_1624)"/>
<path d="M10.7172 23.0628C11.6252 23.0628 12.3612 22.3267 12.3612 21.4188C12.3612 20.5108 11.6252 19.7748 10.7172 19.7748C9.80929 19.7748 9.07324 20.5108 9.07324 21.4188C9.07324 22.3267 9.80929 23.0628 10.7172 23.0628Z" fill="url(#paint43_linear_44_1624)"/>
<path d="M55.5429 27.2676C56.4509 27.2676 57.1869 26.5316 57.1869 25.6236C57.1869 24.7157 56.4509 23.9796 55.5429 23.9796C54.635 23.9796 53.8989 24.7157 53.8989 25.6236C53.8989 26.5316 54.635 27.2676 55.5429 27.2676Z" fill="url(#paint44_linear_44_1624)"/>
</g>
</g>
<defs>
<linearGradient id="paint0_linear_44_1624" x1="18.0226" y1="16.7098" x2="52.301" y2="50.988" gradientUnits="userSpaceOnUse">
<stop stop-color="#00AEFC"/>
<stop offset="1" stop-color="#3F3CEE"/>
</linearGradient>
<linearGradient id="paint1_linear_44_1624" x1="36.0407" y1="61.5425" x2="25.8642" y2="-11.7619" gradientUnits="userSpaceOnUse">
<stop stop-color="#00AEFC" stop-opacity="0"/>
<stop offset="1" stop-color="#18CFFC"/>
</linearGradient>
<linearGradient id="paint2_linear_44_1624" x1="22.8338" y1="19.069" x2="67.3943" y2="50.6866" gradientUnits="userSpaceOnUse">
<stop stop-color="#E5F3FF"/>
<stop offset="1" stop-color="#B3CCFF"/>
</linearGradient>
<linearGradient id="paint3_linear_44_1624" x1="47.158" y1="32.8177" x2="67.1269" y2="36.3308" gradientUnits="userSpaceOnUse">
<stop stop-color="#E5F3FF"/>
<stop offset="1" stop-color="#B3CCFF"/>
</linearGradient>
<linearGradient id="paint4_linear_44_1624" x1="41.0564" y1="24.8155" x2="61.8446" y2="-15.7985" gradientUnits="userSpaceOnUse">
<stop stop-color="#3F3CEE" stop-opacity="0"/>
<stop offset="1" stop-color="#2F43BC"/>
</linearGradient>
<linearGradient id="paint5_linear_44_1624" x1="44.0505" y1="46.6901" x2="29.6571" y2="32.2967" gradientUnits="userSpaceOnUse">
<stop stop-color="#3F3CEE" stop-opacity="0"/>
<stop offset="1" stop-color="#2F43BC"/>
</linearGradient>
<linearGradient id="paint6_linear_44_1624" x1="24.1155" y1="22.7766" x2="24.1155" y2="25.9516" gradientUnits="userSpaceOnUse">
<stop stop-color="#F9F7FC"/>
<stop offset="1" stop-color="#F0DDFC"/>
</linearGradient>
<linearGradient id="paint7_linear_44_1624" x1="24.116" y1="24.4947" x2="24.116" y2="22.2762" gradientUnits="userSpaceOnUse">
<stop stop-color="#E9EDF5" stop-opacity="0"/>
<stop offset="1" stop-color="white"/>
</linearGradient>
<linearGradient id="paint8_linear_44_1624" x1="23.6883" y1="24.206" x2="28.5067" y2="22.7573" gradientUnits="userSpaceOnUse">
<stop stop-color="#F0DDFC" stop-opacity="0"/>
<stop offset="0.2889" stop-color="#C8B7E0" stop-opacity="0.289"/>
<stop offset="0.5915" stop-color="#A595C8" stop-opacity="0.592"/>
<stop offset="0.8395" stop-color="#8F81B8" stop-opacity="0.84"/>
<stop offset="1" stop-color="#8779B3"/>
</linearGradient>
<linearGradient id="paint9_linear_44_1624" x1="24.2724" y1="22.817" x2="23.9884" y2="24.4048" gradientUnits="userSpaceOnUse">
<stop stop-color="#F0DDFC" stop-opacity="0"/>
<stop offset="0.2889" stop-color="#C8B7E0" stop-opacity="0.289"/>
<stop offset="0.5915" stop-color="#A595C8" stop-opacity="0.592"/>
<stop offset="0.8395" stop-color="#8F81B8" stop-opacity="0.84"/>
<stop offset="1" stop-color="#8779B3"/>
</linearGradient>
<linearGradient id="paint10_linear_44_1624" x1="27.9427" y1="23.2444" x2="27.9427" y2="26.4193" gradientUnits="userSpaceOnUse">
<stop stop-color="#F9F7FC"/>
<stop offset="1" stop-color="#F0DDFC"/>
</linearGradient>
<linearGradient id="paint11_linear_44_1624" x1="27.9426" y1="24.9625" x2="27.9425" y2="22.7441" gradientUnits="userSpaceOnUse">
<stop stop-color="#E9EDF5" stop-opacity="0"/>
<stop offset="1" stop-color="white"/>
</linearGradient>
<linearGradient id="paint12_linear_44_1624" x1="27.5154" y1="24.6738" x2="32.3337" y2="23.2252" gradientUnits="userSpaceOnUse">
<stop stop-color="#F0DDFC" stop-opacity="0"/>
<stop offset="0.2889" stop-color="#C8B7E0" stop-opacity="0.289"/>
<stop offset="0.5915" stop-color="#A595C8" stop-opacity="0.592"/>
<stop offset="0.8395" stop-color="#8F81B8" stop-opacity="0.84"/>
<stop offset="1" stop-color="#8779B3"/>
</linearGradient>
<linearGradient id="paint13_linear_44_1624" x1="28.0995" y1="23.2847" x2="27.8155" y2="24.8726" gradientUnits="userSpaceOnUse">
<stop stop-color="#F0DDFC" stop-opacity="0"/>
<stop offset="0.2889" stop-color="#C8B7E0" stop-opacity="0.289"/>
<stop offset="0.5915" stop-color="#A595C8" stop-opacity="0.592"/>
<stop offset="0.8395" stop-color="#8F81B8" stop-opacity="0.84"/>
<stop offset="1" stop-color="#8779B3"/>
</linearGradient>
<linearGradient id="paint14_linear_44_1624" x1="41.9384" y1="40.5995" x2="38.7635" y2="40.5996" gradientUnits="userSpaceOnUse">
<stop stop-color="#F9F7FC"/>
<stop offset="1" stop-color="#F0DDFC"/>
</linearGradient>
<linearGradient id="paint15_linear_44_1624" x1="40.2203" y1="40.5994" x2="42.4387" y2="40.5994" gradientUnits="userSpaceOnUse">
<stop stop-color="#E9EDF5" stop-opacity="0"/>
<stop offset="1" stop-color="white"/>
</linearGradient>
<linearGradient id="paint16_linear_44_1624" x1="40.509" y1="41.0267" x2="41.9577" y2="36.2084" gradientUnits="userSpaceOnUse">
<stop stop-color="#F0DDFC" stop-opacity="0"/>
<stop offset="0.2889" stop-color="#C8B7E0" stop-opacity="0.289"/>
<stop offset="0.5915" stop-color="#A595C8" stop-opacity="0.592"/>
<stop offset="0.8395" stop-color="#8F81B8" stop-opacity="0.84"/>
<stop offset="1" stop-color="#8779B3"/>
</linearGradient>
<linearGradient id="paint17_linear_44_1624" x1="41.8981" y1="40.4427" x2="40.3103" y2="40.7267" gradientUnits="userSpaceOnUse">
<stop stop-color="#F0DDFC" stop-opacity="0"/>
<stop offset="0.2889" stop-color="#C8B7E0" stop-opacity="0.289"/>
<stop offset="0.5915" stop-color="#A595C8" stop-opacity="0.592"/>
<stop offset="0.8395" stop-color="#8F81B8" stop-opacity="0.84"/>
<stop offset="1" stop-color="#8779B3"/>
</linearGradient>
<linearGradient id="paint18_linear_44_1624" x1="41.4708" y1="36.7723" x2="38.2958" y2="36.7723" gradientUnits="userSpaceOnUse">
<stop stop-color="#F9F7FC"/>
<stop offset="1" stop-color="#F0DDFC"/>
</linearGradient>
<linearGradient id="paint19_linear_44_1624" x1="39.7526" y1="36.7723" x2="41.971" y2="36.7724" gradientUnits="userSpaceOnUse">
<stop stop-color="#E9EDF5" stop-opacity="0"/>
<stop offset="1" stop-color="white"/>
</linearGradient>
<linearGradient id="paint20_linear_44_1624" x1="40.0413" y1="37.1996" x2="41.4899" y2="32.3813" gradientUnits="userSpaceOnUse">
<stop stop-color="#F0DDFC" stop-opacity="0"/>
<stop offset="0.2889" stop-color="#C8B7E0" stop-opacity="0.289"/>
<stop offset="0.5915" stop-color="#A595C8" stop-opacity="0.592"/>
<stop offset="0.8395" stop-color="#8F81B8" stop-opacity="0.84"/>
<stop offset="1" stop-color="#8779B3"/>
</linearGradient>
<linearGradient id="paint21_linear_44_1624" x1="41.4305" y1="36.6155" x2="39.8425" y2="36.8995" gradientUnits="userSpaceOnUse">
<stop stop-color="#F0DDFC" stop-opacity="0"/>
<stop offset="0.2889" stop-color="#C8B7E0" stop-opacity="0.289"/>
<stop offset="0.5915" stop-color="#A595C8" stop-opacity="0.592"/>
<stop offset="0.8395" stop-color="#8F81B8" stop-opacity="0.84"/>
<stop offset="1" stop-color="#8779B3"/>
</linearGradient>
<linearGradient id="paint22_linear_44_1624" x1="17.1651" y1="42.5091" x2="16.7579" y2="45.2308" gradientUnits="userSpaceOnUse">
<stop stop-color="#FFDA45"/>
<stop offset="0.3043" stop-color="#FFCE3E"/>
<stop offset="0.8558" stop-color="#FFAE2B"/>
<stop offset="1" stop-color="#FFA425"/>
</linearGradient>
<linearGradient id="paint23_linear_44_1624" x1="16.2276" y1="43.6071" x2="20.2675" y2="39.4798" gradientUnits="userSpaceOnUse">
<stop stop-color="#FFDA45" stop-opacity="0"/>
<stop offset="1" stop-color="#B53759"/>
</linearGradient>
<linearGradient id="paint24_linear_44_1624" x1="22.208" y1="47.5522" x2="19.4863" y2="47.9594" gradientUnits="userSpaceOnUse">
<stop stop-color="#FFDA45"/>
<stop offset="0.3043" stop-color="#FFCE3E"/>
<stop offset="0.8558" stop-color="#FFAE2B"/>
<stop offset="1" stop-color="#FFA425"/>
</linearGradient>
<linearGradient id="paint25_linear_44_1624" x1="21.1101" y1="48.4896" x2="25.2373" y2="44.4498" gradientUnits="userSpaceOnUse">
<stop stop-color="#FFDA45" stop-opacity="0"/>
<stop offset="1" stop-color="#B53759"/>
</linearGradient>
<linearGradient id="paint26_linear_44_1624" x1="27.179" y1="24.6498" x2="22.9554" y2="31.7096" gradientUnits="userSpaceOnUse">
<stop stop-color="#FFDA45"/>
<stop offset="0.3043" stop-color="#FFCE3E"/>
<stop offset="0.8558" stop-color="#FFAE2B"/>
<stop offset="1" stop-color="#FFA425"/>
</linearGradient>
<linearGradient id="paint27_linear_44_1624" x1="23.881" y1="29.2563" x2="32.5634" y2="16.3169" gradientUnits="userSpaceOnUse">
<stop stop-color="#FFDA45" stop-opacity="0"/>
<stop offset="1" stop-color="#B53759"/>
</linearGradient>
<linearGradient id="paint28_linear_44_1624" x1="21.7292" y1="27.013" x2="25.9247" y2="32.2747" gradientUnits="userSpaceOnUse">
<stop stop-color="#F0DDFC" stop-opacity="0"/>
<stop offset="0.2889" stop-color="#C8B7E0" stop-opacity="0.289"/>
<stop offset="0.5915" stop-color="#A595C8" stop-opacity="0.592"/>
<stop offset="0.8395" stop-color="#8F81B8" stop-opacity="0.84"/>
<stop offset="1" stop-color="#8779B3"/>
</linearGradient>
<linearGradient id="paint29_linear_44_1624" x1="24.0717" y1="28.3345" x2="22.3179" y2="31.5917" gradientUnits="userSpaceOnUse">
<stop stop-color="#FFDA45" stop-opacity="0"/>
<stop offset="1" stop-color="#B53759"/>
</linearGradient>
<linearGradient id="paint30_linear_44_1624" x1="40.0656" y1="37.5362" x2="33.0059" y2="41.7598" gradientUnits="userSpaceOnUse">
<stop stop-color="#FFDA45"/>
<stop offset="0.3043" stop-color="#FFCE3E"/>
<stop offset="0.8558" stop-color="#FFAE2B"/>
<stop offset="1" stop-color="#FFA425"/>
</linearGradient>
<linearGradient id="paint31_linear_44_1624" x1="36.3081" y1="40.2646" x2="49.2475" y2="31.5823" gradientUnits="userSpaceOnUse">
<stop stop-color="#FFDA45" stop-opacity="0"/>
<stop offset="1" stop-color="#B53759"/>
</linearGradient>
<linearGradient id="paint32_linear_44_1624" x1="38.1959" y1="43.3798" x2="32.9343" y2="39.1844" gradientUnits="userSpaceOnUse">
<stop stop-color="#FFDA45" stop-opacity="0"/>
<stop offset="1" stop-color="#B53759"/>
</linearGradient>
<linearGradient id="paint33_linear_44_1624" x1="36.3808" y1="40.6434" x2="33.1237" y2="42.3974" gradientUnits="userSpaceOnUse">
<stop stop-color="#FFDA45" stop-opacity="0"/>
<stop offset="1" stop-color="#B53759"/>
</linearGradient>
<linearGradient id="paint34_linear_44_1624" x1="29.881" y1="32.5236" x2="33.4517" y2="36.0943" gradientUnits="userSpaceOnUse">
<stop stop-color="#E5F3FF"/>
<stop offset="1" stop-color="#B3CCFF"/>
</linearGradient>
<linearGradient id="paint35_linear_44_1624" x1="32.3552" y1="34.8548" x2="27.2744" y2="30.3183" gradientUnits="userSpaceOnUse">
<stop stop-color="#E5F3FF" stop-opacity="0"/>
<stop offset="1" stop-color="white"/>
</linearGradient>
<linearGradient id="paint36_linear_44_1624" x1="30.7819" y1="38.2694" x2="38.6882" y2="-16.9213" gradientUnits="userSpaceOnUse">
<stop stop-color="#B3CCFF" stop-opacity="0"/>
<stop offset="1" stop-color="#9FB0CB"/>
</linearGradient>
<linearGradient id="paint37_linear_44_1624" x1="39.2469" y1="22.2147" x2="42.3564" y2="27.1011" gradientUnits="userSpaceOnUse">
<stop stop-color="#8B788A"/>
<stop offset="1" stop-color="#6E566E"/>
</linearGradient>
<linearGradient id="paint38_linear_44_1624" x1="40.8164" y1="24.6719" x2="39.9929" y2="21.8189" gradientUnits="userSpaceOnUse">
<stop stop-color="#8B788A" stop-opacity="0"/>
<stop offset="1" stop-color="#9E8C92"/>
</linearGradient>
<linearGradient id="paint39_linear_44_1624" x1="41.455" y1="25.318" x2="43.4093" y2="20.289" gradientUnits="userSpaceOnUse">
<stop stop-color="#555A66" stop-opacity="0"/>
<stop offset="1" stop-color="#555A66"/>
</linearGradient>
<linearGradient id="paint40_linear_44_1624" x1="21.0847" y1="43.4369" x2="21.508" y2="43.8603" gradientUnits="userSpaceOnUse">
<stop stop-color="#E5F3FF"/>
<stop offset="1" stop-color="#B3CCFF"/>
</linearGradient>
<linearGradient id="paint41_linear_44_1624" x1="0" y1="28.1008" x2="53.4508" y2="28.1008" gradientUnits="userSpaceOnUse">
<stop stop-color="#FF7044"/>
<stop offset="1" stop-color="#F92814"/>
</linearGradient>
<linearGradient id="paint42_linear_44_1624" x1="19.3486" y1="9.12205" x2="21.1594" y2="10.9328" gradientUnits="userSpaceOnUse">
<stop stop-color="#FF7044"/>
<stop offset="1" stop-color="#F92814"/>
</linearGradient>
<linearGradient id="paint43_linear_44_1624" x1="10.0218" y1="20.7234" x2="11.9967" y2="22.6983" gradientUnits="userSpaceOnUse">
<stop stop-color="#92F37F"/>
<stop offset="1" stop-color="#4AB272"/>
</linearGradient>
<linearGradient id="paint44_linear_44_1624" x1="54.5282" y1="24.6089" x2="57.3615" y2="27.4422" gradientUnits="userSpaceOnUse">
<stop stop-color="#92F37F"/>
<stop offset="1" stop-color="#4AB272"/>
</linearGradient>
<clipPath id="clip0_44_1624">
<rect width="60" height="60" fill="white"/>
</clipPath>
<clipPath id="clip1_44_1624">
<rect width="60" height="60" fill="white"/>
</clipPath>
</defs>
</svg>
